<svg width="16" height="23" viewBox="0 0 16 23" fill="none" xmlns="http://www.w3.org/2000/svg">
<path d="M7.93043 22.1862C7.95452 22.213 7.97772 22.2387 8 22.2634C8.02228 22.2387 8.04548 22.213 8.06957 22.1862C8.34435 21.8807 8.73475 21.4353 9.19464 20.8788C10.1153 19.7649 11.3102 18.2108 12.4129 16.4455C13.5176 14.6773 14.5182 12.7155 15.065 10.7847C15.6125 8.85125 15.6917 6.99759 15.0216 5.4043C12.2712 -1.13477 3.72883 -1.13477 0.978444 5.4043C0.308293 6.99759 0.387494 8.85125 0.935016 10.7847C1.4818 12.7155 2.48241 14.6773 3.58705 16.4455C4.68983 18.2108 5.88475 19.7649 6.80536 20.8788C7.26525 21.4353 7.65565 21.8807 7.93043 22.1862Z" stroke="#6F6F6F"/>
</svg>
