<svg width="469" height="53" viewBox="0 0 469 53" fill="none" xmlns="http://www.w3.org/2000/svg">
<path d="M12.4724 15.6566L12.4604 17.7353H1.76632V0.480631H12.4604V2.55936H4.3377V8.02654H10.8743V10.0332H4.3377V15.6566H12.4724Z" fill="white" fill-opacity="0.6"/>
<path d="M25.3929 17.7353H23.134C22.9497 17.7353 22.8015 17.6872 22.6894 17.5911C22.5852 17.487 22.5011 17.3788 22.437 17.2667L19.4932 12.6166C19.4531 12.7367 19.4131 12.8529 19.373 12.965C19.333 13.0772 19.2809 13.1813 19.2168 13.2774L16.5133 17.2667C16.4331 17.3788 16.341 17.487 16.2369 17.5911C16.1328 17.6872 15.9966 17.7353 15.8284 17.7353H13.7376L17.9912 11.451L13.9058 5.52726H16.1648C16.349 5.52726 16.4812 5.5553 16.5613 5.61137C16.6494 5.66744 16.7255 5.75156 16.7896 5.8637L19.6854 10.3216C19.7255 10.2014 19.7695 10.0852 19.8176 9.9731C19.8657 9.85294 19.9297 9.72878 20.0098 9.60061L22.4971 5.91177C22.6413 5.65543 22.8336 5.52726 23.0739 5.52726H25.2247L21.1393 11.3429L25.3929 17.7353Z" fill="white" fill-opacity="0.6"/>
<path d="M29.6082 14.7314C29.9927 15.236 30.4053 15.5885 30.8458 15.7887C31.2944 15.989 31.7951 16.0891 32.3478 16.0891C33.4212 16.0891 34.2503 15.7046 34.8351 14.9356C35.4279 14.1586 35.7242 13.0291 35.7242 11.5472C35.7242 10.7701 35.6562 10.1093 35.52 9.56457C35.3918 9.01184 35.1996 8.56325 34.9432 8.2188C34.6949 7.86633 34.3865 7.61 34.018 7.44979C33.6495 7.28157 33.233 7.19746 32.7684 7.19746C32.0875 7.19746 31.4947 7.34965 30.99 7.65405C30.4934 7.95845 30.0328 8.39102 29.6082 8.95176V14.7314ZM29.488 7.35366C29.7444 7.04926 30.0167 6.7729 30.3051 6.52457C30.6015 6.26823 30.9179 6.05195 31.2544 5.87572C31.5908 5.69148 31.9473 5.55129 32.3238 5.45517C32.7083 5.35103 33.1168 5.29896 33.5494 5.29896C34.2463 5.29896 34.8751 5.43514 35.4359 5.7075C36.0046 5.97986 36.4892 6.38038 36.8898 6.90908C37.2903 7.43777 37.5987 8.09063 37.815 8.86765C38.0393 9.64467 38.1514 10.5378 38.1514 11.5472C38.1514 12.4524 38.0273 13.2935 37.7789 14.0705C37.5386 14.8395 37.1902 15.5084 36.7336 16.0771C36.285 16.6459 35.7322 17.0945 35.0754 17.4229C34.4265 17.7433 33.6936 17.9035 32.8765 17.9035C32.1475 17.9035 31.5227 17.7834 31.002 17.543C30.4814 17.3027 30.0167 16.9663 29.6082 16.5337V21.8327H27.2651V5.52726H28.671C28.9994 5.52726 29.2037 5.68347 29.2838 5.99588L29.488 7.35366Z" fill="white" fill-opacity="0.6"/>
<path d="M48.8695 10.2735C48.8695 9.80889 48.8014 9.38032 48.6652 8.98781C48.5371 8.59529 48.3448 8.25484 48.0885 7.96647C47.8321 7.67809 47.5197 7.45379 47.1513 7.29358C46.7828 7.13337 46.3582 7.05327 45.8776 7.05327C44.8923 7.05327 44.1153 7.33764 43.5465 7.90639C42.9858 8.47513 42.6293 9.26417 42.4771 10.2735H48.8695ZM50.804 15.993C50.5157 16.3295 50.1832 16.6218 49.8067 16.8702C49.4302 17.1105 49.0297 17.3067 48.6052 17.4589C48.1806 17.6111 47.74 17.7233 47.2834 17.7954C46.8348 17.8675 46.3903 17.9035 45.9497 17.9035C45.1086 17.9035 44.3275 17.7633 43.6066 17.483C42.8937 17.1946 42.2728 16.778 41.7441 16.2333C41.2235 15.6806 40.8149 14.9997 40.5185 14.1906C40.2302 13.3736 40.086 12.4363 40.086 11.3789C40.086 10.5298 40.2181 9.7408 40.4825 9.01184C40.7468 8.27487 41.1233 7.63403 41.612 7.08931C42.1086 6.5446 42.7134 6.11603 43.4264 5.80362C44.1393 5.49121 44.9403 5.33501 45.8295 5.33501C46.5745 5.33501 47.2594 5.45917 47.8842 5.7075C48.517 5.94781 49.0618 6.30028 49.5184 6.76489C49.975 7.2295 50.3314 7.80225 50.5878 8.48314C50.8521 9.16404 50.9843 9.94106 50.9843 10.8142C50.9843 11.1747 50.9442 11.419 50.8641 11.5472C50.784 11.6673 50.6358 11.7274 50.4195 11.7274H42.417C42.4411 12.4564 42.5452 13.0932 42.7294 13.6379C42.9137 14.1746 43.166 14.6232 43.4864 14.9837C43.8149 15.3442 44.2034 15.6125 44.652 15.7887C45.1006 15.965 45.6012 16.0531 46.1539 16.0531C46.6746 16.0531 47.1232 15.993 47.4997 15.8729C47.8842 15.7527 48.2126 15.6245 48.485 15.4883C48.7654 15.3442 48.9977 15.212 49.1819 15.0918C49.3742 14.9717 49.5424 14.9116 49.6866 14.9116C49.8788 14.9116 50.027 14.9837 50.1312 15.1279L50.804 15.993Z" fill="white" fill-opacity="0.6"/>
<path d="M55.7136 7.87034C56.1061 7.06929 56.5788 6.44046 57.1315 5.98386C57.6842 5.52726 58.3491 5.29896 59.1261 5.29896C59.3905 5.29896 59.6388 5.331 59.8711 5.39509C60.1114 5.45116 60.3197 5.53928 60.4959 5.65944L60.3397 7.42576C60.2836 7.64204 60.1515 7.75018 59.9432 7.75018C59.831 7.75018 59.6628 7.73015 59.4385 7.6901C59.2142 7.64204 58.9739 7.61801 58.7176 7.61801C58.3411 7.61801 58.0086 7.67408 57.7203 7.78623C57.4319 7.89037 57.1715 8.05058 56.9392 8.26686C56.7149 8.47513 56.5147 8.73548 56.3384 9.04789C56.1622 9.35229 55.998 9.70074 55.8458 10.0933V17.7353H53.5027V5.52726H54.8485C55.1048 5.52726 55.2771 5.57532 55.3652 5.67145C55.4613 5.75957 55.5294 5.91978 55.5694 6.15208L55.7136 7.87034Z" fill="white" fill-opacity="0.6"/>
<path d="M64.7546 5.52726V17.7353H62.4115V5.52726H64.7546ZM65.1991 1.7543C65.1991 1.97059 65.1551 2.17886 65.067 2.37912C64.9789 2.57138 64.8587 2.7436 64.7065 2.8958C64.5623 3.03999 64.3901 3.15615 64.1898 3.24426C63.9896 3.32437 63.7813 3.36442 63.565 3.36442C63.3487 3.36442 63.1444 3.32437 62.9522 3.24426C62.7599 3.15615 62.5877 3.03999 62.4355 2.8958C62.2913 2.7436 62.1752 2.57138 62.0871 2.37912C62.007 2.17886 61.9669 1.97059 61.9669 1.7543C61.9669 1.53001 62.007 1.32174 62.0871 1.12948C62.1752 0.929221 62.2913 0.756994 62.4355 0.612805C62.5877 0.460605 62.7599 0.344452 62.9522 0.264347C63.1444 0.176232 63.3487 0.132174 63.565 0.132174C63.7813 0.132174 63.9896 0.176232 64.1898 0.264347C64.3901 0.344452 64.5623 0.460605 64.7065 0.612805C64.8587 0.756994 64.9789 0.929221 65.067 1.12948C65.1551 1.32174 65.1991 1.53001 65.1991 1.7543Z" fill="white" fill-opacity="0.6"/>
<path d="M76.2336 10.2735C76.2336 9.80889 76.1655 9.38032 76.0293 8.98781C75.9011 8.59529 75.7089 8.25484 75.4526 7.96647C75.1962 7.67809 74.8838 7.45379 74.5153 7.29358C74.1468 7.13337 73.7223 7.05327 73.2417 7.05327C72.2564 7.05327 71.4793 7.33764 70.9106 7.90639C70.3499 8.47513 69.9934 9.26417 69.8412 10.2735H76.2336ZM78.1681 15.993C77.8797 16.3295 77.5473 16.6218 77.1708 16.8702C76.7943 17.1105 76.3938 17.3067 75.9692 17.4589C75.5447 17.6111 75.1041 17.7233 74.6475 17.7954C74.1989 17.8675 73.7543 17.9035 73.3137 17.9035C72.4726 17.9035 71.6916 17.7633 70.9707 17.483C70.2577 17.1946 69.6369 16.778 69.1082 16.2333C68.5875 15.6806 68.179 14.9997 67.8826 14.1906C67.5942 13.3736 67.45 12.4363 67.45 11.3789C67.45 10.5298 67.5822 9.7408 67.8466 9.01184C68.1109 8.27487 68.4874 7.63403 68.976 7.08931C69.4727 6.5446 70.0775 6.11603 70.7904 5.80362C71.5034 5.49121 72.3044 5.33501 73.1936 5.33501C73.9386 5.33501 74.6235 5.45917 75.2483 5.7075C75.8811 5.94781 76.4258 6.30028 76.8824 6.76489C77.339 7.2295 77.6955 7.80225 77.9518 8.48314C78.2162 9.16404 78.3484 9.94106 78.3484 10.8142C78.3484 11.1747 78.3083 11.419 78.2282 11.5472C78.1481 11.6673 77.9999 11.7274 77.7836 11.7274H69.7811C69.8051 12.4564 69.9093 13.0932 70.0935 13.6379C70.2778 14.1746 70.5301 14.6232 70.8505 14.9837C71.1789 15.3442 71.5675 15.6125 72.016 15.7887C72.4646 15.965 72.9653 16.0531 73.518 16.0531C74.0387 16.0531 74.4873 15.993 74.8638 15.8729C75.2483 15.7527 75.5767 15.6245 75.8491 15.4883C76.1294 15.3442 76.3617 15.212 76.546 15.0918C76.7382 14.9717 76.9065 14.9116 77.0507 14.9116C77.2429 14.9116 77.3911 14.9837 77.4952 15.1279L78.1681 15.993Z" fill="white" fill-opacity="0.6"/>
<path d="M83.0657 7.22149C83.33 6.94112 83.6064 6.68478 83.8948 6.45248C84.1831 6.22017 84.4875 6.02391 84.808 5.8637C85.1364 5.69548 85.4849 5.56731 85.8533 5.4792C86.2298 5.38307 86.6304 5.33501 87.0549 5.33501C87.7278 5.33501 88.3166 5.44716 88.8212 5.67145C89.3339 5.89574 89.7625 6.21216 90.1069 6.6207C90.4514 7.02122 90.7117 7.50586 90.888 8.07461C91.0642 8.64336 91.1523 9.27218 91.1523 9.96109V17.7353H88.7972V9.96109C88.7972 9.08794 88.597 8.41105 88.1964 7.93042C87.7959 7.44178 87.1831 7.19746 86.358 7.19746C85.7572 7.19746 85.1925 7.34164 84.6638 7.63002C84.1431 7.91039 83.6585 8.2949 83.2099 8.78354V17.7353H80.8668V5.52726H82.2726C82.6011 5.52726 82.8053 5.68347 82.8854 5.99588L83.0657 7.22149Z" fill="white" fill-opacity="0.6"/>
<path d="M102.869 7.81026C102.797 7.89838 102.725 7.97047 102.653 8.02654C102.589 8.07461 102.493 8.09864 102.365 8.09864C102.237 8.09864 102.1 8.05058 101.956 7.95445C101.82 7.85031 101.644 7.74217 101.427 7.63002C101.219 7.50987 100.963 7.40172 100.658 7.3056C100.362 7.20146 99.9936 7.14939 99.553 7.14939C98.9763 7.14939 98.4676 7.25353 98.027 7.4618C97.5864 7.67008 97.218 7.96646 96.9216 8.35097C96.6332 8.73548 96.4129 9.20409 96.2607 9.75682C96.1085 10.3095 96.0324 10.9304 96.0324 11.6193C96.0324 12.3322 96.1125 12.969 96.2727 13.5298C96.4329 14.0825 96.6612 14.5511 96.9576 14.9356C97.254 15.3121 97.6145 15.6005 98.039 15.8008C98.4636 15.993 98.9362 16.0891 99.4569 16.0891C99.9616 16.0891 100.378 16.0291 100.707 15.9089C101.035 15.7807 101.307 15.6446 101.524 15.5004C101.74 15.3562 101.92 15.224 102.064 15.1038C102.209 14.9757 102.357 14.9116 102.509 14.9116C102.701 14.9116 102.849 14.9837 102.953 15.1279L103.626 15.993C103.346 16.3375 103.03 16.6298 102.677 16.8702C102.333 17.1105 101.964 17.3067 101.572 17.4589C101.179 17.6111 100.767 17.7233 100.334 17.7954C99.9095 17.8675 99.4769 17.9035 99.0363 17.9035C98.2753 17.9035 97.5624 17.7633 96.8975 17.483C96.2407 17.2026 95.6679 16.7941 95.1793 16.2574C94.6986 15.7207 94.3182 15.0638 94.0378 14.2868C93.7574 13.5017 93.6172 12.6126 93.6172 11.6193C93.6172 10.7141 93.7414 9.87697 93.9897 9.10797C94.246 8.33896 94.6185 7.67809 95.1072 7.12536C95.6038 6.56462 96.2126 6.12805 96.9336 5.81564C97.6545 5.49522 98.4796 5.33501 99.4088 5.33501C100.282 5.33501 101.051 5.47519 101.716 5.75556C102.381 6.03593 102.974 6.43245 103.494 6.94512L102.869 7.81026Z" fill="white" fill-opacity="0.6"/>
<path d="M113.689 10.2735C113.689 9.80889 113.621 9.38032 113.485 8.98781C113.357 8.59529 113.164 8.25484 112.908 7.96647C112.652 7.67809 112.339 7.45379 111.971 7.29358C111.602 7.13337 111.178 7.05327 110.697 7.05327C109.712 7.05327 108.935 7.33764 108.366 7.90639C107.805 8.47513 107.449 9.26417 107.297 10.2735H113.689ZM115.624 15.993C115.335 16.3295 115.003 16.6218 114.626 16.8702C114.25 17.1105 113.849 17.3067 113.425 17.4589C113 17.6111 112.56 17.7233 112.103 17.7954C111.654 17.8675 111.21 17.9035 110.769 17.9035C109.928 17.9035 109.147 17.7633 108.426 17.483C107.713 17.1946 107.092 16.778 106.564 16.2333C106.043 15.6806 105.634 14.9997 105.338 14.1906C105.05 13.3736 104.905 12.4363 104.905 11.3789C104.905 10.5298 105.038 9.7408 105.302 9.01184C105.566 8.27487 105.943 7.63403 106.431 7.08931C106.928 6.5446 107.533 6.11603 108.246 5.80362C108.959 5.49121 109.76 5.33501 110.649 5.33501C111.394 5.33501 112.079 5.45917 112.704 5.7075C113.337 5.94781 113.881 6.30028 114.338 6.76489C114.794 7.2295 115.151 7.80225 115.407 8.48314C115.672 9.16404 115.804 9.94106 115.804 10.8142C115.804 11.1747 115.764 11.419 115.684 11.5472C115.604 11.6673 115.455 11.7274 115.239 11.7274H107.237C107.261 12.4564 107.365 13.0932 107.549 13.6379C107.733 14.1746 107.986 14.6232 108.306 14.9837C108.634 15.3442 109.023 15.6125 109.471 15.7887C109.92 15.965 110.421 16.0531 110.973 16.0531C111.494 16.0531 111.943 15.993 112.319 15.8729C112.704 15.7527 113.032 15.6245 113.305 15.4883C113.585 15.3442 113.817 15.212 114.001 15.0918C114.194 14.9717 114.362 14.9116 114.506 14.9116C114.698 14.9116 114.847 14.9837 114.951 15.1279L115.624 15.993Z" fill="white" fill-opacity="0.6"/>
<path d="M128.222 17.9276C127.236 17.9276 126.475 17.6512 125.939 17.0985C125.41 16.5457 125.146 15.7567 125.146 14.7314V7.42576H123.728C123.591 7.42576 123.475 7.3857 123.379 7.3056C123.291 7.21748 123.247 7.08931 123.247 6.92109V5.97185L125.23 5.69548L125.758 2.0547C125.79 1.91852 125.85 1.81438 125.939 1.74229C126.035 1.66218 126.155 1.62213 126.299 1.62213H127.489V5.71951H130.949V7.42576H127.489V14.5751C127.489 15.0558 127.605 15.4163 127.837 15.6566C128.077 15.8889 128.382 16.005 128.75 16.005C128.967 16.005 129.151 15.977 129.303 15.9209C129.463 15.8648 129.599 15.8048 129.712 15.7407C129.824 15.6686 129.92 15.6045 130 15.5484C130.08 15.4924 130.152 15.4643 130.216 15.4643C130.296 15.4643 130.356 15.4843 130.396 15.5244C130.444 15.5564 130.493 15.6125 130.541 15.6926L131.238 16.8221C130.853 17.1746 130.396 17.4469 129.868 17.6392C129.339 17.8314 128.79 17.9276 128.222 17.9276Z" fill="white" fill-opacity="0.6"/>
<path d="M135.45 7.0773C135.963 6.55661 136.528 6.13606 137.145 5.81564C137.769 5.49522 138.486 5.33501 139.295 5.33501C139.968 5.33501 140.557 5.44716 141.062 5.67145C141.574 5.89574 142.003 6.21216 142.347 6.6207C142.692 7.02122 142.952 7.50586 143.128 8.07461C143.305 8.64336 143.393 9.27218 143.393 9.96109V17.7353H141.038V9.96109C141.038 9.08794 140.837 8.41105 140.437 7.93042C140.036 7.44178 139.424 7.19746 138.599 7.19746C137.998 7.19746 137.433 7.34164 136.904 7.63002C136.384 7.91039 135.899 8.2949 135.45 8.78354V17.7353H133.107V0H135.45V7.0773Z" fill="white" fill-opacity="0.6"/>
<path d="M154.641 10.2735C154.641 9.80889 154.573 9.38032 154.437 8.98781C154.309 8.59529 154.117 8.25484 153.86 7.96647C153.604 7.67809 153.291 7.45379 152.923 7.29358C152.555 7.13337 152.13 7.05327 151.649 7.05327C150.664 7.05327 149.887 7.33764 149.318 7.90639C148.758 8.47513 148.401 9.26417 148.249 10.2735H154.641ZM156.576 15.993C156.287 16.3295 155.955 16.6218 155.579 16.8702C155.202 17.1105 154.801 17.3067 154.377 17.4589C153.952 17.6111 153.512 17.7233 153.055 17.7954C152.607 17.8675 152.162 17.9035 151.721 17.9035C150.88 17.9035 150.099 17.7633 149.378 17.483C148.665 17.1946 148.045 16.778 147.516 16.2333C146.995 15.6806 146.587 14.9997 146.29 14.1906C146.002 13.3736 145.858 12.4363 145.858 11.3789C145.858 10.5298 145.99 9.7408 146.254 9.01184C146.519 8.27487 146.895 7.63403 147.384 7.08931C147.88 6.5446 148.485 6.11603 149.198 5.80362C149.911 5.49121 150.712 5.33501 151.601 5.33501C152.346 5.33501 153.031 5.45917 153.656 5.7075C154.289 5.94781 154.834 6.30028 155.29 6.76489C155.747 7.2295 156.103 7.80225 156.36 8.48314C156.624 9.16404 156.756 9.94106 156.756 10.8142C156.756 11.1747 156.716 11.419 156.636 11.5472C156.556 11.6673 156.408 11.7274 156.191 11.7274H148.189C148.213 12.4564 148.317 13.0932 148.501 13.6379C148.685 14.1746 148.938 14.6232 149.258 14.9837C149.587 15.3442 149.975 15.6125 150.424 15.7887C150.872 15.965 151.373 16.0531 151.926 16.0531C152.446 16.0531 152.895 15.993 153.271 15.8729C153.656 15.7527 153.984 15.6245 154.257 15.4883C154.537 15.3442 154.769 15.212 154.954 15.0918C155.146 14.9717 155.314 14.9116 155.458 14.9116C155.651 14.9116 155.799 14.9837 155.903 15.1279L156.576 15.993Z" fill="white" fill-opacity="0.6"/>
<path d="M174.761 3.29233C174.681 3.4285 174.597 3.52864 174.509 3.59272C174.421 3.6568 174.309 3.68885 174.172 3.68885C174.028 3.68885 173.864 3.62476 173.68 3.49659C173.495 3.36041 173.263 3.21222 172.983 3.05201C172.71 2.88379 172.382 2.73559 171.998 2.60743C171.613 2.47125 171.152 2.40316 170.616 2.40316C170.111 2.40316 169.666 2.47125 169.282 2.60743C168.905 2.73559 168.589 2.91583 168.333 3.14814C168.076 3.37243 167.88 3.64078 167.744 3.95319C167.616 4.25759 167.552 4.59003 167.552 4.9505C167.552 5.41511 167.668 5.79962 167.9 6.10402C168.14 6.40842 168.453 6.66876 168.837 6.88504C169.222 7.10133 169.658 7.28958 170.147 7.44979C170.636 7.61 171.136 7.77822 171.649 7.95445C172.162 8.12267 172.662 8.31893 173.151 8.54322C173.64 8.76752 174.076 9.05189 174.461 9.39634C174.845 9.73279 175.154 10.1493 175.386 10.646C175.626 11.1346 175.746 11.7354 175.746 12.4484C175.746 13.2094 175.614 13.9223 175.35 14.5872C175.094 15.252 174.717 15.8328 174.22 16.3295C173.724 16.8261 173.111 17.2186 172.382 17.507C171.661 17.7874 170.84 17.9276 169.919 17.9276C169.366 17.9276 168.829 17.8715 168.309 17.7593C167.788 17.6552 167.295 17.507 166.831 17.3147C166.366 17.1145 165.93 16.8782 165.521 16.6058C165.12 16.3254 164.76 16.013 164.44 15.6686L165.173 14.443C165.245 14.3468 165.329 14.2667 165.425 14.2027C165.529 14.1386 165.645 14.1065 165.773 14.1065C165.942 14.1065 166.134 14.1946 166.35 14.3709C166.574 14.5471 166.847 14.7434 167.167 14.9597C167.496 15.1679 167.884 15.3602 168.333 15.5364C168.789 15.7126 169.342 15.8008 169.991 15.8008C170.52 15.8008 170.992 15.7327 171.409 15.5965C171.825 15.4523 172.174 15.252 172.454 14.9957C172.742 14.7314 172.963 14.4149 173.115 14.0465C173.267 13.678 173.343 13.2694 173.343 12.8208C173.343 12.3162 173.227 11.9036 172.995 11.5832C172.763 11.2628 172.454 10.9944 172.07 10.7782C171.685 10.5619 171.249 10.3776 170.76 10.2254C170.271 10.0732 169.771 9.91703 169.258 9.75682C168.745 9.5886 168.245 9.39634 167.756 9.18006C167.267 8.96378 166.831 8.68341 166.446 8.33895C166.062 7.98649 165.753 7.54992 165.521 7.02923C165.289 6.50054 165.173 5.85169 165.173 5.08268C165.173 4.46587 165.293 3.86908 165.533 3.29233C165.773 2.71557 166.122 2.2069 166.578 1.76632C167.043 1.31773 167.612 0.961262 168.285 0.696915C168.958 0.424558 169.727 0.288379 170.592 0.288379C171.561 0.288379 172.45 0.444584 173.259 0.756994C174.076 1.06139 174.785 1.50197 175.386 2.07873L174.761 3.29233Z" fill="white" fill-opacity="0.6"/>
<path d="M188.343 5.52726V17.7353H186.937C186.617 17.7353 186.409 17.5791 186.313 17.2667L186.144 16.0411C185.88 16.3214 185.604 16.5778 185.315 16.8101C185.027 17.0424 184.719 17.2427 184.39 17.4109C184.062 17.5711 183.713 17.6952 183.345 17.7834C182.976 17.8795 182.58 17.9276 182.155 17.9276C181.482 17.9276 180.889 17.8154 180.377 17.5911C179.872 17.3668 179.448 17.0544 179.103 16.6539C178.759 16.2453 178.498 15.7567 178.322 15.188C178.146 14.6192 178.058 13.9904 178.058 13.3015V5.52726H180.413V13.3015C180.413 14.1746 180.613 14.8555 181.014 15.3442C181.414 15.8248 182.027 16.0651 182.852 16.0651C183.453 16.0651 184.014 15.9249 184.534 15.6446C185.055 15.3562 185.544 14.9637 186 14.467V5.52726H188.343Z" fill="white" fill-opacity="0.6"/>
<path d="M193.957 14.7314C194.341 15.236 194.754 15.5885 195.195 15.7887C195.643 15.989 196.144 16.0891 196.697 16.0891C197.77 16.0891 198.599 15.7046 199.184 14.9356C199.777 14.1586 200.073 13.0291 200.073 11.5472C200.073 10.7701 200.005 10.1093 199.869 9.56457C199.741 9.01184 199.548 8.56325 199.292 8.2188C199.044 7.86633 198.735 7.61 198.367 7.44979C197.998 7.28157 197.582 7.19746 197.117 7.19746C196.436 7.19746 195.843 7.34965 195.339 7.65405C194.842 7.95845 194.381 8.39102 193.957 8.95176V14.7314ZM193.837 7.35366C194.093 7.04926 194.365 6.7729 194.654 6.52457C194.95 6.26823 195.267 6.05195 195.603 5.87572C195.94 5.69148 196.296 5.55129 196.672 5.45517C197.057 5.35103 197.466 5.29896 197.898 5.29896C198.595 5.29896 199.224 5.43514 199.785 5.7075C200.353 5.97986 200.838 6.38038 201.238 6.90908C201.639 7.43777 201.947 8.09063 202.164 8.86765C202.388 9.64467 202.5 10.5378 202.5 11.5472C202.5 12.4524 202.376 13.2935 202.128 14.0705C201.887 14.8395 201.539 15.5084 201.082 16.0771C200.634 16.6459 200.081 17.0945 199.424 17.4229C198.775 17.7433 198.042 17.9035 197.225 17.9035C196.496 17.9035 195.871 17.7834 195.351 17.543C194.83 17.3027 194.365 16.9663 193.957 16.5337V21.8327H191.614V5.52726H193.02C193.348 5.52726 193.552 5.68347 193.632 5.99588L193.837 7.35366Z" fill="white" fill-opacity="0.6"/>
<path d="M213.218 10.2735C213.218 9.80889 213.15 9.38032 213.014 8.98781C212.886 8.59529 212.694 8.25484 212.437 7.96647C212.181 7.67809 211.868 7.45379 211.5 7.29358C211.131 7.13337 210.707 7.05327 210.226 7.05327C209.241 7.05327 208.464 7.33764 207.895 7.90639C207.334 8.47513 206.978 9.26417 206.826 10.2735H213.218ZM215.153 15.993C214.864 16.3295 214.532 16.6218 214.155 16.8702C213.779 17.1105 213.378 17.3067 212.954 17.4589C212.529 17.6111 212.089 17.7233 211.632 17.7954C211.184 17.8675 210.739 17.9035 210.298 17.9035C209.457 17.9035 208.676 17.7633 207.955 17.483C207.242 17.1946 206.622 16.778 206.093 16.2333C205.572 15.6806 205.164 14.9997 204.867 14.1906C204.579 13.3736 204.435 12.4363 204.435 11.3789C204.435 10.5298 204.567 9.7408 204.831 9.01184C205.096 8.27487 205.472 7.63403 205.961 7.08931C206.457 6.5446 207.062 6.11603 207.775 5.80362C208.488 5.49121 209.289 5.33501 210.178 5.33501C210.923 5.33501 211.608 5.45917 212.233 5.7075C212.866 5.94781 213.41 6.30028 213.867 6.76489C214.324 7.2295 214.68 7.80225 214.936 8.48314C215.201 9.16404 215.333 9.94106 215.333 10.8142C215.333 11.1747 215.293 11.419 215.213 11.5472C215.133 11.6673 214.985 11.7274 214.768 11.7274H206.766C206.79 12.4564 206.894 13.0932 207.078 13.6379C207.262 14.1746 207.515 14.6232 207.835 14.9837C208.164 15.3442 208.552 15.6125 209.001 15.7887C209.449 15.965 209.95 16.0531 210.503 16.0531C211.023 16.0531 211.472 15.993 211.848 15.8729C212.233 15.7527 212.561 15.6245 212.834 15.4883C213.114 15.3442 213.346 15.212 213.531 15.0918C213.723 14.9717 213.891 14.9116 214.035 14.9116C214.228 14.9116 214.376 14.9837 214.48 15.1279L215.153 15.993Z" fill="white" fill-opacity="0.6"/>
<path d="M220.062 7.87034C220.455 7.06929 220.927 6.44046 221.48 5.98386C222.033 5.52726 222.698 5.29896 223.475 5.29896C223.739 5.29896 223.987 5.331 224.22 5.39509C224.46 5.45116 224.668 5.53928 224.845 5.65944L224.688 7.42576C224.632 7.64204 224.5 7.75018 224.292 7.75018C224.18 7.75018 224.012 7.73015 223.787 7.6901C223.563 7.64204 223.323 7.61801 223.066 7.61801C222.69 7.61801 222.357 7.67408 222.069 7.78623C221.781 7.89037 221.52 8.05058 221.288 8.26686C221.064 8.47513 220.863 8.73548 220.687 9.04789C220.511 9.35229 220.347 9.70074 220.194 10.0933V17.7353H217.851V5.52726H219.197C219.454 5.52726 219.626 5.57532 219.714 5.67145C219.81 5.75957 219.878 5.91978 219.918 6.15208L220.062 7.87034Z" fill="white" fill-opacity="0.6"/>
<path d="M229.103 5.52726V17.7353H226.76V5.52726H229.103ZM229.548 1.7543C229.548 1.97059 229.504 2.17886 229.416 2.37912C229.328 2.57138 229.207 2.7436 229.055 2.8958C228.911 3.03999 228.739 3.15615 228.539 3.24426C228.338 3.32437 228.13 3.36442 227.914 3.36442C227.697 3.36442 227.493 3.32437 227.301 3.24426C227.109 3.15615 226.936 3.03999 226.784 2.8958C226.64 2.7436 226.524 2.57138 226.436 2.37912C226.356 2.17886 226.316 1.97059 226.316 1.7543C226.316 1.53001 226.356 1.32174 226.436 1.12948C226.524 0.929221 226.64 0.756994 226.784 0.612805C226.936 0.460605 227.109 0.344452 227.301 0.264347C227.493 0.176232 227.697 0.132174 227.914 0.132174C228.13 0.132174 228.338 0.176232 228.539 0.264347C228.739 0.344452 228.911 0.460605 229.055 0.612805C229.207 0.756994 229.328 0.929221 229.416 1.12948C229.504 1.32174 229.548 1.53001 229.548 1.7543Z" fill="white" fill-opacity="0.6"/>
<path d="M237.698 5.33501C238.596 5.33501 239.405 5.4832 240.126 5.77959C240.855 6.06797 241.471 6.48852 241.976 7.04125C242.489 7.58597 242.881 8.24683 243.154 9.02385C243.426 9.79286 243.562 10.658 243.562 11.6193C243.562 12.5805 243.426 13.4497 243.154 14.2267C242.881 15.0037 242.489 15.6646 241.976 16.2093C241.471 16.754 240.855 17.1746 240.126 17.471C239.405 17.7593 238.596 17.9035 237.698 17.9035C236.793 17.9035 235.976 17.7593 235.247 17.471C234.526 17.1746 233.91 16.754 233.397 16.2093C232.884 15.6646 232.488 15.0037 232.207 14.2267C231.935 13.4497 231.799 12.5805 231.799 11.6193C231.799 10.658 231.935 9.79286 232.207 9.02385C232.488 8.24683 232.884 7.58597 233.397 7.04125C233.91 6.48852 234.526 6.06797 235.247 5.77959C235.976 5.4832 236.793 5.33501 237.698 5.33501ZM237.698 16.0771C238.852 16.0771 239.713 15.6886 240.282 14.9116C240.851 14.1346 241.135 13.0411 241.135 11.6313C241.135 10.2214 240.851 9.12799 240.282 8.35097C239.713 7.56594 238.852 7.17342 237.698 7.17342C236.529 7.17342 235.656 7.56594 235.079 8.35097C234.51 9.12799 234.226 10.2214 234.226 11.6313C234.226 13.0411 234.51 14.1346 235.079 14.9116C235.656 15.6886 236.529 16.0771 237.698 16.0771Z" fill="white" fill-opacity="0.6"/>
<path d="M248.389 7.87034C248.781 7.06929 249.254 6.44046 249.806 5.98386C250.359 5.52726 251.024 5.29896 251.801 5.29896C252.065 5.29896 252.314 5.331 252.546 5.39509C252.786 5.45116 252.995 5.53928 253.171 5.65944L253.015 7.42576C252.959 7.64204 252.826 7.75018 252.618 7.75018C252.506 7.75018 252.338 7.73015 252.114 7.6901C251.889 7.64204 251.649 7.61801 251.393 7.61801C251.016 7.61801 250.684 7.67408 250.395 7.78623C250.107 7.89037 249.847 8.05058 249.614 8.26686C249.39 8.47513 249.19 8.73548 249.013 9.04789C248.837 9.35229 248.673 9.70074 248.521 10.0933V17.7353H246.178V5.52726H247.523C247.78 5.52726 247.952 5.57532 248.04 5.67145C248.136 5.75957 248.204 5.91978 248.244 6.15208L248.389 7.87034Z" fill="white" fill-opacity="0.6"/>
<path d="M272.057 2.61944H266.578V17.7353H264.03V2.61944H258.527V0.480631H272.057V2.61944Z" fill="white" fill-opacity="0.6"/>
<path d="M277.896 12.3162C276.943 12.3482 276.134 12.4243 275.469 12.5445C274.804 12.6566 274.264 12.8088 273.847 13.0011C273.431 13.1933 273.13 13.4216 272.946 13.686C272.762 13.9423 272.669 14.2307 272.669 14.5511C272.669 14.8555 272.718 15.1199 272.814 15.3442C272.918 15.5604 273.054 15.7407 273.222 15.8849C273.398 16.021 273.603 16.1212 273.835 16.1853C274.067 16.2493 274.32 16.2814 274.592 16.2814C274.952 16.2814 275.281 16.2453 275.577 16.1732C275.882 16.1012 276.166 16.001 276.43 15.8729C276.695 15.7367 276.947 15.5725 277.187 15.3802C277.428 15.188 277.664 14.9677 277.896 14.7193V12.3162ZM271.023 7.2335C271.704 6.58465 272.441 6.10001 273.234 5.77959C274.035 5.45917 274.912 5.29896 275.866 5.29896C276.563 5.29896 277.179 5.41511 277.716 5.64742C278.253 5.87171 278.705 6.18813 279.074 6.59667C279.442 7.0052 279.719 7.49384 279.903 8.06259C280.095 8.63134 280.191 9.26017 280.191 9.94907V17.7353H279.146C278.914 17.7353 278.737 17.6993 278.617 17.6272C278.497 17.5471 278.401 17.4029 278.329 17.1946L278.077 16.1252C277.764 16.4136 277.456 16.6699 277.151 16.8942C276.847 17.1105 276.527 17.2987 276.19 17.4589C275.862 17.6111 275.509 17.7273 275.133 17.8074C274.756 17.8875 274.34 17.9276 273.883 17.9276C273.402 17.9276 272.95 17.8635 272.525 17.7353C272.109 17.5991 271.744 17.3949 271.432 17.1225C271.119 16.8501 270.871 16.5097 270.687 16.1012C270.511 15.6926 270.423 15.216 270.423 14.6713C270.423 14.1906 270.551 13.73 270.807 13.2895C271.071 12.8409 271.496 12.4403 272.081 12.0879C272.674 11.7354 273.443 11.447 274.388 11.2227C275.341 10.9984 276.511 10.8703 277.896 10.8382V9.94907C277.896 9.02786 277.7 8.33896 277.308 7.88235C276.915 7.42576 276.338 7.19746 275.577 7.19746C275.065 7.19746 274.632 7.26154 274.28 7.38971C273.935 7.51788 273.635 7.66207 273.378 7.82228C273.13 7.97448 272.91 8.11466 272.718 8.24283C272.533 8.371 272.341 8.43508 272.141 8.43508C271.981 8.43508 271.84 8.39102 271.72 8.30291C271.608 8.21479 271.516 8.11065 271.444 7.9905L271.023 7.2335Z" fill="white" fill-opacity="0.6"/>
<path d="M290.526 7.63002C290.461 7.73416 290.393 7.81026 290.321 7.85832C290.249 7.89838 290.157 7.9184 290.045 7.9184C289.917 7.9184 289.773 7.87434 289.612 7.78623C289.46 7.69811 289.272 7.60199 289.048 7.49785C288.831 7.39371 288.575 7.29759 288.279 7.20947C287.982 7.12136 287.63 7.0773 287.221 7.0773C286.885 7.0773 286.576 7.12136 286.296 7.20947C286.024 7.28958 285.791 7.40573 285.599 7.55793C285.407 7.70212 285.259 7.87835 285.154 8.08662C285.05 8.28689 284.998 8.50317 284.998 8.73548C284.998 9.03988 285.086 9.29221 285.263 9.49247C285.447 9.69273 285.683 9.86496 285.972 10.0091C286.268 10.1533 286.6 10.2855 286.969 10.4057C287.345 10.5178 287.726 10.638 288.11 10.7661C288.503 10.8943 288.883 11.0425 289.252 11.2107C289.628 11.3709 289.961 11.5752 290.249 11.8235C290.546 12.0638 290.782 12.3562 290.958 12.7007C291.142 13.0451 291.234 13.4657 291.234 13.9623C291.234 14.5311 291.13 15.0598 290.922 15.5484C290.722 16.0291 290.421 16.4456 290.021 16.7981C289.628 17.1505 289.14 17.4269 288.555 17.6272C287.97 17.8274 287.301 17.9276 286.548 17.9276C285.707 17.9276 284.93 17.7874 284.217 17.507C283.504 17.2266 282.908 16.8702 282.427 16.4376L282.98 15.5364C283.044 15.4243 283.124 15.3402 283.22 15.2841C283.316 15.22 283.444 15.188 283.604 15.188C283.757 15.188 283.913 15.244 284.073 15.3562C284.233 15.4683 284.426 15.5925 284.65 15.7287C284.874 15.8568 285.146 15.977 285.467 16.0891C285.787 16.1933 286.188 16.2453 286.668 16.2453C287.069 16.2453 287.417 16.1973 287.714 16.1012C288.01 15.997 288.255 15.8608 288.447 15.6926C288.647 15.5164 288.795 15.3161 288.891 15.0918C288.988 14.8675 289.036 14.6312 289.036 14.3829C289.036 14.0625 288.943 13.7981 288.759 13.5899C288.583 13.3736 288.347 13.1893 288.05 13.0371C287.762 12.8849 287.429 12.7528 287.053 12.6406C286.676 12.5285 286.292 12.4083 285.899 12.2801C285.507 12.152 285.122 12.0038 284.746 11.8355C284.369 11.6673 284.033 11.455 283.737 11.1987C283.448 10.9424 283.212 10.63 283.028 10.2615C282.851 9.893 282.763 9.44441 282.763 8.91571C282.763 8.44309 282.859 7.9905 283.052 7.55793C283.252 7.12536 283.536 6.74486 283.905 6.41643C284.281 6.088 284.742 5.82766 285.287 5.6354C285.839 5.43514 286.468 5.33501 287.173 5.33501C287.982 5.33501 288.711 5.46318 289.36 5.71951C290.017 5.97585 290.578 6.32831 291.042 6.7769L290.526 7.63002Z" fill="white" fill-opacity="0.6"/>
<path d="M297.592 17.9276C296.607 17.9276 295.846 17.6512 295.309 17.0985C294.781 16.5457 294.516 15.7567 294.516 14.7314V7.42576H293.099C292.962 7.42576 292.846 7.3857 292.75 7.3056C292.662 7.21748 292.618 7.08931 292.618 6.92109V5.97185L294.601 5.69548L295.129 2.0547C295.161 1.91852 295.221 1.81438 295.309 1.74229C295.406 1.66218 295.526 1.62213 295.67 1.62213H296.86V5.71951H300.32V7.42576H296.86V14.5751C296.86 15.0558 296.976 15.4163 297.208 15.6566C297.448 15.8889 297.753 16.005 298.121 16.005C298.337 16.005 298.522 15.977 298.674 15.9209C298.834 15.8648 298.97 15.8048 299.082 15.7407C299.195 15.6686 299.291 15.6045 299.371 15.5484C299.451 15.4924 299.523 15.4643 299.587 15.4643C299.667 15.4643 299.727 15.4843 299.767 15.5244C299.815 15.5564 299.863 15.6125 299.912 15.6926L300.608 16.8221C300.224 17.1746 299.767 17.4469 299.239 17.6392C298.71 17.8314 298.161 17.9276 297.592 17.9276Z" fill="white" fill-opacity="0.6"/>
<path d="M310.494 10.2735C310.494 9.80889 310.426 9.38032 310.29 8.98781C310.162 8.59529 309.97 8.25484 309.713 7.96647C309.457 7.67809 309.145 7.45379 308.776 7.29358C308.408 7.13337 307.983 7.05327 307.503 7.05327C306.517 7.05327 305.74 7.33764 305.171 7.90639C304.611 8.47513 304.254 9.26417 304.102 10.2735H310.494ZM312.429 15.993C312.141 16.3295 311.808 16.6218 311.432 16.8702C311.055 17.1105 310.655 17.3067 310.23 17.4589C309.806 17.6111 309.365 17.7233 308.908 17.7954C308.46 17.8675 308.015 17.9035 307.575 17.9035C306.733 17.9035 305.952 17.7633 305.232 17.483C304.519 17.1946 303.898 16.778 303.369 16.2333C302.848 15.6806 302.44 14.9997 302.143 14.1906C301.855 13.3736 301.711 12.4363 301.711 11.3789C301.711 10.5298 301.843 9.7408 302.107 9.01184C302.372 8.27487 302.748 7.63403 303.237 7.08931C303.734 6.5446 304.338 6.11603 305.051 5.80362C305.764 5.49121 306.565 5.33501 307.454 5.33501C308.199 5.33501 308.884 5.45917 309.509 5.7075C310.142 5.94781 310.687 6.30028 311.143 6.76489C311.6 7.2295 311.956 7.80225 312.213 8.48314C312.477 9.16404 312.609 9.94106 312.609 10.8142C312.609 11.1747 312.569 11.419 312.489 11.5472C312.409 11.6673 312.261 11.7274 312.044 11.7274H304.042C304.066 12.4564 304.17 13.0932 304.354 13.6379C304.539 14.1746 304.791 14.6232 305.111 14.9837C305.44 15.3442 305.828 15.6125 306.277 15.7887C306.725 15.965 307.226 16.0531 307.779 16.0531C308.3 16.0531 308.748 15.993 309.125 15.8729C309.509 15.7527 309.838 15.6245 310.11 15.4883C310.39 15.3442 310.623 15.212 310.807 15.0918C310.999 14.9717 311.167 14.9116 311.312 14.9116C311.504 14.9116 311.652 14.9837 311.756 15.1279L312.429 15.993Z" fill="white" fill-opacity="0.6"/>
<path d="M327.767 12.3162C326.813 12.3482 326.004 12.4243 325.339 12.5445C324.674 12.6566 324.134 12.8088 323.717 13.0011C323.301 13.1933 323 13.4216 322.816 13.686C322.632 13.9423 322.54 14.2307 322.54 14.5511C322.54 14.8555 322.588 15.1199 322.684 15.3442C322.788 15.5604 322.924 15.7407 323.092 15.8849C323.269 16.021 323.473 16.1212 323.705 16.1853C323.938 16.2493 324.19 16.2814 324.462 16.2814C324.823 16.2814 325.151 16.2453 325.448 16.1732C325.752 16.1012 326.036 16.001 326.301 15.8729C326.565 15.7367 326.817 15.5725 327.058 15.3802C327.298 15.188 327.534 14.9677 327.767 14.7193V12.3162ZM320.894 7.2335C321.574 6.58465 322.311 6.10001 323.104 5.77959C323.905 5.45917 324.783 5.29896 325.736 5.29896C326.433 5.29896 327.05 5.41511 327.586 5.64742C328.123 5.87171 328.576 6.18813 328.944 6.59667C329.313 7.0052 329.589 7.49384 329.773 8.06259C329.965 8.63134 330.062 9.26017 330.062 9.94907V17.7353H329.016C328.784 17.7353 328.608 17.6993 328.488 17.6272C328.367 17.5471 328.271 17.4029 328.199 17.1946L327.947 16.1252C327.634 16.4136 327.326 16.6699 327.022 16.8942C326.717 17.1105 326.397 17.2987 326.06 17.4589C325.732 17.6111 325.379 17.7273 325.003 17.8074C324.626 17.8875 324.21 17.9276 323.753 17.9276C323.273 17.9276 322.82 17.8635 322.396 17.7353C321.979 17.5991 321.614 17.3949 321.302 17.1225C320.99 16.8501 320.741 16.5097 320.557 16.1012C320.381 15.6926 320.293 15.216 320.293 14.6713C320.293 14.1906 320.421 13.73 320.677 13.2895C320.942 12.8409 321.366 12.4403 321.951 12.0879C322.544 11.7354 323.313 11.447 324.258 11.2227C325.211 10.9984 326.381 10.8703 327.767 10.8382V9.94907C327.767 9.02786 327.57 8.33896 327.178 7.88235C326.785 7.42576 326.209 7.19746 325.448 7.19746C324.935 7.19746 324.502 7.26154 324.15 7.38971C323.805 7.51788 323.505 7.66207 323.249 7.82228C323 7.97448 322.78 8.11466 322.588 8.24283C322.404 8.371 322.211 8.43508 322.011 8.43508C321.851 8.43508 321.711 8.39102 321.59 8.30291C321.478 8.21479 321.386 8.11065 321.314 7.9905L320.894 7.2335Z" fill="white" fill-opacity="0.6"/>
<path d="M335.397 7.22149C335.662 6.94112 335.938 6.68478 336.226 6.45248C336.515 6.22017 336.819 6.02391 337.139 5.8637C337.468 5.69548 337.816 5.56731 338.185 5.4792C338.561 5.38307 338.962 5.33501 339.386 5.33501C340.059 5.33501 340.648 5.44716 341.153 5.67145C341.665 5.89574 342.094 6.21216 342.438 6.6207C342.783 7.02122 343.043 7.50586 343.219 8.07461C343.396 8.64336 343.484 9.27218 343.484 9.96109V17.7353H341.129V9.96109C341.129 9.08794 340.928 8.41105 340.528 7.93042C340.127 7.44178 339.515 7.19746 338.689 7.19746C338.089 7.19746 337.524 7.34164 336.995 7.63002C336.475 7.91039 335.99 8.2949 335.541 8.78354V17.7353H333.198V5.52726H334.604C334.933 5.52726 335.137 5.68347 335.217 5.99588L335.397 7.22149Z" fill="white" fill-opacity="0.6"/>
<path d="M354.516 8.48314C354.131 7.97848 353.715 7.62602 353.266 7.42576C352.826 7.22549 352.329 7.12536 351.776 7.12536C350.703 7.12536 349.87 7.51387 349.277 8.29089C348.692 9.0599 348.4 10.1854 348.4 11.6673C348.4 12.4443 348.464 13.1092 348.592 13.6619C348.728 14.2067 348.921 14.6553 349.169 15.0077C349.425 15.3522 349.738 15.6085 350.106 15.7767C350.475 15.9369 350.891 16.017 351.356 16.017C352.037 16.017 352.625 15.8648 353.122 15.5604C353.619 15.256 354.083 14.8275 354.516 14.2748V8.48314ZM356.871 0V17.7353H355.453C355.125 17.7353 354.92 17.5791 354.84 17.2667L354.636 15.8608C354.115 16.4776 353.523 16.9743 352.858 17.3508C352.201 17.7193 351.44 17.9035 350.575 17.9035C349.878 17.9035 349.245 17.7673 348.676 17.495C348.116 17.2226 347.635 16.8261 347.234 16.3054C346.834 15.7767 346.525 15.1239 346.309 14.3468C346.093 13.5698 345.985 12.6767 345.985 11.6673C345.985 10.7621 346.105 9.92103 346.345 9.14401C346.586 8.36699 346.934 7.69411 347.391 7.12536C347.847 6.55661 348.4 6.11203 349.049 5.79161C349.698 5.46318 350.431 5.29896 351.248 5.29896C351.985 5.29896 352.609 5.41912 353.122 5.65944C353.643 5.89975 354.107 6.2402 354.516 6.68078V0H356.871Z" fill="white" fill-opacity="0.6"/>
<path d="M368.261 9.10797C368.261 10.1413 368.401 11.0665 368.681 11.8836C368.962 12.6927 369.362 13.3816 369.883 13.9503C370.404 14.5191 371.029 14.9556 371.757 15.26C372.494 15.5564 373.316 15.7046 374.221 15.7046C375.126 15.7046 375.943 15.5564 376.672 15.26C377.409 14.9556 378.034 14.5191 378.546 13.9503C379.067 13.3816 379.468 12.6927 379.748 11.8836C380.028 11.0665 380.169 10.1413 380.169 9.10797C380.169 8.08262 380.028 7.16141 379.748 6.34433C379.468 5.52726 379.067 4.83435 378.546 4.2656C378.034 3.69686 377.409 3.26028 376.672 2.95588C375.943 2.65148 375.126 2.49928 374.221 2.49928C373.316 2.49928 372.494 2.65148 371.757 2.95588C371.029 3.26028 370.404 3.69686 369.883 4.2656C369.362 4.83435 368.962 5.52726 368.681 6.34433C368.401 7.16141 368.261 8.08262 368.261 9.10797ZM383.617 21.2439H381.502C381.19 21.2439 380.913 21.1998 380.673 21.1117C380.433 21.0316 380.209 20.8794 380 20.6551L377.092 17.483C376.211 17.7713 375.254 17.9155 374.221 17.9155C372.947 17.9155 371.782 17.6993 370.724 17.2667C369.675 16.8341 368.774 16.2293 368.021 15.4523C367.276 14.6673 366.695 13.738 366.278 12.6646C365.862 11.5832 365.653 10.3977 365.653 9.10797C365.653 7.82628 365.862 6.64473 366.278 5.56331C366.695 4.48189 367.276 3.55267 368.021 2.77565C368.774 1.99062 369.675 1.38182 370.724 0.949247C371.782 0.508669 372.947 0.288379 374.221 0.288379C375.502 0.288379 376.668 0.508669 377.717 0.949247C378.767 1.38182 379.668 1.99062 380.421 2.77565C381.174 3.55267 381.755 4.48189 382.163 5.56331C382.58 6.64473 382.788 7.82628 382.788 9.10797C382.788 9.90902 382.704 10.674 382.536 11.403C382.375 12.1239 382.143 12.7968 381.839 13.4216C381.534 14.0465 381.158 14.6152 380.709 15.1279C380.269 15.6405 379.768 16.0891 379.207 16.4736L383.617 21.2439Z" fill="white" fill-opacity="0.6"/>
<path d="M395.475 5.52726V17.7353H394.069C393.748 17.7353 393.54 17.5791 393.444 17.2667L393.276 16.0411C393.012 16.3214 392.735 16.5778 392.447 16.8101C392.158 17.0424 391.85 17.2427 391.522 17.4109C391.193 17.5711 390.845 17.6952 390.476 17.7834C390.108 17.8795 389.711 17.9276 389.287 17.9276C388.614 17.9276 388.021 17.8154 387.508 17.5911C387.004 17.3668 386.579 17.0544 386.235 16.6539C385.89 16.2453 385.63 15.7567 385.454 15.188C385.277 14.6192 385.189 13.9904 385.189 13.3015V5.52726H387.544V13.3015C387.544 14.1746 387.745 14.8555 388.145 15.3442C388.546 15.8248 389.158 16.0651 389.984 16.0651C390.584 16.0651 391.145 15.9249 391.666 15.6446C392.186 15.3562 392.675 14.9637 393.132 14.467V5.52726H395.475Z" fill="white" fill-opacity="0.6"/>
<path d="M405.306 12.3162C404.353 12.3482 403.544 12.4243 402.879 12.5445C402.214 12.6566 401.673 12.8088 401.257 13.0011C400.84 13.1933 400.54 13.4216 400.355 13.686C400.171 13.9423 400.079 14.2307 400.079 14.5511C400.079 14.8555 400.127 15.1199 400.223 15.3442C400.327 15.5604 400.464 15.7407 400.632 15.8849C400.808 16.021 401.012 16.1212 401.245 16.1853C401.477 16.2493 401.729 16.2814 402.002 16.2814C402.362 16.2814 402.69 16.2453 402.987 16.1732C403.291 16.1012 403.576 16.001 403.84 15.8729C404.104 15.7367 404.357 15.5725 404.597 15.3802C404.837 15.188 405.074 14.9677 405.306 14.7193V12.3162ZM398.433 7.2335C399.114 6.58465 399.851 6.10001 400.644 5.77959C401.445 5.45917 402.322 5.29896 403.275 5.29896C403.972 5.29896 404.589 5.41511 405.126 5.64742C405.662 5.87171 406.115 6.18813 406.483 6.59667C406.852 7.0052 407.128 7.49384 407.313 8.06259C407.505 8.63134 407.601 9.26017 407.601 9.94907V17.7353H406.556C406.323 17.7353 406.147 17.6993 406.027 17.6272C405.907 17.5471 405.811 17.4029 405.738 17.1946L405.486 16.1252C405.174 16.4136 404.865 16.6699 404.561 16.8942C404.257 17.1105 403.936 17.2987 403.6 17.4589C403.271 17.6111 402.919 17.7273 402.542 17.8074C402.166 17.8875 401.749 17.9276 401.293 17.9276C400.812 17.9276 400.359 17.8635 399.935 17.7353C399.518 17.5991 399.154 17.3949 398.841 17.1225C398.529 16.8501 398.281 16.5097 398.096 16.1012C397.92 15.6926 397.832 15.216 397.832 14.6713C397.832 14.1906 397.96 13.73 398.217 13.2895C398.481 12.8409 398.906 12.4403 399.49 12.0879C400.083 11.7354 400.852 11.447 401.797 11.2227C402.751 10.9984 403.92 10.8703 405.306 10.8382V9.94907C405.306 9.02786 405.11 8.33896 404.717 7.88235C404.325 7.42576 403.748 7.19746 402.987 7.19746C402.474 7.19746 402.042 7.26154 401.689 7.38971C401.345 7.51788 401.044 7.66207 400.788 7.82228C400.54 7.97448 400.319 8.11466 400.127 8.24283C399.943 8.371 399.751 8.43508 399.55 8.43508C399.39 8.43508 399.25 8.39102 399.13 8.30291C399.018 8.21479 398.926 8.11065 398.853 7.9905L398.433 7.2335Z" fill="white" fill-opacity="0.6"/>
<path d="M413.141 0V17.7353H410.786V0H413.141Z" fill="white" fill-opacity="0.6"/>
<path d="M418.939 5.52726V17.7353H416.595V5.52726H418.939ZM419.383 1.7543C419.383 1.97059 419.339 2.17886 419.251 2.37912C419.163 2.57138 419.043 2.7436 418.891 2.8958C418.746 3.03999 418.574 3.15615 418.374 3.24426C418.174 3.32437 417.965 3.36442 417.749 3.36442C417.533 3.36442 417.328 3.32437 417.136 3.24426C416.944 3.15615 416.772 3.03999 416.62 2.8958C416.475 2.7436 416.359 2.57138 416.271 2.37912C416.191 2.17886 416.151 1.97059 416.151 1.7543C416.151 1.53001 416.191 1.32174 416.271 1.12948C416.359 0.929221 416.475 0.756994 416.62 0.612805C416.772 0.460605 416.944 0.344452 417.136 0.264347C417.328 0.176232 417.533 0.132174 417.749 0.132174C417.965 0.132174 418.174 0.176232 418.374 0.264347C418.574 0.344452 418.746 0.460605 418.891 0.612805C419.043 0.756994 419.163 0.929221 419.251 1.12948C419.339 1.32174 419.383 1.53001 419.383 1.7543Z" fill="white" fill-opacity="0.6"/>
<path d="M426.152 17.9276C425.167 17.9276 424.406 17.6512 423.869 17.0985C423.34 16.5457 423.076 15.7567 423.076 14.7314V7.42576H421.658C421.522 7.42576 421.406 7.3857 421.31 7.3056C421.222 7.21748 421.177 7.08931 421.177 6.92109V5.97185L423.16 5.69548L423.689 2.0547C423.721 1.91852 423.781 1.81438 423.869 1.74229C423.965 1.66218 424.085 1.62213 424.229 1.62213H425.419V5.71951H428.88V7.42576H425.419V14.5751C425.419 15.0558 425.535 15.4163 425.767 15.6566C426.008 15.8889 426.312 16.005 426.681 16.005C426.897 16.005 427.081 15.977 427.233 15.9209C427.394 15.8648 427.53 15.8048 427.642 15.7407C427.754 15.6686 427.85 15.6045 427.93 15.5484C428.01 15.4924 428.083 15.4643 428.147 15.4643C428.227 15.4643 428.287 15.4843 428.327 15.5244C428.375 15.5564 428.423 15.6125 428.471 15.6926L429.168 16.8221C428.783 17.1746 428.327 17.4469 427.798 17.6392C427.269 17.8314 426.721 17.9276 426.152 17.9276Z" fill="white" fill-opacity="0.6"/>
<path d="M441.708 5.52726L434.931 21.28C434.859 21.4562 434.763 21.5924 434.642 21.6885C434.522 21.7846 434.346 21.8327 434.114 21.8327H432.371L434.606 16.9663L429.596 5.52726H431.639C431.839 5.52726 431.995 5.57532 432.107 5.67145C432.219 5.76758 432.299 5.87572 432.347 5.99588L435.448 13.3255C435.512 13.5097 435.572 13.698 435.628 13.8902C435.692 14.0745 435.744 14.2587 435.784 14.443C435.84 14.2507 435.9 14.0625 435.964 13.8782C436.028 13.686 436.096 13.4977 436.168 13.3135L439.16 5.99588C439.216 5.8597 439.305 5.74755 439.425 5.65944C439.545 5.57132 439.681 5.52726 439.833 5.52726H441.708Z" fill="white" fill-opacity="0.6"/>
<path d="M454.194 5.33501C455.091 5.33501 455.9 5.4832 456.621 5.77959C457.35 6.06797 457.967 6.48852 458.471 7.04125C458.984 7.58597 459.377 8.24683 459.649 9.02385C459.921 9.79286 460.058 10.658 460.058 11.6193C460.058 12.5805 459.921 13.4497 459.649 14.2267C459.377 15.0037 458.984 15.6646 458.471 16.2093C457.967 16.754 457.35 17.1746 456.621 17.471C455.9 17.7593 455.091 17.9035 454.194 17.9035C453.289 17.9035 452.472 17.7593 451.743 17.471C451.022 17.1746 450.405 16.754 449.892 16.2093C449.379 15.6646 448.983 15.0037 448.703 14.2267C448.43 13.4497 448.294 12.5805 448.294 11.6193C448.294 10.658 448.43 9.79286 448.703 9.02385C448.983 8.24683 449.379 7.58597 449.892 7.04125C450.405 6.48852 451.022 6.06797 451.743 5.77959C452.472 5.4832 453.289 5.33501 454.194 5.33501ZM454.194 16.0771C455.347 16.0771 456.208 15.6886 456.777 14.9116C457.346 14.1346 457.63 13.0411 457.63 11.6313C457.63 10.2214 457.346 9.12799 456.777 8.35097C456.208 7.56594 455.347 7.17342 454.194 7.17342C453.024 7.17342 452.151 7.56594 451.574 8.35097C451.006 9.12799 450.721 10.2214 450.721 11.6313C450.721 13.0411 451.006 14.1346 451.574 14.9116C452.151 15.6886 453.024 16.0771 454.194 16.0771Z" fill="white" fill-opacity="0.6"/>
<path d="M463.196 17.7353V7.44979L461.923 7.29358C461.739 7.25353 461.586 7.18944 461.466 7.10133C461.354 7.0052 461.298 6.86902 461.298 6.69279V5.71951H463.196V4.61406C463.196 3.91715 463.297 3.29633 463.497 2.75161C463.697 2.2069 463.981 1.74629 464.35 1.3698C464.726 0.985294 465.175 0.696916 465.696 0.504664C466.224 0.3044 466.817 0.204268 467.474 0.204268C468.027 0.204268 468.535 0.284373 469 0.444585L468.952 1.62213C468.944 1.72627 468.912 1.80637 468.856 1.86245C468.8 1.91051 468.724 1.94656 468.628 1.97059C468.539 1.99462 468.427 2.01064 468.291 2.01865C468.163 2.01865 468.023 2.01865 467.871 2.01865C467.51 2.01865 467.182 2.06271 466.885 2.15083C466.589 2.23894 466.337 2.38714 466.128 2.59541C465.92 2.80368 465.76 3.08005 465.648 3.4245C465.536 3.76094 465.479 4.18149 465.479 4.68616V5.71951H468.904V7.42576H465.552V17.7353H463.196Z" fill="white" fill-opacity="0.6"/>
<path d="M13.5298 32.6589H8.05058V47.7748H5.50323V32.6589H0V30.5201H13.5298V32.6589Z" fill="white" fill-opacity="0.6"/>
<path d="M15.1604 37.9098C15.5529 37.1087 16.0255 36.4799 16.5782 36.0233C17.1309 35.5667 17.7958 35.3384 18.5728 35.3384C18.8372 35.3384 19.0855 35.3705 19.3178 35.4345C19.5581 35.4906 19.7664 35.5787 19.9426 35.6989L19.7864 37.4652C19.7304 37.6815 19.5982 37.7896 19.3899 37.7896C19.2778 37.7896 19.1095 37.7696 18.8852 37.7296C18.6609 37.6815 18.4206 37.6575 18.1643 37.6575C17.7878 37.6575 17.4554 37.7135 17.167 37.8257C16.8786 37.9298 16.6183 38.09 16.386 38.3063C16.1617 38.5146 15.9614 38.7749 15.7852 39.0873C15.6089 39.3917 15.4447 39.7402 15.2925 40.1327V47.7748H12.9494V35.5667H14.2952C14.5516 35.5667 14.7238 35.6148 14.8119 35.7109C14.908 35.799 14.9761 35.9592 15.0162 36.1915L15.1604 37.9098Z" fill="white" fill-opacity="0.6"/>
<path d="M31.9034 35.5667V47.7748H30.4976C30.1771 47.7748 29.9689 47.6186 29.8727 47.3061L29.7045 46.0805C29.4402 46.3609 29.1638 46.6172 28.8754 46.8495C28.5871 47.0818 28.2786 47.2821 27.9502 47.4503C27.6218 47.6105 27.2733 47.7347 26.9048 47.8228C26.5364 47.919 26.1398 47.967 25.7153 47.967C25.0424 47.967 24.4496 47.8549 23.9369 47.6306C23.4323 47.4063 23.0077 47.0939 22.6633 46.6933C22.3188 46.2848 22.0585 45.7962 21.8822 45.2274C21.706 44.6587 21.6179 44.0298 21.6179 43.3409V35.5667H23.973V43.3409C23.973 44.2141 24.1733 44.895 24.5738 45.3836C24.9743 45.8642 25.5871 46.1046 26.4122 46.1046C27.013 46.1046 27.5737 45.9644 28.0944 45.684C28.6151 45.3956 29.1037 45.0031 29.5603 44.5065V35.5667H31.9034Z" fill="white" fill-opacity="0.6"/>
<path d="M37.5771 30.0395V47.7748H35.222V30.0395H37.5771Z" fill="white" fill-opacity="0.6"/>
<path d="M51.5937 35.5667L44.8168 51.3194C44.7447 51.4956 44.6486 51.6318 44.5284 51.728C44.4083 51.8241 44.232 51.8721 43.9997 51.8721H42.2574L44.4924 47.0057L39.4818 35.5667H41.5245C41.7247 35.5667 41.881 35.6148 41.9931 35.7109C42.1052 35.807 42.1854 35.9152 42.2334 36.0353L45.3335 43.365C45.3976 43.5492 45.4577 43.7375 45.5137 43.9297C45.5778 44.1139 45.6299 44.2982 45.6699 44.4824C45.726 44.2902 45.7861 44.1019 45.8502 43.9177C45.9143 43.7254 45.9823 43.5372 46.0544 43.353L49.0464 36.0353C49.1024 35.8992 49.1906 35.787 49.3107 35.6989C49.4309 35.6108 49.5671 35.5667 49.7193 35.5667H51.5937Z" fill="white" fill-opacity="0.6"/>
<path d="M61.929 32.5988V38.3784H68.8501V40.4571H61.929V47.7748H59.3576V30.5201H70.0516V32.5988H61.929Z" fill="white" fill-opacity="0.6"/>
<path d="M77.336 42.3556C76.3828 42.3877 75.5737 42.4638 74.9088 42.5839C74.244 42.6961 73.7033 42.8483 73.2867 43.0405C72.8702 43.2328 72.5698 43.4611 72.3855 43.7254C72.2013 43.9818 72.1092 44.2702 72.1092 44.5906C72.1092 44.895 72.1572 45.1593 72.2534 45.3836C72.3575 45.5999 72.4937 45.7801 72.6619 45.9243C72.8381 46.0605 73.0424 46.1606 73.2747 46.2247C73.507 46.2888 73.7593 46.3209 74.0317 46.3209C74.3922 46.3209 74.7206 46.2848 75.017 46.2127C75.3214 46.1406 75.6058 46.0405 75.8701 45.9123C76.1345 45.7761 76.3868 45.6119 76.6271 45.4197C76.8674 45.2274 77.1037 45.0071 77.336 44.7588V42.3556ZM70.463 37.273C71.1439 36.6241 71.8809 36.1395 72.6739 35.8191C73.475 35.4986 74.3521 35.3384 75.3054 35.3384C76.0023 35.3384 76.6191 35.4546 77.1558 35.6869C77.6925 35.9112 78.1451 36.2276 78.5136 36.6361C78.8821 37.0447 79.1584 37.5333 79.3427 38.1021C79.5349 38.6708 79.631 39.2996 79.631 39.9885V47.7748H78.5857C78.3534 47.7748 78.1771 47.7387 78.057 47.6666C77.9368 47.5865 77.8407 47.4423 77.7686 47.234L77.5163 46.1646C77.2039 46.453 76.8955 46.7094 76.5911 46.9337C76.2867 47.1499 75.9662 47.3382 75.6298 47.4984C75.3014 47.6506 74.9489 47.7667 74.5724 47.8469C74.1959 47.927 73.7794 47.967 73.3228 47.967C72.8421 47.967 72.3895 47.9029 71.965 47.7748C71.5484 47.6386 71.1839 47.4343 70.8715 47.162C70.5591 46.8896 70.3108 46.5492 70.1266 46.1406C69.9503 45.7321 69.8622 45.2554 69.8622 44.7107C69.8622 44.2301 69.9904 43.7695 70.2467 43.3289C70.5111 42.8803 70.9356 42.4798 71.5204 42.1273C72.1132 41.7749 72.8822 41.4865 73.8274 41.2622C74.7807 41.0379 75.9502 40.9097 77.336 40.8777V39.9885C77.336 39.0673 77.1398 38.3784 76.7473 37.9218C76.3547 37.4652 75.778 37.2369 75.017 37.2369C74.5043 37.2369 74.0717 37.301 73.7193 37.4292C73.3748 37.5573 73.0744 37.7015 72.8181 37.8617C72.5698 38.0139 72.3495 38.1541 72.1572 38.2823C71.973 38.4105 71.7807 38.4745 71.5805 38.4745C71.4203 38.4745 71.2801 38.4305 71.1599 38.3424C71.0478 38.2543 70.9556 38.1501 70.8836 38.03L70.463 37.273Z" fill="white" fill-opacity="0.6"/>
<path d="M84.9786 37.9098C85.3711 37.1087 85.8438 36.4799 86.3965 36.0233C86.9492 35.5667 87.6141 35.3384 88.3911 35.3384C88.6555 35.3384 88.9038 35.3705 89.1361 35.4345C89.3764 35.4906 89.5847 35.5787 89.7609 35.6989L89.6047 37.4652C89.5486 37.6815 89.4165 37.7896 89.2082 37.7896C89.096 37.7896 88.9278 37.7696 88.7035 37.7296C88.4792 37.6815 88.2389 37.6575 87.9826 37.6575C87.6061 37.6575 87.2736 37.7135 86.9853 37.8257C86.6969 37.9298 86.4366 38.09 86.2042 38.3063C85.9799 38.5146 85.7797 38.7749 85.6034 39.0873C85.4272 39.3917 85.263 39.7402 85.1108 40.1327V47.7748H82.7677V35.5667H84.1135C84.3698 35.5667 84.5421 35.6148 84.6302 35.7109C84.7263 35.799 84.7944 35.9592 84.8344 36.1915L84.9786 37.9098Z" fill="white" fill-opacity="0.6"/>
<path d="M91.5683 47.7748V35.5667H92.9742C93.3026 35.5667 93.5069 35.7229 93.587 36.0353L93.7552 37.2009C94.2038 36.6642 94.7005 36.2276 95.2452 35.8911C95.7979 35.5467 96.4428 35.3745 97.1797 35.3745C97.9888 35.3745 98.6457 35.5988 99.1503 36.0474C99.655 36.4879 100.023 37.0887 100.256 37.8497C100.432 37.4172 100.66 37.0447 100.941 36.7323C101.221 36.4198 101.533 36.1635 101.878 35.9632C102.222 35.763 102.587 35.6148 102.971 35.5187C103.364 35.4225 103.76 35.3745 104.161 35.3745C104.81 35.3745 105.387 35.4786 105.891 35.6869C106.404 35.8871 106.836 36.1835 107.189 36.576C107.541 36.9686 107.81 37.4532 107.994 38.03C108.178 38.6067 108.27 39.2636 108.27 40.0005V47.7748H105.915V40.0005C105.915 39.0873 105.715 38.3984 105.314 37.9338C104.922 37.4692 104.345 37.2369 103.584 37.2369C103.248 37.2369 102.927 37.297 102.623 37.4172C102.318 37.5293 102.05 37.7015 101.818 37.9338C101.594 38.1661 101.413 38.4545 101.277 38.799C101.149 39.1434 101.085 39.5439 101.085 40.0005V47.7748H98.7298V40.0005C98.7298 39.0553 98.5415 38.3584 98.165 37.9098C97.7885 37.4612 97.2358 37.2369 96.5068 37.2369C96.0022 37.2369 95.5336 37.3691 95.101 37.6334C94.6684 37.8978 94.2719 38.2583 93.9114 38.7149V47.7748H91.5683Z" fill="white" fill-opacity="0.6"/>
<path d="M111.242 39.556H117.25V41.5506H111.242V39.556Z" fill="white" fill-opacity="0.6"/>
<path d="M123.416 32.5988V38.3784H130.337V40.4571H123.416V47.7748H120.845V30.5201H131.539V32.5988H123.416Z" fill="white" fill-opacity="0.6"/>
<path d="M135.13 37.9098C135.523 37.1087 135.996 36.4799 136.548 36.0233C137.101 35.5667 137.766 35.3384 138.543 35.3384C138.807 35.3384 139.056 35.3705 139.288 35.4345C139.528 35.4906 139.737 35.5787 139.913 35.6989L139.757 37.4652C139.7 37.6815 139.568 37.7896 139.36 37.7896C139.248 37.7896 139.08 37.7696 138.855 37.7296C138.631 37.6815 138.391 37.6575 138.134 37.6575C137.758 37.6575 137.425 37.7135 137.137 37.8257C136.849 37.9298 136.588 38.09 136.356 38.3063C136.132 38.5146 135.931 38.7749 135.755 39.0873C135.579 39.3917 135.415 39.7402 135.263 40.1327V47.7748H132.92V35.5667H134.265C134.522 35.5667 134.694 35.6148 134.782 35.7109C134.878 35.799 134.946 35.9592 134.986 36.1915L135.13 37.9098Z" fill="white" fill-opacity="0.6"/>
<path d="M149.361 40.313C149.361 39.8483 149.293 39.4198 149.157 39.0273C149.028 38.6348 148.836 38.2943 148.58 38.0059C148.324 37.7175 148.011 37.4933 147.643 37.333C147.274 37.1728 146.85 37.0927 146.369 37.0927C145.384 37.0927 144.607 37.3771 144.038 37.9458C143.477 38.5146 143.121 39.3036 142.968 40.313H149.361ZM151.295 46.0325C151.007 46.3689 150.675 46.6613 150.298 46.9096C149.922 47.1499 149.521 47.3462 149.097 47.4984C148.672 47.6506 148.231 47.7627 147.775 47.8348C147.326 47.9069 146.882 47.943 146.441 47.943C145.6 47.943 144.819 47.8028 144.098 47.5224C143.385 47.234 142.764 46.8175 142.236 46.2728C141.715 45.7201 141.306 45.0392 141.01 44.2301C140.722 43.413 140.577 42.4758 140.577 41.4184C140.577 40.5693 140.71 39.7803 140.974 39.0513C141.238 38.3143 141.615 37.6735 142.103 37.1288C142.6 36.5841 143.205 36.1555 143.918 35.8431C144.631 35.5307 145.432 35.3745 146.321 35.3745C147.066 35.3745 147.751 35.4986 148.376 35.747C149.008 35.9873 149.553 36.3397 150.01 36.8043C150.466 37.269 150.823 37.8417 151.079 38.5226C151.343 39.2035 151.476 39.9805 151.476 40.8537C151.476 41.2141 151.436 41.4585 151.356 41.5866C151.275 41.7068 151.127 41.7669 150.911 41.7669H142.908C142.932 42.4958 143.037 43.1327 143.221 43.6774C143.405 44.2141 143.657 44.6627 143.978 45.0231C144.306 45.3836 144.695 45.652 145.143 45.8282C145.592 46.0044 146.093 46.0925 146.645 46.0925C147.166 46.0925 147.615 46.0325 147.991 45.9123C148.376 45.7922 148.704 45.664 148.976 45.5278C149.257 45.3836 149.489 45.2514 149.673 45.1313C149.866 45.0111 150.034 44.9511 150.178 44.9511C150.37 44.9511 150.518 45.0231 150.623 45.1673L151.295 46.0325Z" fill="white" fill-opacity="0.6"/>
<path d="M161.192 37.6695C161.127 37.7736 161.059 37.8497 160.987 37.8978C160.915 37.9378 160.823 37.9579 160.711 37.9579C160.583 37.9579 160.439 37.9138 160.278 37.8257C160.126 37.7376 159.938 37.6414 159.714 37.5373C159.497 37.4332 159.241 37.337 158.945 37.2489C158.648 37.1608 158.296 37.1168 157.887 37.1168C157.551 37.1168 157.242 37.1608 156.962 37.2489C156.69 37.329 156.457 37.4452 156.265 37.5974C156.073 37.7416 155.925 37.9178 155.821 38.1261C155.716 38.3263 155.664 38.5426 155.664 38.7749C155.664 39.0793 155.752 39.3317 155.929 39.5319C156.113 39.7322 156.349 39.9044 156.638 40.0486C156.934 40.1928 157.266 40.325 157.635 40.4451C158.011 40.5573 158.392 40.6774 158.776 40.8056C159.169 40.9338 159.549 41.082 159.918 41.2502C160.294 41.4104 160.627 41.6147 160.915 41.863C161.212 42.1033 161.448 42.3957 161.624 42.7401C161.808 43.0846 161.9 43.5052 161.9 44.0018C161.9 44.5705 161.796 45.0992 161.588 45.5879C161.388 46.0685 161.087 46.4851 160.687 46.8375C160.294 47.19 159.806 47.4664 159.221 47.6666C158.636 47.8669 157.967 47.967 157.214 47.967C156.373 47.967 155.596 47.8268 154.883 47.5465C154.17 47.2661 153.574 46.9096 153.093 46.4771L153.646 45.5759C153.71 45.4637 153.79 45.3796 153.886 45.3235C153.982 45.2595 154.11 45.2274 154.27 45.2274C154.423 45.2274 154.579 45.2835 154.739 45.3956C154.899 45.5078 155.092 45.6319 155.316 45.7681C155.54 45.8963 155.812 46.0164 156.133 46.1286C156.453 46.2327 156.854 46.2848 157.334 46.2848C157.735 46.2848 158.083 46.2367 158.38 46.1406C158.676 46.0365 158.921 45.9003 159.113 45.7321C159.313 45.5558 159.461 45.3556 159.557 45.1313C159.654 44.907 159.702 44.6707 159.702 44.4224C159.702 44.1019 159.609 43.8376 159.425 43.6293C159.249 43.413 159.013 43.2288 158.716 43.0766C158.428 42.9244 158.095 42.7922 157.719 42.6801C157.342 42.5679 156.958 42.4478 156.565 42.3196C156.173 42.1914 155.788 42.0432 155.412 41.875C155.035 41.7068 154.699 41.4945 154.403 41.2382C154.114 40.9818 153.878 40.6694 153.694 40.3009C153.517 39.9325 153.429 39.4839 153.429 38.9552C153.429 38.4826 153.525 38.03 153.718 37.5974C153.918 37.1648 154.202 36.7843 154.571 36.4559C154.947 36.1275 155.408 35.8671 155.953 35.6749C156.505 35.4746 157.134 35.3745 157.839 35.3745C158.648 35.3745 159.377 35.5026 160.026 35.759C160.683 36.0153 161.244 36.3678 161.708 36.8164L161.192 37.6695Z" fill="white" fill-opacity="0.6"/>
<path d="M166.781 37.1168C167.293 36.5961 167.858 36.1755 168.475 35.8551C169.1 35.5347 169.817 35.3745 170.626 35.3745C171.299 35.3745 171.887 35.4866 172.392 35.7109C172.905 35.9352 173.333 36.2516 173.678 36.6602C174.022 37.0607 174.282 37.5453 174.459 38.1141C174.635 38.6828 174.723 39.3116 174.723 40.0005V47.7748H172.368V40.0005C172.368 39.1274 172.168 38.4505 171.767 37.9699C171.367 37.4812 170.754 37.2369 169.929 37.2369C169.328 37.2369 168.763 37.3811 168.235 37.6695C167.714 37.9498 167.229 38.3344 166.781 38.823V47.7748H164.438V30.0395H166.781V37.1168Z" fill="white" fill-opacity="0.6"/>
<path d="M199.5 39.1474C199.5 40.4371 199.291 41.6107 198.875 42.668C198.466 43.7254 197.885 44.6346 197.132 45.3956C196.379 46.1486 195.478 46.7334 194.429 47.1499C193.38 47.5665 192.214 47.7748 190.932 47.7748H184.444V30.5201H190.932C192.214 30.5201 193.38 30.7284 194.429 31.1449C195.478 31.5615 196.379 32.1502 197.132 32.9112C197.885 33.6642 198.466 34.5734 198.875 35.6388C199.291 36.6962 199.5 37.8657 199.5 39.1474ZM196.88 39.1474C196.88 38.1221 196.74 37.2049 196.46 36.3958C196.179 35.5787 195.779 34.8898 195.258 34.3291C194.745 33.7603 194.12 33.3278 193.384 33.0314C192.655 32.735 191.838 32.5868 190.932 32.5868H187.015V45.708H190.932C191.838 45.708 192.655 45.5599 193.384 45.2635C194.12 44.9671 194.745 44.5385 195.258 43.9778C195.779 43.409 196.179 42.7201 196.46 41.9111C196.74 41.102 196.88 40.1808 196.88 39.1474Z" fill="white" fill-opacity="0.6"/>
<path d="M210.167 40.313C210.167 39.8483 210.099 39.4198 209.963 39.0273C209.835 38.6348 209.643 38.2943 209.386 38.0059C209.13 37.7175 208.818 37.4933 208.449 37.333C208.081 37.1728 207.656 37.0927 207.175 37.0927C206.19 37.0927 205.413 37.3771 204.844 37.9458C204.284 38.5146 203.927 39.3036 203.775 40.313H210.167ZM212.102 46.0325C211.814 46.3689 211.481 46.6613 211.105 46.9096C210.728 47.1499 210.328 47.3462 209.903 47.4984C209.478 47.6506 209.038 47.7627 208.581 47.8348C208.133 47.9069 207.688 47.943 207.247 47.943C206.406 47.943 205.625 47.8028 204.904 47.5224C204.191 47.234 203.571 46.8175 203.042 46.2728C202.521 45.7201 202.113 45.0392 201.816 44.2301C201.528 43.413 201.384 42.4758 201.384 41.4184C201.384 40.5693 201.516 39.7803 201.78 39.0513C202.045 38.3143 202.421 37.6735 202.91 37.1288C203.406 36.5841 204.011 36.1555 204.724 35.8431C205.437 35.5307 206.238 35.3745 207.127 35.3745C207.872 35.3745 208.557 35.4986 209.182 35.747C209.815 35.9873 210.36 36.3397 210.816 36.8043C211.273 37.269 211.629 37.8417 211.886 38.5226C212.15 39.2035 212.282 39.9805 212.282 40.8537C212.282 41.2141 212.242 41.4585 212.162 41.5866C212.082 41.7068 211.934 41.7669 211.717 41.7669H203.715C203.739 42.4958 203.843 43.1327 204.027 43.6774C204.212 44.2141 204.464 44.6627 204.784 45.0231C205.113 45.3836 205.501 45.652 205.95 45.8282C206.398 46.0044 206.899 46.0925 207.452 46.0925C207.972 46.0925 208.421 46.0325 208.798 45.9123C209.182 45.7922 209.51 45.664 209.783 45.5278C210.063 45.3836 210.295 45.2514 210.48 45.1313C210.672 45.0111 210.84 44.9511 210.984 44.9511C211.177 44.9511 211.325 45.0231 211.429 45.1673L212.102 46.0325Z" fill="white" fill-opacity="0.6"/>
<path d="M217.204 30.0395V47.7748H214.849V30.0395H217.204Z" fill="white" fill-opacity="0.6"/>
<path d="M223.001 35.5667V47.7748H220.658V35.5667H223.001ZM223.446 31.7938C223.446 32.01 223.402 32.2183 223.314 32.4186C223.226 32.6108 223.106 32.7831 222.953 32.9353C222.809 33.0795 222.637 33.1956 222.437 33.2837C222.236 33.3638 222.028 33.4039 221.812 33.4039C221.596 33.4039 221.391 33.3638 221.199 33.2837C221.007 33.1956 220.835 33.0795 220.682 32.9353C220.538 32.7831 220.422 32.6108 220.334 32.4186C220.254 32.2183 220.214 32.01 220.214 31.7938C220.214 31.5695 220.254 31.3612 220.334 31.1689C220.422 30.9687 220.538 30.7965 220.682 30.6523C220.835 30.5001 221.007 30.3839 221.199 30.3038C221.391 30.2157 221.596 30.1716 221.812 30.1716C222.028 30.1716 222.236 30.2157 222.437 30.3038C222.637 30.3839 222.809 30.5001 222.953 30.6523C223.106 30.7965 223.226 30.9687 223.314 31.1689C223.402 31.3612 223.446 31.5695 223.446 31.7938Z" fill="white" fill-opacity="0.6"/>
<path d="M230.684 41.6828C231.1 41.6828 231.465 41.6267 231.777 41.5145C232.097 41.4024 232.362 41.2462 232.57 41.0459C232.786 40.8376 232.947 40.5893 233.051 40.3009C233.163 40.0126 233.219 39.6961 233.219 39.3517C233.219 38.6468 233.003 38.086 232.57 37.6695C232.145 37.2449 231.517 37.0326 230.684 37.0326C229.858 37.0326 229.23 37.2449 228.797 37.6695C228.373 38.086 228.16 38.6468 228.16 39.3517C228.16 39.6961 228.212 40.0126 228.316 40.3009C228.429 40.5813 228.589 40.8256 228.797 41.0339C229.013 41.2342 229.278 41.3944 229.59 41.5145C229.911 41.6267 230.275 41.6828 230.684 41.6828ZM234.42 48.4116C234.42 48.1232 234.34 47.8949 234.18 47.7267C234.02 47.5505 233.8 47.4143 233.519 47.3182C233.247 47.214 232.926 47.1419 232.558 47.1019C232.19 47.0538 231.801 47.0178 231.392 46.9937C230.992 46.9697 230.579 46.9497 230.155 46.9337C229.73 46.9096 229.322 46.8696 228.929 46.8135C228.513 47.0218 228.168 47.2741 227.896 47.5705C227.632 47.8669 227.499 48.2153 227.499 48.6159C227.499 48.8722 227.563 49.1125 227.692 49.3368C227.828 49.5611 228.032 49.7534 228.304 49.9136C228.585 50.0818 228.933 50.21 229.35 50.2981C229.774 50.3942 230.279 50.4423 230.864 50.4423C231.441 50.4423 231.949 50.3902 232.39 50.2861C232.83 50.1899 233.199 50.0497 233.495 49.8655C233.8 49.6893 234.028 49.477 234.18 49.2287C234.34 48.9803 234.42 48.708 234.42 48.4116ZM236.8 36.0233V36.9005C236.8 37.1889 236.619 37.3691 236.259 37.4412L234.949 37.6334C235.061 37.8818 235.149 38.1461 235.213 38.4265C235.278 38.6988 235.31 38.9872 235.31 39.2916C235.31 39.8924 235.193 40.4371 234.961 40.9258C234.729 41.4064 234.408 41.8189 234 42.1634C233.591 42.5078 233.103 42.7722 232.534 42.9564C231.973 43.1407 231.356 43.2328 230.684 43.2328C230.131 43.2328 229.614 43.1727 229.133 43.0526C228.893 43.1967 228.709 43.357 228.581 43.5332C228.461 43.7014 228.401 43.8696 228.401 44.0378C228.401 44.3182 228.517 44.5265 228.749 44.6627C228.989 44.7989 229.298 44.899 229.674 44.9631C230.059 45.0191 230.495 45.0552 230.984 45.0712C231.481 45.0872 231.981 45.1153 232.486 45.1553C232.999 45.1874 233.499 45.2514 233.988 45.3476C234.485 45.4357 234.921 45.5839 235.298 45.7922C235.682 45.9924 235.991 46.2728 236.223 46.6333C236.463 46.9857 236.583 47.4463 236.583 48.0151C236.583 48.5438 236.451 49.0564 236.187 49.5531C235.93 50.0497 235.554 50.4903 235.057 50.8748C234.561 51.2593 233.956 51.5677 233.243 51.8C232.53 52.0324 231.721 52.1485 230.816 52.1485C229.911 52.1485 229.121 52.0604 228.449 51.8842C227.784 51.7079 227.227 51.4716 226.778 51.1752C226.338 50.8788 226.005 50.5344 225.781 50.1419C225.565 49.7494 225.457 49.3408 225.457 48.9163C225.457 48.3235 225.641 47.8228 226.009 47.4143C226.378 46.9977 226.887 46.6733 227.535 46.441C227.183 46.2808 226.903 46.0645 226.694 45.7922C226.486 45.5118 226.382 45.1433 226.382 44.6867C226.382 44.5105 226.414 44.3302 226.478 44.146C226.542 43.9537 226.638 43.7655 226.766 43.5813C226.903 43.389 227.067 43.2088 227.259 43.0405C227.459 42.8723 227.688 42.7201 227.944 42.5839C227.343 42.2475 226.871 41.8029 226.526 41.2502C226.182 40.6894 226.009 40.0366 226.009 39.2916C226.009 38.6908 226.126 38.1501 226.358 37.6695C226.59 37.1889 226.911 36.7763 227.319 36.4319C227.736 36.0874 228.228 35.8231 228.797 35.6388C229.374 35.4546 230.003 35.3625 230.684 35.3625C231.741 35.3625 232.65 35.5827 233.411 36.0233H236.8Z" fill="white" fill-opacity="0.6"/>
<path d="M241.293 37.1168C241.805 36.5961 242.37 36.1755 242.987 35.8551C243.612 35.5347 244.329 35.3745 245.138 35.3745C245.81 35.3745 246.399 35.4866 246.904 35.7109C247.417 35.9352 247.845 36.2516 248.19 36.6602C248.534 37.0607 248.794 37.5453 248.971 38.1141C249.147 38.6828 249.235 39.3116 249.235 40.0005V47.7748H246.88V40.0005C246.88 39.1274 246.68 38.4505 246.279 37.9699C245.879 37.4812 245.266 37.2369 244.441 37.2369C243.84 37.2369 243.275 37.3811 242.746 37.6695C242.226 37.9498 241.741 38.3344 241.293 38.823V47.7748H238.949V30.0395H241.293V37.1168Z" fill="white" fill-opacity="0.6"/>
<path d="M256.054 47.967C255.068 47.967 254.307 47.6906 253.771 47.1379C253.242 46.5852 252.978 45.7962 252.978 44.7708V37.4652H251.56C251.423 37.4652 251.307 37.4252 251.211 37.3451C251.123 37.2569 251.079 37.1288 251.079 36.9606V36.0113L253.062 35.7349L253.59 32.0942C253.622 31.958 253.682 31.8538 253.771 31.7817C253.867 31.7016 253.987 31.6616 254.131 31.6616H255.321V35.759H258.781V37.4652H255.321V44.6146C255.321 45.0952 255.437 45.4557 255.669 45.696C255.909 45.9283 256.214 46.0445 256.582 46.0445C256.799 46.0445 256.983 46.0164 257.135 45.9604C257.295 45.9043 257.431 45.8442 257.544 45.7801C257.656 45.708 257.752 45.644 257.832 45.5879C257.912 45.5318 257.984 45.5038 258.048 45.5038C258.128 45.5038 258.188 45.5238 258.228 45.5639C258.276 45.5959 258.325 45.652 258.373 45.7321L259.07 46.8616C258.685 47.214 258.228 47.4864 257.7 47.6786C257.171 47.8709 256.622 47.967 256.054 47.967Z" fill="white" fill-opacity="0.6"/>
<path d="M268.137 37.6695C268.073 37.7736 268.005 37.8497 267.932 37.8978C267.86 37.9378 267.768 37.9579 267.656 37.9579C267.528 37.9579 267.384 37.9138 267.224 37.8257C267.071 37.7376 266.883 37.6414 266.659 37.5373C266.443 37.4332 266.186 37.337 265.89 37.2489C265.593 37.1608 265.241 37.1168 264.832 37.1168C264.496 37.1168 264.188 37.1608 263.907 37.2489C263.635 37.329 263.402 37.4452 263.21 37.5974C263.018 37.7416 262.87 37.9178 262.766 38.1261C262.662 38.3263 262.609 38.5426 262.609 38.7749C262.609 39.0793 262.698 39.3317 262.874 39.5319C263.058 39.7322 263.294 39.9044 263.583 40.0486C263.879 40.1928 264.212 40.325 264.58 40.4451C264.957 40.5573 265.337 40.6774 265.722 40.8056C266.114 40.9338 266.495 41.082 266.863 41.2502C267.24 41.4104 267.572 41.6147 267.86 41.863C268.157 42.1033 268.393 42.3957 268.569 42.7401C268.754 43.0846 268.846 43.5052 268.846 44.0018C268.846 44.5705 268.742 45.0992 268.533 45.5879C268.333 46.0685 268.033 46.4851 267.632 46.8375C267.24 47.19 266.751 47.4664 266.166 47.6666C265.581 47.8669 264.913 47.967 264.16 47.967C263.318 47.967 262.541 47.8268 261.828 47.5465C261.115 47.2661 260.519 46.9096 260.038 46.4771L260.591 45.5759C260.655 45.4637 260.735 45.3796 260.831 45.3235C260.927 45.2595 261.055 45.2274 261.216 45.2274C261.368 45.2274 261.524 45.2835 261.684 45.3956C261.844 45.5078 262.037 45.6319 262.261 45.7681C262.485 45.8963 262.758 46.0164 263.078 46.1286C263.399 46.2327 263.799 46.2848 264.28 46.2848C264.68 46.2848 265.029 46.2367 265.325 46.1406C265.621 46.0365 265.866 45.9003 266.058 45.7321C266.258 45.5558 266.406 45.3556 266.503 45.1313C266.599 44.907 266.647 44.6707 266.647 44.4224C266.647 44.1019 266.555 43.8376 266.37 43.6293C266.194 43.413 265.958 43.2288 265.661 43.0766C265.373 42.9244 265.041 42.7922 264.664 42.6801C264.288 42.5679 263.903 42.4478 263.511 42.3196C263.118 42.1914 262.734 42.0432 262.357 41.875C261.981 41.7068 261.644 41.4945 261.348 41.2382C261.059 40.9818 260.823 40.6694 260.639 40.3009C260.463 39.9325 260.375 39.4839 260.375 38.9552C260.375 38.4826 260.471 38.03 260.663 37.5974C260.863 37.1648 261.148 36.7843 261.516 36.4559C261.893 36.1275 262.353 35.8671 262.898 35.6749C263.451 35.4746 264.079 35.3745 264.784 35.3745C265.593 35.3745 266.322 35.5026 266.971 35.759C267.628 36.0153 268.189 36.3678 268.653 36.8164L268.137 37.6695Z" fill="white" fill-opacity="0.6"/>
</svg>
