<svg width="16" height="16" viewBox="0 0 16 16" fill="none" xmlns="http://www.w3.org/2000/svg">
<circle cx="6.16024" cy="6.15979" r="5.15272" transform="rotate(-45 6.16024 6.15979)" stroke="#FAFAFA" stroke-width="2"/>
<path d="M13.0534 15.5576C13.6435 16.1476 14.6001 16.1476 15.1902 15.5576C15.7802 14.9675 15.7802 14.0109 15.1902 13.4208L13.0534 15.5576ZM9.15312 9.52052C8.08473 10.5889 8.08474 10.5889 8.08476 10.5889C8.08479 10.589 8.08482 10.589 8.08487 10.589C8.08491 10.5891 8.08497 10.5891 8.08504 10.5892C8.08511 10.5893 8.08519 10.5894 8.08528 10.5895C8.08537 10.5896 8.08548 10.5897 8.08559 10.5898C8.08571 10.5899 8.08583 10.59 8.08597 10.5901C8.08611 10.5903 8.08626 10.5904 8.08642 10.5906C8.08658 10.5908 8.08675 10.5909 8.08693 10.5911C8.08711 10.5913 8.08731 10.5915 8.08751 10.5917C8.08772 10.5919 8.08794 10.5921 8.08816 10.5923C8.08839 10.5926 8.08863 10.5928 8.08888 10.5931C8.08913 10.5933 8.08939 10.5936 8.08967 10.5938C8.08994 10.5941 8.09022 10.5944 8.09052 10.5947C8.09081 10.595 8.09112 10.5953 8.09144 10.5956C8.09175 10.5959 8.09208 10.5963 8.09242 10.5966C8.09276 10.5969 8.09311 10.5973 8.09347 10.5977C8.09384 10.598 8.09421 10.5984 8.09459 10.5988C8.09498 10.5992 8.09537 10.5996 8.09578 10.6C8.09618 10.6004 8.0966 10.6008 8.09703 10.6012C8.09746 10.6016 8.0979 10.6021 8.09835 10.6025C8.09879 10.603 8.09926 10.6034 8.09973 10.6039C8.1002 10.6044 8.10068 10.6049 8.10118 10.6054C8.10167 10.6058 8.10217 10.6064 8.10269 10.6069C8.1032 10.6074 8.10373 10.6079 8.10427 10.6084C8.1048 10.609 8.10535 10.6095 8.10591 10.6101C8.10647 10.6106 8.10704 10.6112 8.10762 10.6118C8.1082 10.6124 8.10879 10.613 8.10939 10.6136C8.10999 10.6142 8.1106 10.6148 8.11123 10.6154C8.11185 10.616 8.11248 10.6167 8.11313 10.6173C8.11377 10.6179 8.11442 10.6186 8.11509 10.6193C8.11576 10.6199 8.11643 10.6206 8.11712 10.6213C8.11781 10.622 8.1185 10.6227 8.11921 10.6234C8.11992 10.6241 8.12064 10.6248 8.12137 10.6255C8.1221 10.6263 8.12284 10.627 8.12359 10.6278C8.12434 10.6285 8.1251 10.6293 8.12587 10.63C8.12664 10.6308 8.12742 10.6316 8.12821 10.6324C8.129 10.6332 8.12981 10.634 8.13062 10.6348C8.13143 10.6356 8.13225 10.6364 8.13309 10.6373C8.13392 10.6381 8.13477 10.6389 8.13562 10.6398C8.13648 10.6407 8.13734 10.6415 8.13822 10.6424C8.13909 10.6433 8.13998 10.6442 8.14087 10.645C8.14177 10.6459 8.14267 10.6469 8.14359 10.6478C8.14451 10.6487 8.14543 10.6496 8.14637 10.6505C8.14731 10.6515 8.14825 10.6524 8.14921 10.6534C8.15017 10.6543 8.15113 10.6553 8.15211 10.6563C8.15309 10.6573 8.15408 10.6583 8.15508 10.6593C8.15607 10.6603 8.15708 10.6613 8.1581 10.6623C8.15912 10.6633 8.16015 10.6643 8.16118 10.6654C8.16222 10.6664 8.16327 10.6674 8.16433 10.6685C8.16539 10.6696 8.16646 10.6706 8.16753 10.6717C8.16861 10.6728 8.1697 10.6739 8.1708 10.675C8.1719 10.6761 8.17301 10.6772 8.17413 10.6783C8.17524 10.6794 8.17637 10.6806 8.17751 10.6817C8.17865 10.6828 8.1798 10.684 8.18096 10.6851C8.18211 10.6863 8.18328 10.6875 8.18446 10.6886C8.18564 10.6898 8.18683 10.691 8.18802 10.6922C8.18922 10.6934 8.19043 10.6946 8.19165 10.6958C8.19286 10.697 8.19409 10.6983 8.19533 10.6995C8.19656 10.7007 8.19781 10.702 8.19907 10.7032C8.20032 10.7045 8.20159 10.7058 8.20287 10.707C8.20414 10.7083 8.20543 10.7096 8.20672 10.7109C8.20802 10.7122 8.20932 10.7135 8.21064 10.7148C8.21195 10.7161 8.21328 10.7175 8.21461 10.7188C8.21594 10.7201 8.21729 10.7215 8.21864 10.7228C8.21999 10.7242 8.22136 10.7255 8.22273 10.7269C8.2241 10.7283 8.22548 10.7297 8.22687 10.7311C8.22826 10.7324 8.22967 10.7338 8.23108 10.7353C8.23249 10.7367 8.23391 10.7381 8.23533 10.7395C8.23676 10.7409 8.2382 10.7424 8.23965 10.7438C8.2411 10.7453 8.24256 10.7467 8.24402 10.7482C8.24549 10.7497 8.24697 10.7511 8.24845 10.7526C8.24994 10.7541 8.25143 10.7556 8.25294 10.7571C8.25444 10.7586 8.25596 10.7601 8.25748 10.7617C8.259 10.7632 8.26054 10.7647 8.26208 10.7663C8.26362 10.7678 8.26517 10.7693 8.26673 10.7709C8.26829 10.7725 8.26986 10.774 8.27144 10.7756C8.27302 10.7772 8.27461 10.7788 8.2762 10.7804C8.2778 10.782 8.27941 10.7836 8.28102 10.7852C8.28264 10.7868 8.28426 10.7884 8.2859 10.7901C8.28753 10.7917 8.28917 10.7934 8.29082 10.795C8.29248 10.7967 8.29414 10.7983 8.29581 10.8C8.29748 10.8017 8.29916 10.8033 8.30085 10.805C8.30253 10.8067 8.30423 10.8084 8.30594 10.8101C8.30764 10.8118 8.30936 10.8135 8.31108 10.8153C8.31281 10.817 8.31454 10.8187 8.31628 10.8205C8.31803 10.8222 8.31978 10.824 8.32154 10.8257C8.3233 10.8275 8.32507 10.8292 8.32684 10.831C8.32862 10.8328 8.33041 10.8346 8.33221 10.8364C8.334 10.8382 8.33581 10.84 8.33762 10.8418C8.33943 10.8436 8.34125 10.8454 8.34309 10.8473C8.34492 10.8491 8.34676 10.8509 8.3486 10.8528C8.35045 10.8546 8.35231 10.8565 8.35418 10.8584C8.35604 10.8602 8.35792 10.8621 8.3598 10.864C8.36168 10.8659 8.36358 10.8678 8.36548 10.8697C8.36738 10.8716 8.36929 10.8735 8.37121 10.8754C8.37312 10.8773 8.37505 10.8792 8.37699 10.8812C8.37892 10.8831 8.38086 10.885 8.38282 10.887C8.38477 10.8889 8.38673 10.8909 8.3887 10.8929C8.39067 10.8948 8.39265 10.8968 8.39464 10.8988C8.39662 10.9008 8.39862 10.9028 8.40062 10.9048C8.40262 10.9068 8.40464 10.9088 8.40666 10.9108C8.40868 10.9129 8.41071 10.9149 8.41274 10.9169C8.41478 10.919 8.41683 10.921 8.41888 10.9231C8.42094 10.9251 8.423 10.9272 8.42507 10.9292C8.42714 10.9313 8.42922 10.9334 8.43131 10.9355C8.4334 10.9376 8.43549 10.9397 8.4376 10.9418C8.4397 10.9439 8.44181 10.946 8.44394 10.9481C8.44606 10.9502 8.44819 10.9524 8.45032 10.9545C8.45246 10.9566 8.45461 10.9588 8.45676 10.9609C8.45892 10.9631 8.46108 10.9653 8.46325 10.9674C8.46542 10.9696 8.4676 10.9718 8.46978 10.974C8.47197 10.9761 8.47416 10.9783 8.47637 10.9805C8.47857 10.9827 8.48078 10.985 8.483 10.9872C8.48522 10.9894 8.48745 10.9916 8.48968 10.9939C8.49192 10.9961 8.49416 10.9983 8.49641 11.0006C8.49866 11.0028 8.50092 11.0051 8.50319 11.0074C8.50546 11.0096 8.50773 11.0119 8.51002 11.0142C8.5123 11.0165 8.51459 11.0188 8.51689 11.0211C8.51919 11.0234 8.5215 11.0257 8.52381 11.028C8.52613 11.0303 8.52845 11.0326 8.53078 11.035C8.53311 11.0373 8.53545 11.0396 8.5378 11.042C8.54014 11.0443 8.5425 11.0467 8.54486 11.049C8.54722 11.0514 8.54959 11.0538 8.55197 11.0561C8.55435 11.0585 8.55673 11.0609 8.55913 11.0633C8.56152 11.0657 8.56392 11.0681 8.56633 11.0705C8.56874 11.0729 8.57116 11.0753 8.57358 11.0778C8.576 11.0802 8.57844 11.0826 8.58088 11.0851C8.58332 11.0875 8.58576 11.0899 8.58822 11.0924C8.59067 11.0949 8.59314 11.0973 8.59561 11.0998C8.59808 11.1023 8.60055 11.1047 8.60304 11.1072C8.60552 11.1097 8.60802 11.1122 8.61052 11.1147C8.61302 11.1172 8.61552 11.1197 8.61804 11.1222C8.62056 11.1247 8.62308 11.1273 8.62561 11.1298C8.62814 11.1323 8.63068 11.1349 8.63322 11.1374C8.63577 11.1399 8.63832 11.1425 8.64088 11.1451C8.64344 11.1476 8.64601 11.1502 8.64858 11.1528C8.65116 11.1553 8.65374 11.1579 8.65633 11.1605C8.65892 11.1631 8.66152 11.1657 8.66412 11.1683C8.66673 11.1709 8.66934 11.1735 8.67196 11.1761C8.67457 11.1788 8.6772 11.1814 8.67983 11.184C8.68247 11.1866 8.68511 11.1893 8.68776 11.1919C8.6904 11.1946 8.69306 11.1972 8.69572 11.1999C8.69838 11.2026 8.70105 11.2052 8.70373 11.2079C8.70641 11.2106 8.70909 11.2133 8.71178 11.216C8.71447 11.2187 8.71717 11.2213 8.71988 11.2241C8.72258 11.2268 8.72529 11.2295 8.72801 11.2322C8.73073 11.2349 8.73346 11.2376 8.73619 11.2404C8.73893 11.2431 8.74167 11.2458 8.74442 11.2486C8.74716 11.2513 8.74992 11.2541 8.75268 11.2569C8.75544 11.2596 8.75821 11.2624 8.76099 11.2652C8.76376 11.2679 8.76654 11.2707 8.76933 11.2735C8.77212 11.2763 8.77492 11.2791 8.77772 11.2819C8.78053 11.2847 8.78334 11.2875 8.78615 11.2903C8.78897 11.2931 8.79179 11.296 8.79462 11.2988C8.79745 11.3016 8.80029 11.3045 8.80314 11.3073C8.80598 11.3102 8.80883 11.313 8.81169 11.3159C8.81455 11.3187 8.81741 11.3216 8.82028 11.3245C8.82316 11.3273 8.82603 11.3302 8.82892 11.3331C8.8318 11.336 8.83469 11.3389 8.83759 11.3418C8.84049 11.3447 8.8434 11.3476 8.84631 11.3505C8.84922 11.3534 8.85214 11.3563 8.85506 11.3592C8.85799 11.3622 8.86092 11.3651 8.86386 11.368C8.86679 11.371 8.86974 11.3739 8.87269 11.3769C8.87564 11.3798 8.8786 11.3828 8.88156 11.3857C8.88453 11.3887 8.8875 11.3917 8.89048 11.3947C8.89345 11.3976 8.89644 11.4006 8.89943 11.4036C8.90242 11.4066 8.90541 11.4096 8.90842 11.4126C8.91142 11.4156 8.91443 11.4186 8.91744 11.4216C8.92046 11.4246 8.92348 11.4277 8.92651 11.4307C8.92954 11.4337 8.93258 11.4368 8.93562 11.4398C8.93866 11.4428 8.94171 11.4459 8.94476 11.4489C8.94781 11.452 8.95087 11.4551 8.95394 11.4581C8.95701 11.4612 8.96008 11.4643 8.96316 11.4673C8.96624 11.4704 8.96932 11.4735 8.97242 11.4766C8.97551 11.4797 8.97861 11.4828 8.98171 11.4859C8.98481 11.489 8.98792 11.4921 8.99104 11.4952C8.99416 11.4983 8.99728 11.5015 9.00041 11.5046C9.00354 11.5077 9.00667 11.5108 9.00981 11.514C9.01295 11.5171 9.0161 11.5203 9.01925 11.5234C9.02241 11.5266 9.02556 11.5297 9.02873 11.5329C9.03189 11.5361 9.03507 11.5392 9.03824 11.5424C9.04142 11.5456 9.0446 11.5488 9.04779 11.552C9.05098 11.5552 9.05418 11.5584 9.05738 11.5616C9.06058 11.5648 9.06379 11.568 9.067 11.5712C9.07021 11.5744 9.07343 11.5776 9.07665 11.5808C9.07988 11.5841 9.08311 11.5873 9.08635 11.5905C9.08958 11.5938 9.09282 11.597 9.09607 11.6003C9.09932 11.6035 9.10257 11.6068 9.10583 11.61C9.10909 11.6133 9.11236 11.6165 9.11563 11.6198C9.1189 11.6231 9.12218 11.6264 9.12546 11.6296C9.12874 11.6329 9.13203 11.6362 9.13533 11.6395C9.13862 11.6428 9.14192 11.6461 9.14523 11.6494C9.14853 11.6527 9.15184 11.656 9.15516 11.6593C9.15848 11.6627 9.1618 11.666 9.16513 11.6693C9.16845 11.6726 9.17179 11.676 9.17513 11.6793C9.17847 11.6826 9.18181 11.686 9.18516 11.6893C9.18851 11.6927 9.19187 11.696 9.19523 11.6994C9.19859 11.7028 9.20196 11.7061 9.20533 11.7095C9.2087 11.7129 9.21208 11.7163 9.21546 11.7196C9.21884 11.723 9.22223 11.7264 9.22563 11.7298C9.22902 11.7332 9.23242 11.7366 9.23583 11.74C9.23923 11.7434 9.24264 11.7468 9.24606 11.7502C9.24947 11.7537 9.25289 11.7571 9.25632 11.7605C9.25975 11.7639 9.26318 11.7674 9.26661 11.7708C9.27005 11.7742 9.27349 11.7777 9.27694 11.7811C9.28039 11.7846 9.28384 11.788 9.2873 11.7915C9.29076 11.7949 9.29422 11.7984 9.29769 11.8019C9.30116 11.8053 9.30463 11.8088 9.30811 11.8123C9.31159 11.8158 9.31507 11.8193 9.31856 11.8227C9.32205 11.8262 9.32555 11.8297 9.32904 11.8332C9.33254 11.8367 9.33605 11.8402 9.33956 11.8437C9.34307 11.8472 9.34658 11.8508 9.3501 11.8543C9.35362 11.8578 9.35715 11.8613 9.36068 11.8649C9.36421 11.8684 9.36774 11.8719 9.37128 11.8755C9.37482 11.879 9.37837 11.8825 9.38192 11.8861C9.38546 11.8896 9.38902 11.8932 9.39258 11.8968C9.39614 11.9003 9.3997 11.9039 9.40327 11.9075C9.40684 11.911 9.41042 11.9146 9.414 11.9182C9.41758 11.9218 9.42116 11.9253 9.42475 11.9289C9.42834 11.9325 9.43193 11.9361 9.43553 11.9397C9.43913 11.9433 9.44273 11.9469 9.44634 11.9505C9.44995 11.9541 9.45356 11.9577 9.45718 11.9614C9.4608 11.965 9.46442 11.9686 9.46805 11.9722C9.47167 11.9759 9.4753 11.9795 9.47894 11.9831C9.48258 11.9868 9.48622 11.9904 9.48986 11.994C9.49351 11.9977 9.49716 12.0013 9.50082 12.005C9.50447 12.0086 9.50813 12.0123 9.51179 12.016C9.51546 12.0196 9.51913 12.0233 9.5228 12.027C9.52648 12.0307 9.53015 12.0343 9.53384 12.038C9.53752 12.0417 9.54121 12.0454 9.5449 12.0491C9.54859 12.0528 9.55228 12.0565 9.55599 12.0602C9.55969 12.0639 9.56339 12.0676 9.5671 12.0713C9.57081 12.075 9.57452 12.0787 9.57824 12.0824C9.58196 12.0861 9.58568 12.0899 9.58941 12.0936C9.59314 12.0973 9.59687 12.101 9.6006 12.1048C9.60434 12.1085 9.60808 12.1123 9.61182 12.116C9.61557 12.1197 9.61932 12.1235 9.62307 12.1272C9.62682 12.131 9.63058 12.1348 9.63434 12.1385C9.6381 12.1423 9.64187 12.146 9.64564 12.1498C9.64941 12.1536 9.65319 12.1574 9.65696 12.1611C9.66074 12.1649 9.66452 12.1687 9.66831 12.1725C9.6721 12.1763 9.67589 12.1801 9.67968 12.1839C9.68348 12.1877 9.68728 12.1915 9.69108 12.1953C9.69489 12.1991 9.69869 12.2029 9.7025 12.2067C9.70632 12.2105 9.71013 12.2143 9.71395 12.2181C9.71777 12.2219 9.72159 12.2258 9.72542 12.2296C9.72925 12.2334 9.73308 12.2373 9.73692 12.2411C9.74075 12.2449 9.74459 12.2488 9.74844 12.2526C9.75228 12.2565 9.75613 12.2603 9.75998 12.2642C9.76383 12.268 9.76769 12.2719 9.77155 12.2757C9.7754 12.2796 9.77927 12.2834 9.78313 12.2873C9.787 12.2912 9.79087 12.2951 9.79475 12.2989C9.79862 12.3028 9.8025 12.3067 9.80638 12.3106C9.81027 12.3144 9.81415 12.3183 9.81804 12.3222C9.82193 12.3261 9.82582 12.33 9.82972 12.3339C9.83362 12.3378 9.83752 12.3417 9.84143 12.3456C9.84533 12.3495 9.84924 12.3534 9.85315 12.3573C9.85706 12.3612 9.86098 12.3652 9.8649 12.3691C9.86882 12.373 9.87274 12.3769 9.87667 12.3808C9.88059 12.3848 9.88452 12.3887 9.88846 12.3926C9.89239 12.3966 9.89633 12.4005 9.90027 12.4044C9.90421 12.4084 9.90816 12.4123 9.9121 12.4163C9.91605 12.4202 9.92 12.4242 9.92396 12.4281C9.92791 12.4321 9.93187 12.4361 9.93583 12.44C9.9398 12.444 9.94376 12.4479 9.94773 12.4519C9.9517 12.4559 9.95567 12.4599 9.95965 12.4638C9.96362 12.4678 9.9676 12.4718 9.97159 12.4758C9.97557 12.4797 9.97955 12.4837 9.98354 12.4877C9.98753 12.4917 9.99152 12.4957 9.99552 12.4997C9.99952 12.5037 10.0035 12.5077 10.0075 12.5117C10.0115 12.5157 10.0155 12.5197 10.0195 12.5237C10.0235 12.5277 10.0276 12.5317 10.0316 12.5357C10.0356 12.5398 10.0396 12.5438 10.0436 12.5478C10.0476 12.5518 10.0517 12.5559 10.0557 12.5599C10.0597 12.5639 10.0638 12.5679 10.0678 12.572C10.0718 12.576 10.0759 12.58 10.0799 12.5841C10.0839 12.5881 10.088 12.5922 10.092 12.5962C10.0961 12.6003 10.1001 12.6043 10.1042 12.6084C10.1082 12.6124 10.1123 12.6165 10.1164 12.6205C10.1204 12.6246 10.1245 12.6287 10.1285 12.6327C10.1326 12.6368 10.1367 12.6409 10.1407 12.6449C10.1448 12.649 10.1489 12.6531 10.153 12.6571C10.157 12.6612 10.1611 12.6653 10.1652 12.6694C10.1693 12.6735 10.1734 12.6775 10.1775 12.6816C10.1815 12.6857 10.1856 12.6898 10.1897 12.6939C10.1938 12.698 10.1979 12.7021 10.202 12.7062C10.2061 12.7103 10.2102 12.7144 10.2143 12.7185C10.2184 12.7226 10.2225 12.7267 10.2266 12.7308C10.2308 12.7349 10.2349 12.739 10.239 12.7432C10.2431 12.7473 10.2472 12.7514 10.2513 12.7555C10.2555 12.7596 10.2596 12.7638 10.2637 12.7679C10.2678 12.772 10.272 12.7761 10.2761 12.7803C10.2802 12.7844 10.2844 12.7885 10.2885 12.7927C10.2926 12.7968 10.2968 12.801 10.3009 12.8051C10.3051 12.8092 10.3092 12.8134 10.3134 12.8175C10.3175 12.8217 10.3216 12.8258 10.3258 12.83C10.33 12.8341 10.3341 12.8383 10.3383 12.8424C10.3424 12.8466 10.3466 12.8508 10.3507 12.8549C10.3549 12.8591 10.3591 12.8632 10.3632 12.8674C10.3674 12.8716 10.3716 12.8757 10.3757 12.8799C10.3799 12.8841 10.3841 12.8883 10.3883 12.8924C10.3924 12.8966 10.3966 12.9008 10.4008 12.905C10.405 12.9092 10.4092 12.9133 10.4133 12.9175C10.4175 12.9217 10.4217 12.9259 10.4259 12.9301C10.4301 12.9343 10.4343 12.9385 10.4385 12.9427C10.4427 12.9468 10.4469 12.951 10.4511 12.9552C10.4553 12.9594 10.4595 12.9636 10.4637 12.9678C10.4679 12.972 10.4721 12.9763 10.4763 12.9805C10.4805 12.9847 10.4847 12.9889 10.4889 12.9931C10.4931 12.9973 10.4973 13.0015 10.5015 13.0057C10.5058 13.0099 10.51 13.0142 10.5142 13.0184C10.5184 13.0226 10.5226 13.0268 10.5269 13.031C10.5311 13.0353 10.5353 13.0395 10.5395 13.0437C10.5438 13.0479 10.548 13.0522 10.5522 13.0564C10.5565 13.0606 10.5607 13.0649 10.5649 13.0691C10.5692 13.0733 10.5734 13.0776 10.5776 13.0818C10.5819 13.086 10.5861 13.0903 10.5904 13.0945C10.5946 13.0988 10.5988 13.103 10.6031 13.1073C10.6073 13.1115 10.6116 13.1158 10.6158 13.12C10.6201 13.1243 10.6243 13.1285 10.6286 13.1328C10.6328 13.137 10.6371 13.1413 10.6413 13.1455C10.6456 13.1498 10.6499 13.154 10.6541 13.1583C10.6584 13.1626 10.6626 13.1668 10.6669 13.1711C10.6712 13.1753 10.6754 13.1796 10.6797 13.1839C10.684 13.1881 10.6882 13.1924 10.6925 13.1967C10.6968 13.2009 10.701 13.2052 10.7053 13.2095C10.7096 13.2138 10.7139 13.218 10.7181 13.2223C10.7224 13.2266 10.7267 13.2309 10.731 13.2351C10.7352 13.2394 10.7395 13.2437 10.7438 13.248C10.7481 13.2523 10.7524 13.2566 10.7567 13.2608C10.7609 13.2651 10.7652 13.2694 10.7695 13.2737C10.7738 13.278 10.7781 13.2823 10.7824 13.2866C10.7867 13.2909 10.791 13.2951 10.7953 13.2994C10.7996 13.3037 10.8038 13.308 10.8081 13.3123C10.8124 13.3166 10.8167 13.3209 10.821 13.3252C10.8253 13.3295 10.8296 13.3338 10.8339 13.3381C10.8382 13.3424 10.8425 13.3467 10.8468 13.351C10.8511 13.3553 10.8554 13.3596 10.8597 13.3639C10.8641 13.3682 10.8684 13.3725 10.8727 13.3768C10.877 13.3812 10.8813 13.3855 10.8856 13.3898C10.8899 13.3941 10.8942 13.3984 10.8985 13.4027C10.9028 13.407 10.9072 13.4113 10.9115 13.4156C10.9158 13.42 10.9201 13.4243 10.9244 13.4286C10.9287 13.4329 10.9331 13.4372 10.9374 13.4415C10.9417 13.4459 10.946 13.4502 10.9503 13.4545C10.9546 13.4588 10.959 13.4631 10.9633 13.4675C10.9676 13.4718 10.9719 13.4761 10.9763 13.4804C10.9806 13.4848 10.9849 13.4891 10.9892 13.4934C10.9936 13.4977 10.9979 13.5021 11.0022 13.5064C11.0065 13.5107 11.0109 13.5151 11.0152 13.5194C11.0195 13.5237 11.0239 13.528 11.0282 13.5324C11.0325 13.5367 11.0369 13.541 11.0412 13.5454C11.0455 13.5497 11.0499 13.554 11.0542 13.5584C11.0585 13.5627 11.0629 13.567 11.0672 13.5714C11.0715 13.5757 11.0759 13.58 11.0802 13.5844C11.0845 13.5887 11.0889 13.5931 11.0932 13.5974C11.0976 13.6017 11.1019 13.6061 11.1062 13.6104C11.1106 13.6148 11.1149 13.6191 11.1193 13.6234C11.1236 13.6278 11.1279 13.6321 11.1323 13.6365C11.1366 13.6408 11.141 13.6451 11.1453 13.6495C11.1497 13.6538 11.154 13.6582 11.1583 13.6625C11.1627 13.6669 11.167 13.6712 11.1714 13.6755C11.1757 13.6799 11.1801 13.6842 11.1844 13.6886C11.1888 13.6929 11.1931 13.6973 11.1974 13.7016C11.2018 13.706 11.2061 13.7103 11.2105 13.7147C11.2148 13.719 11.2192 13.7234 11.2235 13.7277C11.2279 13.7321 11.2322 13.7364 11.2366 13.7408C11.2409 13.7451 11.2453 13.7494 11.2496 13.7538C11.254 13.7581 11.2583 13.7625 11.2627 13.7668C11.267 13.7712 11.2714 13.7755 11.2757 13.7799C11.2801 13.7842 11.2844 13.7886 11.2888 13.7929C11.2931 13.7973 11.2975 13.8016 11.3018 13.806C11.3062 13.8103 11.3105 13.8147 11.3149 13.8191C11.3192 13.8234 11.3236 13.8278 11.3279 13.8321C11.3323 13.8365 11.3366 13.8408 11.341 13.8452C11.3453 13.8495 11.3497 13.8539 11.354 13.8582C11.3584 13.8626 11.3627 13.8669 11.3671 13.8713C11.3714 13.8756 11.3758 13.88 11.3801 13.8843C11.3845 13.8887 11.3888 13.893 11.3932 13.8974C11.3975 13.9017 11.4019 13.9061 11.4062 13.9104C11.4106 13.9148 11.415 13.9191 11.4193 13.9235C11.4237 13.9278 11.428 13.9322 11.4324 13.9365C11.4367 13.9409 11.4411 13.9452 11.4454 13.9496C11.4498 13.9539 11.4541 13.9583 11.4585 13.9626C11.4628 13.967 11.4672 13.9713 11.4715 13.9757C11.4759 13.98 11.4802 13.9844 11.4846 13.9887C11.4889 13.9931 11.4932 13.9974 11.4976 14.0018C11.5019 14.0061 11.5063 14.0105 11.5106 14.0148C11.515 14.0192 11.5193 14.0235 11.5237 14.0279C11.528 14.0322 11.5324 14.0366 11.5367 14.0409C11.5411 14.0452 11.5454 14.0496 11.5498 14.0539C11.5541 14.0583 11.5584 14.0626 11.5628 14.067C11.5671 14.0713 11.5715 14.0757 11.5758 14.08C11.5802 14.0843 11.5845 14.0887 11.5889 14.093C11.5932 14.0974 11.5975 14.1017 11.6019 14.1061C11.6062 14.1104 11.6106 14.1147 11.6149 14.1191C11.6192 14.1234 11.6236 14.1278 11.6279 14.1321C11.6323 14.1364 11.6366 14.1408 11.6409 14.1451C11.6453 14.1494 11.6496 14.1538 11.6539 14.1581C11.6583 14.1625 11.6626 14.1668 11.6669 14.1711C11.6713 14.1755 11.6756 14.1798 11.6799 14.1841C11.6843 14.1885 11.6886 14.1928 11.6929 14.1971C11.6973 14.2015 11.7016 14.2058 11.7059 14.2101C11.7103 14.2144 11.7146 14.2188 11.7189 14.2231C11.7233 14.2274 11.7276 14.2318 11.7319 14.2361C11.7362 14.2404 11.7406 14.2447 11.7449 14.2491C11.7492 14.2534 11.7535 14.2577 11.7579 14.262C11.7622 14.2664 11.7665 14.2707 11.7708 14.275C11.7751 14.2793 11.7795 14.2836 11.7838 14.288C11.7881 14.2923 11.7924 14.2966 11.7967 14.3009C11.8011 14.3052 11.8054 14.3096 11.8097 14.3139C11.814 14.3182 11.8183 14.3225 11.8226 14.3268C11.8269 14.3311 11.8313 14.3354 11.8356 14.3397C11.8399 14.3441 11.8442 14.3484 11.8485 14.3527C11.8528 14.357 11.8571 14.3613 11.8614 14.3656C11.8657 14.3699 11.87 14.3742 11.8743 14.3785C11.8786 14.3828 11.8829 14.3871 11.8872 14.3914C11.8915 14.3957 11.8958 14.4 11.9001 14.4043C11.9044 14.4086 11.9087 14.4129 11.913 14.4172C11.9173 14.4215 11.9216 14.4258 11.9259 14.4301C11.9302 14.4344 11.9345 14.4387 11.9388 14.443C11.9431 14.4473 11.9474 14.4516 11.9517 14.4559C11.956 14.4601 11.9602 14.4644 11.9645 14.4687C11.9688 14.473 11.9731 14.4773 11.9774 14.4816C11.9817 14.4858 11.986 14.4901 11.9902 14.4944C11.9945 14.4987 11.9988 14.503 12.0031 14.5072C12.0073 14.5115 12.0116 14.5158 12.0159 14.5201C12.0202 14.5243 12.0244 14.5286 12.0287 14.5329C12.033 14.5372 12.0372 14.5414 12.0415 14.5457C12.0458 14.55 12.05 14.5542 12.0543 14.5585C12.0586 14.5628 12.0628 14.567 12.0671 14.5713C12.0714 14.5755 12.0756 14.5798 12.0799 14.5841C12.0841 14.5883 12.0884 14.5926 12.0926 14.5968C12.0969 14.6011 12.1012 14.6053 12.1054 14.6096C12.1097 14.6138 12.1139 14.6181 12.1182 14.6223C12.1224 14.6266 12.1266 14.6308 12.1309 14.6351C12.1351 14.6393 12.1394 14.6436 12.1436 14.6478C12.1479 14.652 12.1521 14.6563 12.1563 14.6605C12.1606 14.6647 12.1648 14.669 12.169 14.6732C12.1733 14.6774 12.1775 14.6817 12.1817 14.6859C12.1859 14.6901 12.1902 14.6944 12.1944 14.6986C12.1986 14.7028 12.2028 14.707 12.2071 14.7112C12.2113 14.7155 12.2155 14.7197 12.2197 14.7239C12.2239 14.7281 12.2282 14.7323 12.2324 14.7365C12.2366 14.7408 12.2408 14.745 12.245 14.7492C12.2492 14.7534 12.2534 14.7576 12.2576 14.7618C12.2618 14.766 12.266 14.7702 12.2702 14.7744C12.2744 14.7786 12.2786 14.7828 12.2828 14.787C12.287 14.7912 12.2912 14.7954 12.2954 14.7996C12.2996 14.8038 12.3038 14.808 12.308 14.8121C12.3121 14.8163 12.3163 14.8205 12.3205 14.8247C12.3247 14.8289 12.3289 14.8331 12.3331 14.8372C12.3372 14.8414 12.3414 14.8456 12.3456 14.8498C12.3497 14.8539 12.3539 14.8581 12.3581 14.8623C12.3623 14.8664 12.3664 14.8706 12.3706 14.8748C12.3747 14.8789 12.3789 14.8831 12.3831 14.8872C12.3872 14.8914 12.3914 14.8956 12.3955 14.8997C12.3997 14.9039 12.4038 14.908 12.408 14.9122C12.4121 14.9163 12.4163 14.9205 12.4204 14.9246C12.4246 14.9287 12.4287 14.9329 12.4329 14.937C12.437 14.9412 12.4411 14.9453 12.4453 14.9494C12.4494 14.9536 12.4535 14.9577 12.4577 14.9618C12.4618 14.966 12.4659 14.9701 12.47 14.9742C12.4742 14.9783 12.4783 14.9824 12.4824 14.9866C12.4865 14.9907 12.4906 14.9948 12.4947 14.9989C12.4988 15.003 12.503 15.0071 12.5071 15.0112C12.5112 15.0153 12.5153 15.0195 12.5194 15.0236C12.5235 15.0277 12.5276 15.0318 12.5317 15.0358C12.5358 15.0399 12.5399 15.044 12.5439 15.0481C12.548 15.0522 12.5521 15.0563 12.5562 15.0604C12.5603 15.0645 12.5644 15.0686 12.5685 15.0726C12.5725 15.0767 12.5766 15.0808 12.5807 15.0849C12.5848 15.0889 12.5888 15.093 12.5929 15.0971C12.597 15.1011 12.601 15.1052 12.6051 15.1093C12.6091 15.1133 12.6132 15.1174 12.6173 15.1214C12.6213 15.1255 12.6254 15.1295 12.6294 15.1336C12.6335 15.1376 12.6375 15.1417 12.6415 15.1457C12.6456 15.1498 12.6496 15.1538 12.6537 15.1578C12.6577 15.1619 12.6617 15.1659 12.6658 15.1699C12.6698 15.174 12.6738 15.178 12.6778 15.182C12.6819 15.1861 12.6859 15.1901 12.6899 15.1941C12.6939 15.1981 12.6979 15.2021 12.702 15.2061C12.706 15.2101 12.71 15.2142 12.714 15.2182C12.718 15.2222 12.722 15.2262 12.726 15.2302C12.73 15.2342 12.734 15.2382 12.738 15.2421C12.742 15.2461 12.7459 15.2501 12.7499 15.2541C12.7539 15.2581 12.7579 15.2621 12.7619 15.2661C12.7659 15.27 12.7698 15.274 12.7738 15.278C12.7778 15.282 12.7817 15.2859 12.7857 15.2899C12.7897 15.2938 12.7936 15.2978 12.7976 15.3018C12.8015 15.3057 12.8055 15.3097 12.8095 15.3136C12.8134 15.3176 12.8173 15.3215 12.8213 15.3255C12.8252 15.3294 12.8292 15.3334 12.8331 15.3373C12.837 15.3412 12.841 15.3452 12.8449 15.3491C12.8488 15.353 12.8528 15.3569 12.8567 15.3609C12.8606 15.3648 12.8645 15.3687 12.8684 15.3726C12.8724 15.3765 12.8763 15.3804 12.8802 15.3844C12.8841 15.3883 12.888 15.3922 12.8919 15.3961C12.8958 15.4 12.8997 15.4039 12.9036 15.4078C12.9075 15.4116 12.9114 15.4155 12.9152 15.4194C12.9191 15.4233 12.923 15.4272 12.9269 15.4311C12.9308 15.4349 12.9346 15.4388 12.9385 15.4427C12.9424 15.4466 12.9462 15.4504 12.9501 15.4543C12.954 15.4581 12.9578 15.462 12.9617 15.4659C12.9655 15.4697 12.9694 15.4736 12.9732 15.4774C12.9771 15.4813 12.9809 15.4851 12.9848 15.4889C12.9886 15.4928 12.9924 15.4966 12.9963 15.5004C13.0001 15.5043 13.0039 15.5081 13.0077 15.5119C13.0116 15.5157 13.0154 15.5196 13.0192 15.5234C13.023 15.5272 13.0268 15.531 13.0306 15.5348C13.0344 15.5386 13.0382 15.5424 13.042 15.5462C13.0458 15.55 13.0496 15.5538 13.0534 15.5576L15.1902 13.4208C15.1864 13.417 15.1826 13.4132 15.1788 13.4094C15.175 13.4056 15.1712 13.4018 15.1674 13.398C15.1636 13.3942 15.1598 13.3904 15.156 13.3866C15.1522 13.3828 15.1483 13.379 15.1445 13.3751C15.1407 13.3713 15.1369 13.3675 15.133 13.3637C15.1292 13.3598 15.1254 13.356 15.1215 13.3522C15.1177 13.3483 15.1139 13.3445 15.11 13.3406C15.1062 13.3368 15.1023 13.3329 15.0985 13.3291C15.0946 13.3252 15.0907 13.3214 15.0869 13.3175C15.083 13.3136 15.0792 13.3098 15.0753 13.3059C15.0714 13.302 15.0675 13.2982 15.0637 13.2943C15.0598 13.2904 15.0559 13.2865 15.052 13.2826C15.0481 13.2788 15.0442 13.2749 15.0404 13.271C15.0365 13.2671 15.0326 13.2632 15.0287 13.2593C15.0248 13.2554 15.0209 13.2515 15.017 13.2476C15.013 13.2437 15.0091 13.2398 15.0052 13.2358C15.0013 13.2319 14.9974 13.228 14.9935 13.2241C14.9895 13.2202 14.9856 13.2162 14.9817 13.2123C14.9778 13.2084 14.9738 13.2045 14.9699 13.2005C14.966 13.1966 14.962 13.1926 14.9581 13.1887C14.9541 13.1848 14.9502 13.1808 14.9462 13.1769C14.9423 13.1729 14.9383 13.169 14.9344 13.165C14.9304 13.161 14.9264 13.1571 14.9225 13.1531C14.9185 13.1491 14.9145 13.1452 14.9106 13.1412C14.9066 13.1372 14.9026 13.1333 14.8987 13.1293C14.8947 13.1253 14.8907 13.1213 14.8867 13.1173C14.8827 13.1134 14.8787 13.1094 14.8747 13.1054C14.8708 13.1014 14.8668 13.0974 14.8628 13.0934C14.8588 13.0894 14.8548 13.0854 14.8508 13.0814C14.8467 13.0774 14.8427 13.0734 14.8387 13.0694C14.8347 13.0653 14.8307 13.0613 14.8267 13.0573C14.8227 13.0533 14.8186 13.0493 14.8146 13.0453C14.8106 13.0412 14.8066 13.0372 14.8025 13.0332C14.7985 13.0291 14.7945 13.0251 14.7904 13.0211C14.7864 13.017 14.7824 13.013 14.7783 13.009C14.7743 13.0049 14.7702 13.0009 14.7662 12.9968C14.7621 12.9928 14.7581 12.9887 14.754 12.9847C14.75 12.9806 14.7459 12.9765 14.7419 12.9725C14.7378 12.9684 14.7337 12.9644 14.7297 12.9603C14.7256 12.9562 14.7215 12.9522 14.7175 12.9481C14.7134 12.944 14.7093 12.9399 14.7052 12.9359C14.7011 12.9318 14.6971 12.9277 14.693 12.9236C14.6889 12.9195 14.6848 12.9154 14.6807 12.9114C14.6766 12.9073 14.6725 12.9032 14.6684 12.8991C14.6643 12.895 14.6602 12.8909 14.6561 12.8868C14.652 12.8827 14.6479 12.8786 14.6438 12.8745C14.6397 12.8704 14.6356 12.8662 14.6315 12.8621C14.6274 12.858 14.6233 12.8539 14.6192 12.8498C14.615 12.8457 14.6109 12.8416 14.6068 12.8374C14.6027 12.8333 14.5986 12.8292 14.5944 12.8251C14.5903 12.8209 14.5862 12.8168 14.582 12.8127C14.5779 12.8085 14.5738 12.8044 14.5696 12.8003C14.5655 12.7961 14.5613 12.792 14.5572 12.7878C14.5531 12.7837 14.5489 12.7795 14.5448 12.7754C14.5406 12.7712 14.5365 12.7671 14.5323 12.7629C14.5282 12.7588 14.524 12.7546 14.5198 12.7505C14.5157 12.7463 14.5115 12.7422 14.5074 12.738C14.5032 12.7338 14.499 12.7297 14.4949 12.7255C14.4907 12.7213 14.4865 12.7172 14.4824 12.713C14.4782 12.7088 14.474 12.7046 14.4698 12.7005C14.4656 12.6963 14.4615 12.6921 14.4573 12.6879C14.4531 12.6837 14.4489 12.6795 14.4447 12.6754C14.4405 12.6712 14.4364 12.667 14.4322 12.6628C14.428 12.6586 14.4238 12.6544 14.4196 12.6502C14.4154 12.646 14.4112 12.6418 14.407 12.6376C14.4028 12.6334 14.3986 12.6292 14.3944 12.625C14.3902 12.6208 14.386 12.6166 14.3818 12.6124C14.3776 12.6082 14.3734 12.604 14.3691 12.5998C14.3649 12.5956 14.3607 12.5913 14.3565 12.5871C14.3523 12.5829 14.3481 12.5787 14.3438 12.5745C14.3396 12.5702 14.3354 12.566 14.3312 12.5618C14.3269 12.5576 14.3227 12.5534 14.3185 12.5491C14.3143 12.5449 14.31 12.5407 14.3058 12.5364C14.3016 12.5322 14.2973 12.528 14.2931 12.5237C14.2889 12.5195 14.2846 12.5153 14.2804 12.511C14.2761 12.5068 14.2719 12.5025 14.2677 12.4983C14.2634 12.494 14.2592 12.4898 14.2549 12.4856C14.2507 12.4813 14.2464 12.4771 14.2422 12.4728C14.2379 12.4686 14.2337 12.4643 14.2294 12.4601C14.2252 12.4558 14.2209 12.4515 14.2167 12.4473C14.2124 12.443 14.2081 12.4388 14.2039 12.4345C14.1996 12.4302 14.1954 12.426 14.1911 12.4217C14.1868 12.4175 14.1826 12.4132 14.1783 12.4089C14.174 12.4047 14.1698 12.4004 14.1655 12.3961C14.1612 12.3918 14.1569 12.3876 14.1527 12.3833C14.1484 12.379 14.1441 12.3747 14.1398 12.3705C14.1356 12.3662 14.1313 12.3619 14.127 12.3576C14.1227 12.3534 14.1184 12.3491 14.1142 12.3448C14.1099 12.3405 14.1056 12.3362 14.1013 12.3319C14.097 12.3277 14.0927 12.3234 14.0884 12.3191C14.0842 12.3148 14.0799 12.3105 14.0756 12.3062C14.0713 12.3019 14.067 12.2976 14.0627 12.2933C14.0584 12.289 14.0541 12.2847 14.0498 12.2804C14.0455 12.2761 14.0412 12.2719 14.0369 12.2676C14.0326 12.2633 14.0283 12.259 14.024 12.2547C14.0197 12.2503 14.0154 12.246 14.0111 12.2417C14.0068 12.2374 14.0025 12.2331 13.9982 12.2288C13.9939 12.2245 13.9896 12.2202 13.9853 12.2159C13.981 12.2116 13.9767 12.2073 13.9723 12.203C13.968 12.1987 13.9637 12.1944 13.9594 12.19C13.9551 12.1857 13.9508 12.1814 13.9465 12.1771C13.9422 12.1728 13.9378 12.1685 13.9335 12.1641C13.9292 12.1598 13.9249 12.1555 13.9206 12.1512C13.9162 12.1469 13.9119 12.1426 13.9076 12.1382C13.9033 12.1339 13.899 12.1296 13.8946 12.1253C13.8903 12.1209 13.886 12.1166 13.8817 12.1123C13.8773 12.108 13.873 12.1036 13.8687 12.0993C13.8644 12.095 13.86 12.0907 13.8557 12.0863C13.8514 12.082 13.847 12.0777 13.8427 12.0733C13.8384 12.069 13.8341 12.0647 13.8297 12.0603C13.8254 12.056 13.8211 12.0517 13.8167 12.0474C13.8124 12.043 13.8081 12.0387 13.8037 12.0344C13.7994 12.03 13.7951 12.0257 13.7907 12.0213C13.7864 12.017 13.782 12.0127 13.7777 12.0083C13.7734 12.004 13.769 11.9997 13.7647 11.9953C13.7604 11.991 13.756 11.9866 13.7517 11.9823C13.7473 11.978 13.743 11.9736 13.7387 11.9693C13.7343 11.9649 13.73 11.9606 13.7256 11.9563C13.7213 11.9519 13.7169 11.9476 13.7126 11.9432C13.7083 11.9389 13.7039 11.9345 13.6996 11.9302C13.6952 11.9259 13.6909 11.9215 13.6865 11.9172C13.6822 11.9128 13.6778 11.9085 13.6735 11.9041C13.6691 11.8998 13.6648 11.8954 13.6605 11.8911C13.6561 11.8867 13.6518 11.8824 13.6474 11.878C13.6431 11.8737 13.6387 11.8693 13.6344 11.865C13.63 11.8607 13.6257 11.8563 13.6213 11.852C13.617 11.8476 13.6126 11.8433 13.6083 11.8389C13.6039 11.8346 13.5996 11.8302 13.5952 11.8259C13.5909 11.8215 13.5865 11.8172 13.5822 11.8128C13.5778 11.8085 13.5735 11.8041 13.5691 11.7998C13.5648 11.7954 13.5604 11.7911 13.5561 11.7867C13.5517 11.7824 13.5474 11.778 13.543 11.7737C13.5387 11.7693 13.5343 11.765 13.53 11.7606C13.5256 11.7562 13.5213 11.7519 13.5169 11.7475C13.5126 11.7432 13.5082 11.7388 13.5039 11.7345C13.4995 11.7301 13.4952 11.7258 13.4908 11.7214C13.4865 11.7171 13.4821 11.7127 13.4778 11.7084C13.4734 11.704 13.4691 11.6997 13.4647 11.6953C13.4603 11.691 13.456 11.6866 13.4516 11.6823C13.4473 11.6779 13.4429 11.6736 13.4386 11.6692C13.4342 11.6649 13.4299 11.6605 13.4255 11.6562C13.4212 11.6518 13.4168 11.6475 13.4125 11.6431C13.4081 11.6388 13.4038 11.6344 13.3994 11.6301C13.3951 11.6257 13.3907 11.6214 13.3864 11.617C13.382 11.6127 13.3777 11.6083 13.3733 11.604C13.369 11.5996 13.3647 11.5953 13.3603 11.5909C13.356 11.5866 13.3516 11.5822 13.3473 11.5779C13.3429 11.5735 13.3386 11.5692 13.3342 11.5648C13.3299 11.5605 13.3255 11.5562 13.3212 11.5518C13.3168 11.5475 13.3125 11.5431 13.3081 11.5388C13.3038 11.5344 13.2995 11.5301 13.2951 11.5257C13.2908 11.5214 13.2864 11.5171 13.2821 11.5127C13.2777 11.5084 13.2734 11.504 13.2691 11.4997C13.2647 11.4953 13.2604 11.491 13.256 11.4867C13.2517 11.4823 13.2474 11.478 13.243 11.4736C13.2387 11.4693 13.2343 11.465 13.23 11.4606C13.2257 11.4563 13.2213 11.4519 13.217 11.4476C13.2126 11.4433 13.2083 11.4389 13.204 11.4346C13.1996 11.4303 13.1953 11.4259 13.191 11.4216C13.1866 11.4173 13.1823 11.4129 13.178 11.4086C13.1736 11.4043 13.1693 11.3999 13.165 11.3956C13.1606 11.3913 13.1563 11.3869 13.152 11.3826C13.1477 11.3783 13.1433 11.374 13.139 11.3696C13.1347 11.3653 13.1303 11.361 13.126 11.3566C13.1217 11.3523 13.1174 11.348 13.113 11.3437C13.1087 11.3393 13.1044 11.335 13.1001 11.3307C13.0957 11.3264 13.0914 11.3221 13.0871 11.3177C13.0828 11.3134 13.0785 11.3091 13.0741 11.3048C13.0698 11.3005 13.0655 11.2961 13.0612 11.2918C13.0569 11.2875 13.0526 11.2832 13.0482 11.2789C13.0439 11.2746 13.0396 11.2702 13.0353 11.2659C13.031 11.2616 13.0267 11.2573 13.0224 11.253C13.0181 11.2487 13.0138 11.2444 13.0094 11.2401C13.0051 11.2358 13.0008 11.2315 12.9965 11.2272C12.9922 11.2228 12.9879 11.2185 12.9836 11.2142C12.9793 11.2099 12.975 11.2056 12.9707 11.2013C12.9664 11.197 12.9621 11.1927 12.9578 11.1884C12.9535 11.1841 12.9492 11.1798 12.9449 11.1755C12.9406 11.1712 12.9363 11.167 12.932 11.1627C12.9277 11.1584 12.9234 11.1541 12.9192 11.1498C12.9149 11.1455 12.9106 11.1412 12.9063 11.1369C12.902 11.1326 12.8977 11.1283 12.8934 11.1241C12.8891 11.1198 12.8849 11.1155 12.8806 11.1112C12.8763 11.1069 12.872 11.1027 12.8677 11.0984C12.8635 11.0941 12.8592 11.0898 12.8549 11.0855C12.8506 11.0813 12.8464 11.077 12.8421 11.0727C12.8378 11.0684 12.8335 11.0642 12.8293 11.0599C12.825 11.0556 12.8207 11.0514 12.8165 11.0471C12.8122 11.0428 12.8079 11.0386 12.8037 11.0343C12.7994 11.03 12.7952 11.0258 12.7909 11.0215C12.7866 11.0173 12.7824 11.013 12.7781 11.0087C12.7739 11.0045 12.7696 11.0002 12.7654 10.996C12.7611 10.9917 12.7569 10.9875 12.7526 10.9832C12.7484 10.979 12.7441 10.9747 12.7399 10.9705C12.7356 10.9662 12.7314 10.962 12.7271 10.9578C12.7229 10.9535 12.7186 10.9493 12.7144 10.945C12.7102 10.9408 12.7059 10.9366 12.7017 10.9323C12.6975 10.9281 12.6932 10.9239 12.689 10.9196C12.6848 10.9154 12.6805 10.9112 12.6763 10.9069C12.6721 10.9027 12.6679 10.8985 12.6636 10.8943C12.6594 10.89 12.6552 10.8858 12.651 10.8816C12.6468 10.8774 12.6425 10.8732 12.6383 10.8689C12.6341 10.8647 12.6299 10.8605 12.6257 10.8563C12.6215 10.8521 12.6173 10.8479 12.6131 10.8437C12.6088 10.8395 12.6046 10.8353 12.6004 10.8311C12.5962 10.8269 12.592 10.8227 12.5878 10.8185C12.5836 10.8143 12.5794 10.8101 12.5753 10.8059C12.5711 10.8017 12.5669 10.7975 12.5627 10.7933C12.5585 10.7891 12.5543 10.7849 12.5501 10.7807C12.5459 10.7766 12.5417 10.7724 12.5376 10.7682C12.5334 10.764 12.5292 10.7598 12.525 10.7557C12.5209 10.7515 12.5167 10.7473 12.5125 10.7431C12.5083 10.739 12.5042 10.7348 12.5 10.7306C12.4958 10.7265 12.4917 10.7223 12.4875 10.7181C12.4834 10.714 12.4792 10.7098 12.475 10.7057C12.4709 10.7015 12.4667 10.6974 12.4626 10.6932C12.4584 10.6891 12.4543 10.6849 12.4501 10.6808C12.446 10.6766 12.4418 10.6725 12.4377 10.6683C12.4336 10.6642 12.4294 10.66 12.4253 10.6559C12.4211 10.6518 12.417 10.6476 12.4129 10.6435C12.4087 10.6394 12.4046 10.6352 12.4005 10.6311C12.3964 10.627 12.3922 10.6229 12.3881 10.6187C12.384 10.6146 12.3799 10.6105 12.3758 10.6064C12.3716 10.6023 12.3675 10.5982 12.3634 10.5941C12.3593 10.5899 12.3552 10.5858 12.3511 10.5817C12.347 10.5776 12.3429 10.5735 12.3388 10.5694C12.3347 10.5653 12.3306 10.5612 12.3265 10.5571C12.3224 10.553 12.3183 10.5489 12.3142 10.5449C12.3101 10.5408 12.3061 10.5367 12.302 10.5326C12.2979 10.5285 12.2938 10.5244 12.2897 10.5204C12.2857 10.5163 12.2816 10.5122 12.2775 10.5081C12.2734 10.5041 12.2694 10.5 12.2653 10.4959C12.2613 10.4919 12.2572 10.4878 12.2531 10.4838C12.2491 10.4797 12.245 10.4756 12.241 10.4716C12.2369 10.4675 12.2329 10.4635 12.2288 10.4594C12.2248 10.4554 12.2207 10.4514 12.2167 10.4473C12.2126 10.4433 12.2086 10.4392 12.2046 10.4352C12.2005 10.4312 12.1965 10.4271 12.1925 10.4231C12.1884 10.4191 12.1844 10.4151 12.1804 10.411C12.1764 10.407 12.1724 10.403 12.1683 10.399C12.1643 10.395 12.1603 10.3909 12.1563 10.3869C12.1523 10.3829 12.1483 10.3789 12.1443 10.3749C12.1403 10.3709 12.1363 10.3669 12.1323 10.3629C12.1283 10.3589 12.1243 10.3549 12.1203 10.3509C12.1163 10.347 12.1123 10.343 12.1084 10.339C12.1044 10.335 12.1004 10.331 12.0964 10.3271C12.0924 10.3231 12.0885 10.3191 12.0845 10.3151C12.0805 10.3112 12.0766 10.3072 12.0726 10.3032C12.0686 10.2993 12.0647 10.2953 12.0607 10.2914C12.0568 10.2874 12.0528 10.2835 12.0489 10.2795C12.0449 10.2756 12.041 10.2716 12.037 10.2677C12.0331 10.2637 12.0292 10.2598 12.0252 10.2559C12.0213 10.2519 12.0174 10.248 12.0134 10.2441C12.0095 10.2401 12.0056 10.2362 12.0017 10.2323C11.9978 10.2284 11.9938 10.2245 11.9899 10.2206C11.986 10.2166 11.9821 10.2127 11.9782 10.2088C11.9743 10.2049 11.9704 10.201 11.9665 10.1971C11.9626 10.1932 11.9587 10.1893 11.9548 10.1854C11.9509 10.1816 11.947 10.1777 11.9432 10.1738C11.9393 10.1699 11.9354 10.166 11.9315 10.1622C11.9276 10.1583 11.9238 10.1544 11.9199 10.1505C11.916 10.1467 11.9122 10.1428 11.9083 10.1389C11.9045 10.1351 11.9006 10.1312 11.8968 10.1274C11.8929 10.1235 11.8891 10.1197 11.8852 10.1158C11.8814 10.112 11.8775 10.1082 11.8737 10.1043C11.8699 10.1005 11.866 10.0967 11.8622 10.0928C11.8584 10.089 11.8545 10.0852 11.8507 10.0814C11.8469 10.0775 11.8431 10.0737 11.8393 10.0699C11.8355 10.0661 11.8317 10.0623 11.8279 10.0585C11.8241 10.0547 11.8203 10.0509 11.8165 10.0471C11.8127 10.0433 11.8089 10.0395 11.8051 10.0357C11.8013 10.0319 11.7975 10.0281 11.7937 10.0244C11.79 10.0206 11.7862 10.0168 11.7824 10.013C11.7786 10.0093 11.7749 10.0055 11.7711 10.0017C11.7674 9.99799 11.7636 9.99423 11.7598 9.99047C11.7561 9.98672 11.7523 9.98297 11.7486 9.97923C11.7449 9.97548 11.7411 9.97174 11.7374 9.96801C11.7336 9.96427 11.7299 9.96054 11.7262 9.95681C11.7225 9.95309 11.7187 9.94936 11.715 9.94565C11.7113 9.94193 11.7076 9.93821 11.7039 9.9345C11.7002 9.93079 11.6965 9.92709 11.6928 9.92339C11.6891 9.91969 11.6854 9.91599 11.6817 9.9123C11.678 9.90861 11.6743 9.90492 11.6706 9.90124C11.6669 9.89756 11.6633 9.89388 11.6596 9.89021C11.6559 9.88653 11.6522 9.88286 11.6486 9.8792C11.6449 9.87553 11.6412 9.87187 11.6376 9.86822C11.6339 9.86456 11.6303 9.86091 11.6266 9.85727C11.623 9.85362 11.6194 9.84998 11.6157 9.84634C11.6121 9.84271 11.6084 9.83908 11.6048 9.83545C11.6012 9.83182 11.5976 9.8282 11.594 9.82458C11.5903 9.82096 11.5867 9.81735 11.5831 9.81374C11.5795 9.81013 11.5759 9.80653 11.5723 9.80293C11.5687 9.79933 11.5651 9.79574 11.5615 9.79215C11.5579 9.78856 11.5544 9.78498 11.5508 9.7814C11.5472 9.77782 11.5436 9.77425 11.54 9.77068C11.5365 9.76711 11.5329 9.76354 11.5294 9.75998C11.5258 9.75642 11.5222 9.75287 11.5187 9.74932C11.5151 9.74577 11.5116 9.74222 11.5081 9.73868C11.5045 9.73514 11.501 9.73161 11.4975 9.72808C11.4939 9.72455 11.4904 9.72103 11.4869 9.71751C11.4834 9.71399 11.4798 9.71047 11.4763 9.70696C11.4728 9.70345 11.4693 9.69995 11.4658 9.69645C11.4623 9.69295 11.4588 9.68945 11.4553 9.68597C11.4518 9.68248 11.4484 9.67899 11.4449 9.67551C11.4414 9.67203 11.4379 9.66856 11.4345 9.66509C11.431 9.66162 11.4275 9.65816 11.4241 9.6547C11.4206 9.65124 11.4172 9.64779 11.4137 9.64434C11.4103 9.6409 11.4068 9.63745 11.4034 9.63402C11.4 9.63058 11.3965 9.62715 11.3931 9.62372C11.3897 9.6203 11.3862 9.61688 11.3828 9.61346C11.3794 9.61004 11.376 9.60663 11.3726 9.60323C11.3692 9.59982 11.3658 9.59642 11.3624 9.59303C11.359 9.58964 11.3556 9.58625 11.3522 9.58286C11.3489 9.57948 11.3455 9.5761 11.3421 9.57273C11.3387 9.56936 11.3354 9.56599 11.332 9.56263C11.3286 9.55927 11.3253 9.55591 11.3219 9.55256C11.3186 9.54921 11.3152 9.54587 11.3119 9.54253C11.3086 9.53919 11.3052 9.53586 11.3019 9.53253C11.2986 9.5292 11.2953 9.52588 11.2919 9.52256C11.2886 9.51925 11.2853 9.51593 11.282 9.51263C11.2787 9.50932 11.2754 9.50602 11.2721 9.50273C11.2688 9.49944 11.2655 9.49615 11.2622 9.49286C11.259 9.48958 11.2557 9.4863 11.2524 9.48303C11.2491 9.47976 11.2459 9.4765 11.2426 9.47324C11.2393 9.46998 11.2361 9.46672 11.2328 9.46348C11.2296 9.46023 11.2264 9.45699 11.2231 9.45375C11.2199 9.45051 11.2167 9.44728 11.2134 9.44406C11.2102 9.44083 11.207 9.43761 11.2038 9.4344C11.2006 9.43119 11.1974 9.42798 11.1942 9.42478C11.191 9.42158 11.1878 9.41838 11.1846 9.4152C11.1814 9.41201 11.1782 9.40882 11.175 9.40565C11.1718 9.40247 11.1687 9.3993 11.1655 9.39613C11.1623 9.39297 11.1592 9.38981 11.156 9.38666C11.1529 9.3835 11.1497 9.38036 11.1466 9.37721C11.1434 9.37407 11.1403 9.37094 11.1372 9.36781C11.1341 9.36468 11.1309 9.36156 11.1278 9.35844C11.1247 9.35533 11.1216 9.35222 11.1185 9.34911C11.1154 9.34601 11.1123 9.34291 11.1092 9.33982C11.1061 9.33673 11.103 9.33364 11.0999 9.33056C11.0969 9.32748 11.0938 9.32441 11.0907 9.32134C11.0876 9.31828 11.0846 9.31522 11.0815 9.31216C11.0785 9.30911 11.0754 9.30606 11.0724 9.30302C11.0694 9.29998 11.0663 9.29694 11.0633 9.29392C11.0603 9.29089 11.0572 9.28786 11.0542 9.28485C11.0512 9.28183 11.0482 9.27882 11.0452 9.27582C11.0422 9.27282 11.0392 9.26982 11.0362 9.26683C11.0332 9.26384 11.0302 9.26086 11.0273 9.25788C11.0243 9.2549 11.0213 9.25193 11.0183 9.24897C11.0154 9.246 11.0124 9.24304 11.0095 9.24009C11.0065 9.23714 11.0036 9.2342 11.0006 9.23126C10.9977 9.22832 10.9948 9.22539 10.9918 9.22247C10.9889 9.21954 10.986 9.21662 10.9831 9.21371C10.9802 9.2108 10.9773 9.20789 10.9744 9.205C10.9715 9.2021 10.9686 9.19921 10.9657 9.19632C10.9628 9.19344 10.9599 9.19056 10.9571 9.18769C10.9542 9.18482 10.9513 9.18195 10.9485 9.17909C10.9456 9.17624 10.9428 9.17338 10.9399 9.17054C10.9371 9.1677 10.9342 9.16486 10.9314 9.16203C10.9286 9.1592 10.9257 9.15637 10.9229 9.15356C10.9201 9.15074 10.9173 9.14793 10.9145 9.14513C10.9117 9.14232 10.9089 9.13953 10.9061 9.13674C10.9033 9.13395 10.9005 9.13116 10.8978 9.12839C10.895 9.12561 10.8922 9.12284 10.8895 9.12008C10.8867 9.11732 10.8839 9.11457 10.8812 9.11182C10.8784 9.10907 10.8757 9.10633 10.873 9.1036C10.8702 9.10086 10.8675 9.09814 10.8648 9.09542C10.8621 9.0927 10.8594 9.08999 10.8567 9.08728C10.8539 9.08458 10.8512 9.08188 10.8486 9.07919C10.8459 9.07649 10.8432 9.07381 10.8405 9.07113C10.8378 9.06846 10.8352 9.06579 10.8325 9.06313C10.8298 9.06046 10.8272 9.05781 10.8245 9.05516C10.8219 9.05251 10.8192 9.04987 10.8166 9.04724C10.814 9.0446 10.8113 9.04198 10.8087 9.03936C10.8061 9.03674 10.8035 9.03413 10.8009 9.03152C10.7983 9.02892 10.7957 9.02632 10.7931 9.02373C10.7905 9.02114 10.7879 9.01856 10.7854 9.01599C10.7828 9.01341 10.7802 9.01084 10.7777 9.00828C10.7751 9.00572 10.7725 9.00317 10.77 9.00063C10.7675 8.99808 10.7649 8.99554 10.7624 8.99301C10.7599 8.99048 10.7573 8.98796 10.7548 8.98544C10.7523 8.98293 10.7498 8.98042 10.7473 8.97792C10.7448 8.97542 10.7423 8.97293 10.7398 8.97044C10.7373 8.96796 10.7349 8.96548 10.7324 8.96301C10.7299 8.96054 10.7274 8.95808 10.725 8.95562C10.7225 8.95317 10.7201 8.95072 10.7177 8.94828C10.7152 8.94584 10.7128 8.94341 10.7104 8.94098C10.7079 8.93856 10.7055 8.93614 10.7031 8.93373C10.7007 8.93133 10.6983 8.92892 10.6959 8.92653C10.6935 8.92414 10.6911 8.92175 10.6887 8.91937C10.6864 8.917 10.684 8.91463 10.6816 8.91226C10.6793 8.9099 10.6769 8.90755 10.6746 8.9052C10.6722 8.90285 10.6699 8.90052 10.6676 8.89818C10.6652 8.89585 10.6629 8.89353 10.6606 8.89122C10.6583 8.8889 10.656 8.88659 10.6537 8.88429C10.6514 8.88199 10.6491 8.8797 10.6468 8.87742C10.6445 8.87514 10.6422 8.87286 10.64 8.87059C10.6377 8.86833 10.6354 8.86607 10.6332 8.86382C10.6309 8.86156 10.6287 8.85932 10.6265 8.85709C10.6242 8.85485 10.622 8.85262 10.6198 8.8504C10.6176 8.84819 10.6153 8.84597 10.6131 8.84377C10.6109 8.84157 10.6087 8.83937 10.6066 8.83719C10.6044 8.835 10.6022 8.83282 10.6 8.83065C10.5979 8.82848 10.5957 8.82632 10.5935 8.82416C10.5914 8.82201 10.5892 8.81986 10.5871 8.81773C10.585 8.81559 10.5828 8.81346 10.5807 8.81134C10.5786 8.80922 10.5765 8.80711 10.5744 8.805C10.5723 8.8029 10.5702 8.8008 10.5681 8.79871C10.566 8.79662 10.5639 8.79455 10.5618 8.79247C10.5598 8.7904 10.5577 8.78834 10.5557 8.78629C10.5536 8.78423 10.5516 8.78219 10.5495 8.78015C10.5475 8.77811 10.5455 8.77608 10.5434 8.77406C10.5414 8.77204 10.5394 8.77003 10.5374 8.76802C10.5354 8.76602 10.5334 8.76403 10.5314 8.76204C10.5294 8.76005 10.5274 8.75807 10.5255 8.7561C10.5235 8.75413 10.5215 8.75217 10.5196 8.75022C10.5176 8.74827 10.5157 8.74632 10.5138 8.74439C10.5118 8.74245 10.5099 8.74053 10.508 8.73861C10.5061 8.73669 10.5042 8.73478 10.5023 8.73288C10.5004 8.73098 10.4985 8.72909 10.4966 8.7272C10.4947 8.72532 10.4928 8.72345 10.491 8.72158C10.4891 8.71971 10.4872 8.71786 10.4854 8.71601C10.4835 8.71416 10.4817 8.71232 10.4799 8.71049C10.478 8.70866 10.4762 8.70684 10.4744 8.70502C10.4726 8.70321 10.4708 8.7014 10.469 8.69961C10.4672 8.69781 10.4654 8.69603 10.4636 8.69425C10.4618 8.69247 10.4601 8.6907 10.4583 8.68894C10.4566 8.68718 10.4548 8.68543 10.4531 8.68369C10.4513 8.68195 10.4496 8.68021 10.4479 8.67849C10.4461 8.67676 10.4444 8.67505 10.4427 8.67334C10.441 8.67164 10.4393 8.66994 10.4376 8.66825C10.4359 8.66656 10.4343 8.66488 10.4326 8.66321C10.4309 8.66154 10.4293 8.65988 10.4276 8.65823C10.4259 8.65658 10.4243 8.65493 10.4227 8.6533C10.421 8.65167 10.4194 8.65004 10.4178 8.64843C10.4162 8.64681 10.4146 8.6452 10.413 8.64361C10.4114 8.64201 10.4098 8.64042 10.4082 8.63884C10.4066 8.63726 10.4051 8.63569 10.4035 8.63413C10.4019 8.63257 10.4004 8.63102 10.3989 8.62948C10.3973 8.62794 10.3958 8.62641 10.3943 8.62488C10.3927 8.62336 10.3912 8.62185 10.3897 8.62034C10.3882 8.61884 10.3867 8.61734 10.3852 8.61586C10.3837 8.61437 10.3823 8.61289 10.3808 8.61143C10.3793 8.60996 10.3779 8.6085 10.3764 8.60705C10.375 8.60561 10.3735 8.60417 10.3721 8.60274C10.3707 8.60131 10.3693 8.59989 10.3679 8.59848C10.3664 8.59707 10.365 8.59567 10.3636 8.59428C10.3623 8.59289 10.3609 8.5915 10.3595 8.59013C10.3581 8.58876 10.3568 8.5874 10.3554 8.58604C10.3541 8.58469 10.3527 8.58335 10.3514 8.58201C10.3501 8.58068 10.3487 8.57935 10.3474 8.57804C10.3461 8.57673 10.3448 8.57542 10.3435 8.57413C10.3422 8.57283 10.3409 8.57154 10.3396 8.57027C10.3384 8.56899 10.3371 8.56773 10.3358 8.56647C10.3346 8.56521 10.3333 8.56397 10.3321 8.56273C10.3309 8.56149 10.3296 8.56027 10.3284 8.55905C10.3272 8.55783 10.326 8.55662 10.3248 8.55543C10.3236 8.55423 10.3224 8.55304 10.3212 8.55186C10.3201 8.55069 10.3189 8.54952 10.3177 8.54836C10.3166 8.5472 10.3154 8.54605 10.3143 8.54491C10.3131 8.54378 10.312 8.54265 10.3109 8.54153C10.3098 8.54041 10.3087 8.5393 10.3076 8.5382C10.3065 8.53711 10.3054 8.53602 10.3043 8.53494C10.3032 8.53386 10.3022 8.53279 10.3011 8.53173C10.3 8.53067 10.299 8.52963 10.298 8.52859C10.2969 8.52755 10.2959 8.52652 10.2949 8.5255C10.2939 8.52448 10.2928 8.52348 10.2919 8.52248C10.2909 8.52148 10.2899 8.52049 10.2889 8.51952C10.2879 8.51854 10.2869 8.51757 10.286 8.51661C10.285 8.51566 10.2841 8.51471 10.2831 8.51377C10.2822 8.51284 10.2813 8.51191 10.2804 8.51099C10.2794 8.51008 10.2785 8.50917 10.2776 8.50827C10.2768 8.50738 10.2759 8.50649 10.275 8.50562C10.2741 8.50474 10.2733 8.50388 10.2724 8.50302C10.2715 8.50217 10.2707 8.50133 10.2699 8.50049C10.269 8.49966 10.2682 8.49884 10.2674 8.49802C10.2666 8.49721 10.2658 8.49641 10.265 8.49561C10.2642 8.49482 10.2634 8.49404 10.2626 8.49327C10.2619 8.4925 10.2611 8.49174 10.2604 8.49099C10.2596 8.49024 10.2589 8.4895 10.2581 8.48877C10.2574 8.48804 10.2567 8.48732 10.256 8.48661C10.2553 8.48591 10.2546 8.48521 10.2539 8.48452C10.2532 8.48384 10.2525 8.48316 10.2519 8.48249C10.2512 8.48183 10.2505 8.48117 10.2499 8.48053C10.2493 8.47989 10.2486 8.47925 10.248 8.47863C10.2474 8.47801 10.2468 8.47739 10.2462 8.47679C10.2456 8.47619 10.245 8.4756 10.2444 8.47502C10.2438 8.47444 10.2432 8.47387 10.2427 8.47331C10.2421 8.47275 10.2416 8.47221 10.241 8.47167C10.2405 8.47113 10.24 8.47061 10.2395 8.47009C10.2389 8.46958 10.2384 8.46907 10.2379 8.46858C10.2375 8.46808 10.237 8.4676 10.2365 8.46713C10.236 8.46666 10.2356 8.4662 10.2351 8.46575C10.2347 8.4653 10.2342 8.46486 10.2338 8.46443C10.2334 8.464 10.233 8.46359 10.2326 8.46318C10.2321 8.46278 10.2318 8.46238 10.2314 8.462C10.231 8.46161 10.2306 8.46124 10.2302 8.46088C10.2299 8.46052 10.2295 8.46017 10.2292 8.45983C10.2289 8.45949 10.2285 8.45916 10.2282 8.45884C10.2279 8.45852 10.2276 8.45822 10.2273 8.45792C10.227 8.45763 10.2267 8.45734 10.2264 8.45707C10.2262 8.4568 10.2259 8.45653 10.2257 8.45628C10.2254 8.45603 10.2252 8.45579 10.2249 8.45557C10.2247 8.45534 10.2245 8.45512 10.2243 8.45492C10.2241 8.45471 10.2239 8.45452 10.2237 8.45433C10.2235 8.45415 10.2234 8.45398 10.2232 8.45382C10.223 8.45366 10.2229 8.45351 10.2227 8.45337C10.2226 8.45323 10.2225 8.45311 10.2224 8.45299C10.2223 8.45288 10.2221 8.45278 10.2221 8.45268C10.222 8.45259 10.2219 8.45251 10.2218 8.45244C10.2217 8.45237 10.2217 8.45232 10.2216 8.45227C10.2216 8.45222 10.2216 8.45219 10.2215 8.45217C10.2215 8.45214 10.2215 8.45213 9.15312 9.52052Z" fill="#FAFAFA"/>
</svg>
