<svg width="414" height="144" viewBox="0 0 414 144" fill="none" xmlns="http://www.w3.org/2000/svg">
<path d="M11.6165 35.8179L-7.54195e-05 48.6898L16.9556 52.3141L11.6165 35.8179ZM43.6501 91.3762L44.0179 92.8321L44.0308 92.8287L43.6501 91.3762ZM108.218 106.893L106.755 106.553L106.728 106.672L106.72 106.794L108.218 106.893ZM146.758 135.923L146.006 134.624L146.002 134.626L146.758 135.923ZM206.821 35.8179L205.339 35.5802L205.331 35.6284L205.327 35.677L206.821 35.8179ZM273.391 19.801L272.397 20.9261L272.403 20.9311L273.391 19.801ZM9.54297 38.3357C9.38156 39.1491 9.91013 39.9394 10.7236 40.1008C11.537 40.2622 12.3273 39.7337 12.4887 38.9202L9.54297 38.3357ZM11.5382 44.525C11.6544 43.7039 11.083 42.944 10.2619 42.8278C9.44075 42.7115 8.68088 43.283 8.56464 44.1041L11.5382 44.525ZM7.90336 49.9209C7.83268 50.7472 8.44523 51.4743 9.27151 51.545C10.0978 51.6157 10.8249 51.0031 10.8956 50.1768L7.90336 49.9209ZM10.579 55.8428C10.5998 55.0138 9.94459 54.3249 9.11555 54.3041C8.28652 54.2833 7.59759 54.9385 7.57681 55.7676L10.579 55.8428ZM7.62931 61.6396C7.66662 62.4681 8.36845 63.1094 9.19691 63.0721C10.0254 63.0348 10.6667 62.333 10.6294 61.5045L7.62931 61.6396ZM11.1154 67.1211C11.0071 66.2989 10.2528 65.7202 9.43056 65.8285C8.60837 65.9369 8.02966 66.6912 8.13797 67.5134L11.1154 67.1211ZM9.22211 73.3417C9.42069 74.1469 10.2344 74.6386 11.0396 74.44C11.8447 74.2414 12.3365 73.4277 12.1379 72.6226L9.22211 73.3417ZM13.8403 77.8942C13.5242 77.1275 12.6465 76.7622 11.8798 77.0782C11.1131 77.3943 10.7478 78.2721 11.0639 79.0388L13.8403 77.8942ZM13.9076 84.3926C14.3728 85.0791 15.3064 85.2586 15.993 84.7934C16.6795 84.3282 16.859 83.3945 16.3938 82.708L13.9076 84.3926ZM19.9353 86.7138C19.3055 86.1742 18.3576 86.2474 17.8181 86.8772C17.2785 87.507 17.3517 88.455 17.9815 88.9945L19.9353 86.7138ZM23.2286 92.2821C23.9886 92.6138 24.8737 92.2666 25.2054 91.5065C25.5371 90.7465 25.1899 89.8614 24.4298 89.5297L23.2286 92.2821ZM29.5719 90.9814C28.7519 90.858 27.987 91.4228 27.8636 92.2429C27.7403 93.0629 28.305 93.8278 29.1251 93.9512L29.5719 90.9814ZM35.1655 94.2242C35.9938 94.1837 36.6325 93.4794 36.592 92.6511C36.5515 91.8228 35.8472 91.1842 35.0189 91.2246L35.1655 94.2242ZM40.5304 90.5364C39.7162 90.6941 39.1842 91.4821 39.342 92.2962C39.4998 93.1104 40.2877 93.6424 41.1018 93.4846L40.5304 90.5364ZM46.719 92.1502C47.5248 91.9542 48.0192 91.1421 47.8233 90.3363C47.6274 89.5305 46.8153 89.0361 46.0095 89.232L46.719 92.1502ZM51.5304 87.9854C50.7187 88.1551 50.1982 88.9507 50.3679 89.7624C50.5376 90.5742 51.3332 91.0947 52.1449 90.925L51.5304 87.9854ZM57.6126 89.8712C58.4293 89.7271 58.9745 88.9482 58.8304 88.1315C58.6863 87.3149 57.9075 86.7696 57.0908 86.9137L57.6126 89.8712ZM62.6852 86.0201C61.8642 86.1372 61.2936 86.8977 61.4108 87.7187C61.528 88.5397 62.2885 89.1102 63.1094 88.9931L62.6852 86.0201ZM68.6275 88.3059C69.4522 88.2188 70.0501 87.4796 69.963 86.6549C69.8758 85.8302 69.1367 85.2323 68.3119 85.3194L68.6275 88.3059ZM73.9698 84.8394C73.1421 84.8914 72.5133 85.6046 72.5654 86.4322C72.6174 87.2599 73.3305 87.8887 74.1582 87.8366L73.9698 84.8394ZM79.6899 87.6275C80.5191 87.6185 81.1841 86.9389 81.1751 86.1097C81.1661 85.2804 80.4865 84.6155 79.6573 84.6245L79.6899 87.6275ZM85.371 84.745C84.5431 84.6985 83.8341 85.332 83.7876 86.16C83.7411 86.988 84.3746 87.6969 85.2025 87.7435L85.371 84.745ZM90.6532 88.2871C91.4734 88.4096 92.2376 87.8439 92.3601 87.0237C92.4826 86.2035 91.9169 85.4393 91.0967 85.3169L90.6532 88.2871ZM96.7811 86.5392C95.9852 86.306 95.151 86.7622 94.9179 87.558C94.6847 88.3538 95.1408 89.188 95.9367 89.4212L96.7811 86.5392ZM100.82 91.4039C101.545 91.8063 102.459 91.5446 102.861 90.8195C103.264 90.0944 103.002 89.1803 102.277 88.7779L100.82 91.4039ZM107.05 92.6126C106.516 91.9778 105.569 91.8958 104.934 92.4294C104.299 92.963 104.217 93.9102 104.751 94.5451L107.05 92.6126ZM106.951 98.893C107.148 99.6985 107.961 100.191 108.766 99.9941C109.572 99.7967 110.065 98.9837 109.868 98.1782L106.951 98.893ZM110.191 104.281C110.281 103.456 109.686 102.715 108.862 102.624C108.037 102.534 107.296 103.128 107.205 103.953L110.191 104.281ZM106.59 110.145C106.579 110.975 107.243 111.655 108.072 111.666C108.901 111.677 109.582 111.013 109.593 110.184L106.59 110.145ZM109.837 116.578C109.762 115.752 109.032 115.143 108.206 115.218C107.38 115.292 106.771 116.023 106.846 116.849L109.837 116.578ZM107.842 123.511C108.016 124.322 108.815 124.838 109.625 124.664C110.436 124.49 110.952 123.691 110.778 122.881L107.842 123.511ZM112.573 128.922C112.268 128.151 111.396 127.773 110.625 128.078C109.854 128.383 109.476 129.256 109.781 130.027L112.573 128.922ZM113.056 136.116C113.543 136.788 114.482 136.937 115.153 136.451C115.824 135.964 115.974 135.025 115.487 134.353L113.056 136.116ZM119.775 138.49C119.077 138.043 118.148 138.246 117.701 138.945C117.254 139.643 117.457 140.572 118.156 141.019L119.775 138.49ZM124.831 143.508C125.651 143.633 126.417 143.07 126.542 142.25C126.667 141.43 126.104 140.664 125.284 140.539L124.831 143.508ZM131.339 140.44C130.52 140.572 129.963 141.343 130.095 142.161C130.227 142.98 130.998 143.537 131.817 143.405L131.339 140.44ZM138.435 141.608C139.212 141.319 139.608 140.454 139.319 139.677C139.031 138.9 138.166 138.504 137.389 138.793L138.435 141.608ZM143.188 136.183C142.453 136.567 142.168 137.474 142.552 138.209C142.936 138.944 143.843 139.229 144.578 138.845L143.188 136.183ZM150.129 135.62C150.826 135.171 151.028 134.242 150.579 133.544C150.13 132.847 149.201 132.645 148.504 133.094L150.129 135.62ZM153.385 129.691C152.721 130.188 152.585 131.129 153.082 131.793C153.579 132.457 154.52 132.593 155.184 132.096L153.385 129.691ZM159.97 128.295C160.605 127.762 160.687 126.815 160.154 126.18C159.621 125.544 158.674 125.462 158.038 125.995L159.97 128.295ZM162.508 122.047C161.9 122.611 161.865 123.561 162.429 124.169C162.993 124.777 163.943 124.812 164.551 124.248L162.508 122.047ZM168.934 119.988C169.515 119.397 169.507 118.446 168.915 117.865C168.324 117.283 167.373 117.291 166.792 117.883L168.934 119.988ZM170.884 113.531C170.329 114.148 170.379 115.097 170.996 115.652C171.612 116.206 172.562 116.156 173.116 115.54L170.884 113.531ZM177.095 110.921C177.622 110.281 177.532 109.335 176.892 108.807C176.252 108.28 175.306 108.371 174.778 109.011L177.095 110.921ZM178.482 104.318C177.982 104.98 178.114 105.921 178.775 106.421C179.437 106.921 180.379 106.789 180.879 106.128L178.482 104.318ZM184.451 101.182C184.922 100.499 184.75 99.5639 184.068 99.0928C183.385 98.6217 182.45 98.7932 181.979 99.4757L184.451 101.182ZM185.266 94.4872C184.825 95.1893 185.036 96.1163 185.738 96.5576C186.441 96.999 187.367 96.7876 187.809 96.0854L185.266 94.4872ZM190.944 90.8499C191.355 90.1294 191.103 89.2124 190.383 88.8019C189.662 88.3913 188.745 88.6426 188.335 89.3632L190.944 90.8499ZM191.179 84.1075C190.801 84.8453 191.092 85.7504 191.83 86.1291C192.567 86.5077 193.472 86.2166 193.851 85.4788L191.179 84.1075ZM196.516 79.9925C196.862 79.2387 196.531 78.3474 195.777 78.0016C195.024 77.6558 194.132 77.9865 193.786 78.7403L196.516 79.9925ZM196.157 73.2539C195.845 74.0224 196.215 74.8981 196.984 75.21C197.752 75.5219 198.628 75.1518 198.94 74.3833L196.157 73.2539ZM201.108 68.6783C201.385 67.8967 200.976 67.0384 200.194 66.7613C199.413 66.4841 198.554 66.8931 198.277 67.6747L201.108 68.6783ZM200.144 62.0074C199.902 62.8008 200.35 63.6398 201.143 63.8814C201.936 64.123 202.775 63.6758 203.017 62.8825L200.144 62.0074ZM204.664 57.0002C204.87 56.1968 204.385 55.3788 203.582 55.1733C202.779 54.9677 201.961 55.4524 201.755 56.2558L204.664 57.0002ZM203.105 50.4332C202.936 51.2451 203.457 52.0403 204.269 52.2094C205.081 52.3785 205.876 51.8574 206.046 51.0456L203.105 50.4332ZM207.155 45.0495C207.287 44.2308 206.731 43.4597 205.912 43.3272C205.094 43.1947 204.323 43.7509 204.19 44.5695L207.155 45.0495ZM205.012 38.6588C204.916 39.4825 205.506 40.2281 206.33 40.3242C207.154 40.4202 207.899 39.8303 207.995 39.0066L205.012 38.6588ZM208.81 33.3236C208.98 32.5119 208.459 31.716 207.648 31.546C206.836 31.376 206.04 31.8961 205.87 32.7078L208.81 33.3236ZM207.336 27.0368C207.091 27.8292 207.535 28.6698 208.327 28.9144C209.12 29.159 209.96 28.7149 210.205 27.9225L207.336 27.0368ZM212.103 22.6921C212.425 21.9278 212.066 21.0473 211.302 20.7253C210.538 20.4034 209.657 20.762 209.335 21.5262L212.103 22.6921ZM211.92 16.2377C211.513 16.9598 211.768 17.8758 212.49 18.2836C213.212 18.6914 214.128 18.4366 214.536 17.7145L211.92 16.2377ZM217.558 13.1211C218.064 12.4637 217.941 11.521 217.283 11.0155C216.626 10.51 215.683 10.6332 215.178 11.2906L217.558 13.1211ZM219.21 6.88266C218.596 7.44064 218.551 8.39032 219.109 9.00383C219.667 9.61733 220.617 9.66235 221.231 9.10436L219.21 6.88266ZM225.567 5.92419C226.286 5.51143 226.535 4.59373 226.122 3.87445C225.709 3.15517 224.791 2.90669 224.072 3.31945L225.567 5.92419ZM229.652 0.956967C228.855 1.18476 228.393 2.01585 228.621 2.81325C228.849 3.61064 229.68 4.0724 230.477 3.8446L229.652 0.956967ZM235.761 3.00166C236.589 2.96632 237.232 2.266 237.197 1.43745C237.162 0.608906 236.461 -0.0341105 235.633 0.00123308L235.761 3.00166ZM241.63 0.365103C240.81 0.235489 240.041 0.794433 239.912 1.61354C239.782 2.43265 240.341 3.20174 241.16 3.33135L241.63 0.365103ZM246.468 4.62141C247.257 4.8766 248.103 4.44382 248.359 3.65476C248.614 2.8657 248.181 2.01917 247.392 1.76398L246.468 4.62141ZM252.862 3.91726C252.109 3.56993 251.217 3.89883 250.869 4.65189C250.522 5.40495 250.851 6.29699 251.604 6.64432L252.862 3.91726ZM256.561 9.22738C257.279 9.64275 258.197 9.39761 258.613 8.67984C259.028 7.96206 258.783 7.04347 258.065 6.62809L256.561 9.22738ZM262.985 9.72744C262.299 9.26126 261.365 9.43935 260.899 10.1252C260.433 10.8111 260.611 11.745 261.297 12.2112L262.985 9.72744ZM265.839 15.5022C266.497 16.0073 267.439 15.8837 267.945 15.2261C268.45 14.5684 268.326 13.6257 267.669 13.1205L265.839 15.5022ZM272.165 16.7533C271.532 16.2174 270.584 16.2959 270.048 16.9287C269.512 17.5615 269.591 18.509 270.224 19.045L272.165 16.7533ZM274.697 22.8494C275.344 23.3676 276.289 23.2629 276.807 22.6154C277.326 21.968 277.221 21.023 276.573 20.5048L274.697 22.8494ZM281.198 23.9231C280.514 23.4546 279.579 23.6295 279.111 24.3138C278.642 24.998 278.817 25.9326 279.501 26.4011L281.198 23.9231ZM284.514 29.5958C285.227 30.019 286.148 29.784 286.571 29.0708C286.995 28.3577 286.76 27.4364 286.046 27.0132L284.514 29.5958ZM291.091 29.8043C290.354 29.4246 289.449 29.7144 289.069 30.4516C288.689 31.1888 288.979 32.0943 289.716 32.4741L291.091 29.8043ZM295.092 35.0492C295.849 35.3859 296.737 35.0445 297.073 34.2866C297.41 33.5287 297.069 32.6414 296.311 32.3047L295.092 35.0492ZM301.64 34.495C300.864 34.2013 299.997 34.592 299.704 35.3675C299.41 36.1431 299.801 37.0099 300.576 37.3035L301.64 34.495ZM306.2 39.2547C306.991 39.5045 307.834 39.066 308.084 38.2752C308.334 37.4844 307.895 36.6409 307.105 36.3911L306.2 39.2547ZM312.652 37.9743C311.848 37.7691 311.03 38.2541 310.825 39.0576C310.62 39.8611 311.105 40.6788 311.908 40.884L312.652 37.9743ZM317.706 42.1917C318.52 42.3513 319.309 41.8209 319.468 41.0071C319.628 40.1933 319.097 39.4043 318.284 39.2447L317.706 42.1917ZM323.987 40.1953C323.166 40.0824 322.408 40.6568 322.295 41.4784C322.182 42.3 322.757 43.0576 323.578 43.1705L323.987 40.1953ZM329.482 43.8105C330.309 43.8762 331.032 43.2593 331.098 42.4326C331.164 41.6059 330.547 40.8825 329.72 40.8168L329.482 43.8105ZM335.481 41.1077C334.652 41.0898 333.965 41.7474 333.947 42.5765C333.929 43.4057 334.587 44.0923 335.416 44.1102L335.481 41.1077ZM341.363 44.0664C342.191 44.0363 342.839 43.3401 342.809 42.5113C342.779 41.6826 342.082 41.0351 341.254 41.0652L341.363 44.0664ZM347.018 40.6887C346.193 40.7666 345.586 41.4991 345.664 42.3247C345.742 43.1503 346.475 43.7565 347.3 43.6786L347.018 40.6887ZM353.208 42.9492C354.028 42.8241 354.591 42.0581 354.466 41.2383C354.34 40.4184 353.574 39.8553 352.755 39.9804L353.208 42.9492ZM358.429 38.9491C357.618 39.1203 357.099 39.9169 357.27 40.7283C357.441 41.5397 358.238 42.0588 359.049 41.8876L358.429 38.9491ZM364.822 40.5009C365.623 40.2851 366.097 39.461 365.881 38.6603C365.666 37.8595 364.841 37.3854 364.041 37.6013L364.822 40.5009ZM369.574 35.9476C368.786 36.2064 368.357 37.0548 368.615 37.8427C368.874 38.6306 369.723 39.0596 370.511 38.8009L369.574 35.9476ZM376.099 36.8014C376.872 36.5019 377.256 35.6321 376.957 34.8588C376.657 34.0855 375.788 33.7015 375.014 34.0011L376.099 36.8014ZM380.351 31.7761C379.594 32.1143 379.255 33.0022 379.593 33.7595C379.931 34.5167 380.819 34.8564 381.576 34.5182L380.351 31.7761ZM386.932 31.9678C387.672 31.5934 387.969 30.69 387.594 29.9501C387.22 29.2101 386.316 28.9137 385.577 29.2881L386.932 31.9678ZM390.683 26.5529C389.961 26.9611 389.707 27.8772 390.115 28.5991C390.524 29.321 391.44 29.5753 392.162 29.1671L390.683 26.5529ZM397.26 26.1323C397.964 25.6927 398.177 24.7663 397.738 24.0631C397.298 23.3599 396.372 23.1462 395.668 23.5858L397.26 26.1323ZM400.517 20.4107C399.833 20.8792 399.658 21.8138 400.127 22.498C400.595 23.1822 401.53 23.3571 402.214 22.8885L400.517 20.4107ZM407.017 19.4567C407.682 18.9615 407.82 18.0207 407.325 17.3555C406.83 16.6903 405.889 16.5525 405.224 17.0477L407.017 19.4567ZM409.804 13.5021C409.158 14.0218 409.055 14.967 409.575 15.6132C410.095 16.2595 411.04 16.3621 411.686 15.8424L409.804 13.5021ZM8.56464 44.1041C8.29753 45.991 8.07291 47.9386 7.90336 49.9209L10.8956 50.1768C11.0602 48.2522 11.2784 46.3596 11.5382 44.525L8.56464 44.1041ZM7.57681 55.7676C7.5278 57.7218 7.54139 59.6871 7.62931 61.6396L10.6294 61.5045C10.5449 59.6281 10.5316 57.7333 10.579 55.8428L7.57681 55.7676ZM8.13797 67.5134C8.39985 69.5012 8.75641 71.4534 9.22211 73.3417L12.1379 72.6226C11.7018 70.8545 11.3646 69.0125 11.1154 67.1211L8.13797 67.5134ZM11.0639 79.0388C11.8494 80.9442 12.79 82.7431 13.9076 84.3926L16.3938 82.708C15.4056 81.2495 14.5583 79.6357 13.8403 77.8942L11.0639 79.0388ZM17.9815 88.9945C19.5251 90.3167 21.269 91.4269 23.2286 92.2821L24.4298 89.5297C22.7489 88.7961 21.2577 87.8466 19.9353 86.7138L17.9815 88.9945ZM29.1251 93.9512C31.0023 94.2336 33.0137 94.3294 35.1655 94.2242L35.0189 91.2246C33.047 91.321 31.2354 91.2317 29.5719 90.9814L29.1251 93.9512ZM41.1018 93.4846C42.0504 93.3008 43.0223 93.0836 44.0179 92.832L43.2823 89.9204C42.3385 90.1588 41.4214 90.3637 40.5304 90.5364L41.1018 93.4846ZM44.0308 92.8287C44.8983 92.6014 45.7955 92.3747 46.719 92.1502L46.0095 89.232C45.069 89.4607 44.1545 89.6918 43.2695 89.9237L44.0308 92.8287ZM52.1449 90.925C53.915 90.555 55.744 90.2009 57.6126 89.8712L57.0908 86.9137C55.1903 87.2491 53.3303 87.6091 51.5304 87.9854L52.1449 90.925ZM63.1094 88.9931C64.9365 88.7324 66.7814 88.501 68.6275 88.3059L68.3119 85.3194C66.4271 85.5185 64.5459 85.7545 62.6852 86.0201L63.1094 88.9931ZM74.1582 87.8366C76.0254 87.7193 77.875 87.6471 79.6899 87.6275L79.6573 84.6245C77.7854 84.6448 75.8836 84.7191 73.9698 84.8394L74.1582 87.8366ZM85.2025 87.7435C87.0951 87.8498 88.9193 88.0282 90.6532 88.2871L91.0967 85.3169C89.2592 85.0425 87.3422 84.8558 85.371 84.745L85.2025 87.7435ZM95.9367 89.4212C97.7576 89.9547 99.3946 90.613 100.82 91.4039L102.277 88.7779C100.621 87.8589 98.7706 87.1221 96.7811 86.5392L95.9367 89.4212ZM104.751 94.5451C105.79 95.7815 106.54 97.2172 106.951 98.893L109.868 98.1782C109.345 96.0467 108.381 94.1959 107.05 92.6126L104.751 94.5451ZM107.205 103.953C107.115 104.775 106.967 105.641 106.755 106.553L109.681 107.232C109.917 106.213 110.086 105.23 110.191 104.281L107.205 103.953ZM106.72 106.794C106.649 107.871 106.604 108.992 106.59 110.145L109.593 110.184C109.607 109.083 109.649 108.014 109.716 106.991L106.72 106.794ZM106.846 116.849C107.046 119.062 107.369 121.308 107.842 123.511L110.778 122.881C110.334 120.811 110.028 118.686 109.837 116.578L106.846 116.849ZM109.781 130.027C110.647 132.215 111.725 134.282 113.056 136.116L115.487 134.353C114.331 132.759 113.366 130.923 112.573 128.922L109.781 130.027ZM118.156 141.019C120.095 142.261 122.314 143.124 124.831 143.508L125.284 140.539C123.182 140.218 121.36 139.505 119.775 138.49L118.156 141.019ZM131.817 143.405C133.883 143.072 136.086 142.48 138.435 141.608L137.389 138.793C135.198 139.607 133.186 140.142 131.339 140.44L131.817 143.405ZM144.578 138.845C145.535 138.345 146.514 137.804 147.515 137.22L146.002 134.626C145.039 135.188 144.101 135.706 143.188 136.183L144.578 138.845ZM147.511 137.222C148.347 136.738 149.221 136.203 150.129 135.62L148.504 133.094C147.633 133.654 146.798 134.164 146.006 134.624L147.511 137.222ZM155.184 132.096C156.724 130.943 158.325 129.676 159.97 128.295L158.038 125.995C156.436 127.341 154.879 128.573 153.385 129.691L155.184 132.096ZM164.551 124.248C165.995 122.908 167.459 121.488 168.934 119.988L166.792 117.883C165.35 119.35 163.918 120.738 162.508 122.047L164.551 124.248ZM173.116 115.54C174.445 114.064 175.773 112.524 177.095 110.921L174.778 109.011C173.484 110.58 172.184 112.087 170.884 113.531L173.116 115.54ZM180.879 106.128C182.083 104.532 183.276 102.884 184.451 101.182L181.979 99.4757C180.829 101.142 179.661 102.756 178.482 104.318L180.879 106.128ZM187.809 96.0854C188.876 94.3871 189.923 92.6418 190.944 90.8499L188.335 89.3632C187.336 91.1167 186.311 92.8249 185.266 94.4872L187.809 96.0854ZM193.851 85.4788C194.768 83.6917 195.658 81.8628 196.516 79.9925L193.786 78.7403C192.947 80.5698 192.077 82.359 191.179 84.1075L193.851 85.4788ZM198.94 74.3833C199.696 72.5192 200.42 70.6174 201.108 68.6783L198.277 67.6747C197.605 69.5709 196.897 71.4307 196.157 73.2539L198.94 74.3833ZM203.017 62.8825C203.604 60.9556 204.154 58.9948 204.664 57.0002L201.755 56.2558C201.256 58.2061 200.718 60.1234 200.144 62.0074L203.017 62.8825ZM206.046 51.0456C206.455 49.0773 206.826 47.0786 207.155 45.0495L204.19 44.5695C203.869 46.554 203.506 48.5086 203.105 50.4332L206.046 51.0456ZM207.995 39.0066C208.113 37.9976 208.22 36.9817 208.316 35.9587L205.327 35.677C205.232 36.6779 205.127 37.6718 205.012 38.6588L207.995 39.0066ZM208.304 36.0555C208.447 35.1639 208.615 34.2512 208.81 33.3236L205.87 32.7078C205.666 33.6819 205.489 34.6414 205.339 35.5802L208.304 36.0555ZM210.205 27.9225C210.745 26.173 211.376 24.4171 212.103 22.6921L209.335 21.5262C208.567 23.3492 207.903 25.199 207.336 27.0368L210.205 27.9225ZM214.536 17.7145C215.446 16.1017 216.453 14.5593 217.558 13.1211L215.178 11.2906C213.977 12.8525 212.893 14.5149 211.92 16.2377L214.536 17.7145ZM221.231 9.10436C222.569 7.88687 224.013 6.81576 225.567 5.92419L224.072 3.31945C222.314 4.3284 220.695 5.5317 219.21 6.88266L221.231 9.10436ZM230.477 3.8446C232.127 3.37338 233.885 3.08166 235.761 3.00166L235.633 0.00123308C233.524 0.0911738 231.531 0.420101 229.652 0.956967L230.477 3.8446ZM241.16 3.33135C242.845 3.59794 244.613 4.0216 246.468 4.62141L247.392 1.76398C245.399 1.11959 243.479 0.657791 241.63 0.365103L241.16 3.33135ZM251.604 6.64432C253.201 7.38078 254.853 8.23873 256.561 9.22738L258.065 6.62809C256.282 5.59644 254.548 4.6952 252.862 3.91726L251.604 6.64432ZM261.297 12.2112C262.773 13.2146 264.287 14.31 265.839 15.5022L267.669 13.1205C266.073 11.8951 264.512 10.7655 262.985 9.72744L261.297 12.2112ZM270.224 19.045C270.941 19.6522 271.665 20.2791 272.397 20.9261L274.386 18.676C273.638 18.0153 272.898 17.3746 272.165 16.7533L270.224 19.045ZM272.403 20.9311C273.128 21.5657 273.893 22.2061 274.697 22.8494L276.573 20.5048C275.803 19.888 275.071 19.2757 274.38 18.671L272.403 20.9311ZM279.501 26.4011C281.072 27.4764 282.745 28.5459 284.514 29.5958L286.046 27.0132C284.332 25.996 282.714 24.9614 281.198 23.9231L279.501 26.4011ZM289.716 32.4741C291.437 33.3608 293.231 34.2224 295.092 35.0492L296.311 32.3047C294.503 31.5015 292.762 30.6649 291.091 29.8043L289.716 32.4741ZM300.576 37.3035C302.398 37.9933 304.273 38.6461 306.2 39.2547L307.105 36.3911C305.232 35.7997 303.41 35.1652 301.64 34.495L300.576 37.3035ZM311.908 40.884C313.8 41.367 315.733 41.8049 317.706 42.1917L318.284 39.2447C316.367 38.8689 314.489 38.4435 312.652 37.9743L311.908 40.884ZM323.578 43.1705C325.514 43.4366 327.482 43.6516 329.482 43.8105L329.72 40.8168C327.778 40.6625 325.867 40.4537 323.987 40.1953L323.578 43.1705ZM335.416 44.1102C337.373 44.1524 339.356 44.1393 341.363 44.0664L341.254 41.0652C339.305 41.136 337.381 41.1487 335.481 41.1077L335.416 44.1102ZM347.3 43.6786C349.25 43.4945 351.22 43.2527 353.208 42.9492L352.755 39.9804C350.824 40.2752 348.911 40.51 347.018 40.6887L347.3 43.6786ZM359.049 41.8876C360.959 41.4846 362.884 41.0234 364.822 40.5009L364.041 37.6013C362.156 38.1093 360.285 38.5575 358.429 38.9491L359.049 41.8876ZM370.511 38.8009C372.363 38.1926 374.226 37.527 376.099 36.8014L375.014 34.0011C373.19 34.7077 371.376 35.3557 369.574 35.9476L370.511 38.8009ZM381.576 34.5182C383.354 33.724 385.14 32.8746 386.932 31.9678L385.577 29.2881C383.827 30.1732 382.085 31.0018 380.351 31.7761L381.576 34.5182ZM392.162 29.1671C393.857 28.2086 395.556 27.1976 397.26 26.1323L395.668 23.5858C394.002 24.628 392.34 25.6164 390.683 26.5529L392.162 29.1671ZM402.214 22.8885C403.812 21.7939 405.414 20.6504 407.017 19.4567L405.224 17.0477C403.652 18.2182 402.083 19.3386 400.517 20.4107L402.214 22.8885ZM411.686 15.8424C412.457 15.2224 413.228 14.5906 414 13.9466L412.076 11.6408C411.318 12.2732 410.561 12.8935 409.804 13.5021L411.686 15.8424Z" fill="#B8B8B8"/>
</svg>
