<svg width="414" height="144" viewBox="0 0 414 144" fill="none" xmlns="http://www.w3.org/2000/svg">
<path d="M11.6165 35.8166L-7.54195e-05 48.6886L16.9556 52.3128L11.6165 35.8166ZM43.6501 91.375L44.0179 92.8309L44.0308 92.8275L43.6501 91.375ZM108.218 106.891L106.755 106.552L106.728 106.671L106.72 106.793L108.218 106.891ZM146.758 135.922L146.006 134.623L146.002 134.625L146.758 135.922ZM206.821 35.8166L205.339 35.579L205.331 35.6272L205.327 35.6758L206.821 35.8166ZM273.391 19.7998L272.397 20.9249L272.403 20.9299L273.391 19.7998ZM8.56464 44.1028C8.29753 45.9898 8.07291 47.9374 7.90336 49.9197L10.8956 50.1756C11.0602 48.251 11.2784 46.3584 11.5382 44.5238L8.56464 44.1028ZM7.57681 55.7663C7.5278 57.7206 7.54139 59.6859 7.62931 61.6384L10.6294 61.5033C10.5449 59.6269 10.5316 57.732 10.579 55.8416L7.57681 55.7663ZM8.13797 67.5122C8.39985 69.5 8.75641 71.4522 9.22211 73.3405L12.1379 72.6213C11.7018 70.8532 11.3646 69.0113 11.1154 67.1199L8.13797 67.5122ZM11.0639 79.0376C11.8494 80.943 12.79 82.7419 13.9076 84.3914L16.3938 82.7068C15.4056 81.2483 14.5583 79.6344 13.8403 77.8929L11.0639 79.0376ZM17.9815 88.9933C19.5251 90.3155 21.269 91.4257 23.2286 92.2809L24.4298 89.5285C22.7489 88.7949 21.2577 87.8453 19.9353 86.7125L17.9815 88.9933ZM29.1251 93.9499C31.0023 94.2324 33.0137 94.3282 35.1655 94.223L35.0189 91.2234C33.047 91.3198 31.2354 91.2305 29.5719 90.9802L29.1251 93.9499ZM41.1018 93.4834C42.0504 93.2996 43.0223 93.0824 44.0179 92.8308L43.2823 89.9192C42.3385 90.1576 41.4214 90.3624 40.5304 90.5351L41.1018 93.4834ZM44.0308 92.8275C44.8983 92.6002 45.7955 92.3735 46.719 92.1489L46.0095 89.2308C45.069 89.4595 44.1545 89.6905 43.2695 89.9225L44.0308 92.8275ZM52.1449 90.9238C53.915 90.5537 55.744 90.1997 57.6126 89.87L57.0908 86.9125C55.1903 87.2478 53.3303 87.6079 51.5304 87.9842L52.1449 90.9238ZM63.1094 88.9919C64.9365 88.7312 66.7814 88.4997 68.6275 88.3047L68.3119 85.3182C66.4271 85.5173 64.5459 85.7533 62.6852 86.0188L63.1094 88.9919ZM74.1582 87.8354C76.0254 87.7181 77.875 87.6459 79.6899 87.6262L79.6573 84.6233C77.7854 84.6436 75.8836 84.7179 73.9698 84.8382L74.1582 87.8354ZM85.2025 87.7422C87.0951 87.8486 88.9193 88.027 90.6532 88.2859L91.0967 85.3157C89.2592 85.0413 87.3422 84.8546 85.371 84.7438L85.2025 87.7422ZM95.9367 89.42C97.7576 89.9534 99.3946 90.6117 100.82 91.4026L102.277 88.7767C100.621 87.8577 98.7706 87.1208 96.7811 86.538L95.9367 89.42ZM104.751 94.5438C105.79 95.7803 106.54 97.2159 106.951 98.8918L109.868 98.177C109.345 96.0455 108.381 94.1947 107.05 92.6114L104.751 94.5438ZM107.205 103.952C107.115 104.773 106.967 105.64 106.755 106.552L109.681 107.23C109.917 106.212 110.086 105.228 110.191 104.279L107.205 103.952ZM106.72 106.793C106.649 107.87 106.604 108.991 106.59 110.144L109.593 110.183C109.607 109.082 109.649 108.013 109.716 106.989L106.72 106.793ZM106.846 116.847C107.046 119.06 107.369 121.307 107.842 123.51L110.778 122.879C110.334 120.81 110.028 118.684 109.837 116.577L106.846 116.847ZM109.781 130.026C110.647 132.214 111.725 134.28 113.056 136.115L115.487 134.352C114.331 132.758 113.366 130.922 112.573 128.92L109.781 130.026ZM118.156 141.018C120.095 142.26 122.314 143.123 124.831 143.507L125.284 140.538C123.182 140.217 121.36 139.504 119.775 138.489L118.156 141.018ZM131.817 143.404C133.883 143.071 136.086 142.479 138.435 141.606L137.389 138.791C135.198 139.605 133.186 140.141 131.339 140.439L131.817 143.404ZM144.578 138.844C145.535 138.344 146.514 137.803 147.515 137.219L146.002 134.625C145.039 135.186 144.101 135.705 143.188 136.182L144.578 138.844ZM147.511 137.221C148.347 136.737 149.221 136.202 150.129 135.618L148.504 133.093C147.633 133.653 146.798 134.163 146.006 134.623L147.511 137.221ZM155.184 132.095C156.724 130.942 158.325 129.675 159.97 128.294L158.038 125.994C156.436 127.339 154.879 128.572 153.385 129.69L155.184 132.095ZM164.551 124.247C165.995 122.907 167.459 121.487 168.934 119.987L166.792 117.882C165.35 119.349 163.918 120.737 162.508 122.045L164.551 124.247ZM173.116 115.539C174.445 114.062 175.773 112.523 177.095 110.92L174.778 109.009C173.484 110.578 172.184 112.085 170.884 113.53L173.116 115.539ZM180.879 106.126C182.083 104.531 183.276 102.882 184.451 101.18L181.979 99.4745C180.829 101.141 179.661 102.755 178.482 104.317L180.879 106.126ZM187.809 96.0842C188.876 94.3859 189.923 92.6406 190.944 90.8487L188.335 89.3619C187.336 91.1155 186.311 92.8236 185.266 94.486L187.809 96.0842ZM193.851 85.4776C194.768 83.6905 195.658 81.8616 196.516 79.9913L193.786 78.7391C192.947 80.5686 192.077 82.3578 191.179 84.1063L193.851 85.4776ZM198.94 74.3821C199.696 72.5179 200.42 70.6162 201.108 68.6771L198.277 67.6735C197.605 69.5697 196.897 71.4295 196.157 73.2527L198.94 74.3821ZM203.017 62.8813C203.604 60.9544 204.154 58.9936 204.664 56.999L201.755 56.2545C201.256 58.2048 200.718 60.1221 200.144 62.0062L203.017 62.8813ZM206.046 51.0443C206.455 49.0761 206.826 47.0773 207.155 45.0482L204.19 44.5683C203.869 46.5527 203.506 48.5074 203.105 50.432L206.046 51.0443ZM207.995 39.0053C208.113 37.9964 208.22 36.9804 208.316 35.9575L205.327 35.6758C205.232 36.6767 205.127 37.6706 205.012 38.6576L207.995 39.0053ZM208.304 36.0543C208.447 35.1627 208.615 34.2499 208.81 33.3223L205.87 32.7066C205.666 33.6806 205.489 34.6402 205.339 35.579L208.304 36.0543ZM210.205 27.9213C210.745 26.1718 211.376 24.4159 212.103 22.6908L209.335 21.525C208.567 23.348 207.903 25.1978 207.336 27.0355L210.205 27.9213ZM214.536 17.7132C215.446 16.1005 216.453 14.5581 217.558 13.1199L215.178 11.2894C213.977 12.8513 212.893 14.5137 211.92 16.2365L214.536 17.7132ZM221.231 9.10314C222.569 7.88565 224.013 6.81454 225.567 5.92297L224.072 3.31822C222.314 4.32718 220.695 5.53047 219.21 6.88143L221.231 9.10314ZM230.477 3.84338C232.127 3.37216 233.885 3.08043 235.761 3.00044L235.633 1.10981e-05C233.524 0.0899518 231.531 0.418879 229.652 0.955745L230.477 3.84338ZM241.16 3.33013C242.845 3.59672 244.613 4.02038 246.468 4.62019L247.392 1.76275C245.399 1.11837 243.479 0.656569 241.63 0.363881L241.16 3.33013ZM251.604 6.6431C253.201 7.37956 254.853 8.23751 256.561 9.22615L258.065 6.62687C256.282 5.59522 254.548 4.69398 252.862 3.91603L251.604 6.6431ZM261.297 12.21C262.773 13.2134 264.287 14.3088 265.839 15.5009L267.669 13.1193C266.073 11.8939 264.512 10.7643 262.985 9.72622L261.297 12.21ZM270.224 19.0438C270.941 19.651 271.665 20.2779 272.397 20.9249L274.386 18.6748C273.638 18.0141 272.898 17.3734 272.165 16.7521L270.224 19.0438ZM272.403 20.9299C273.128 21.5645 273.893 22.2049 274.697 22.8482L276.573 20.5036C275.803 19.8868 275.071 19.2745 274.38 18.6698L272.403 20.9299ZM279.501 26.3998C281.072 27.4752 282.745 28.5447 284.514 29.5946L286.046 27.012C284.332 25.9948 282.714 24.9602 281.198 23.9218L279.501 26.3998ZM289.716 32.4729C291.437 33.3596 293.231 34.2212 295.092 35.0479L296.311 32.3035C294.503 31.5003 292.762 30.6637 291.091 29.8031L289.716 32.4729ZM300.576 37.3023C302.398 37.992 304.273 38.6449 306.2 39.2535L307.105 36.3898C305.232 35.7984 303.41 35.164 301.64 34.4937L300.576 37.3023ZM311.908 40.8828C313.8 41.3658 315.733 41.8037 317.706 42.1905L318.284 39.2435C316.367 38.8677 314.489 38.4423 312.652 37.973L311.908 40.8828ZM323.578 43.1693C325.514 43.4354 327.482 43.6504 329.482 43.8093L329.72 40.8156C327.778 40.6613 325.867 40.4525 323.987 40.1941L323.578 43.1693ZM335.416 44.109C337.373 44.1512 339.356 44.1381 341.363 44.0652L341.254 41.064C339.305 41.1348 337.381 41.1475 335.481 41.1065L335.416 44.109ZM347.3 43.6773C349.25 43.4933 351.22 43.2515 353.208 42.948L352.755 39.9792C350.824 40.274 348.911 40.5088 347.018 40.6875L347.3 43.6773ZM359.049 41.8863C360.959 41.4834 362.884 41.0222 364.822 40.4997L364.041 37.6C362.156 38.1081 360.285 38.5563 358.429 38.9479L359.049 41.8863ZM370.511 38.7997C372.363 38.1914 374.226 37.5258 376.099 36.8002L375.014 33.9998C373.19 34.7065 371.376 35.3545 369.574 35.9464L370.511 38.7997ZM381.576 34.517C383.354 33.7228 385.14 32.8734 386.932 31.9666L385.577 29.2869C383.827 30.172 382.085 31.0006 380.351 31.7749L381.576 34.517ZM392.162 29.1658C393.857 28.2074 395.556 27.1964 397.26 26.1311L395.668 23.5846C394.002 24.6267 392.34 25.6151 390.683 26.5517L392.162 29.1658ZM402.214 22.8873C403.812 21.7927 405.414 20.6492 407.017 19.4554L405.224 17.0465C403.652 18.2169 402.083 19.3374 400.517 20.4094L402.214 22.8873ZM411.686 15.8412C412.457 15.2212 413.228 14.5893 414 13.9454L412.076 11.6396C411.318 12.2719 410.561 12.8923 409.804 13.5008L411.686 15.8412Z" fill="#B8B8B8"/>
</svg>
